<?xml version="1.0" standalone="no"?>
<!DOCTYPE svg PUBLIC "-//W3C//DTD SVG 20010904//EN"
 "http://www.w3.org/TR/2001/REC-SVG-20010904/DTD/svg10.dtd">
<svg version="1.0" xmlns="http://www.w3.org/2000/svg"
 width="768.000000pt" height="768.000000pt" viewBox="0 0 768.000000 768.000000"
 preserveAspectRatio="xMidYMid meet">
<metadata>
Created by potrace 1.14, written by Peter Selinger 2001-2017
</metadata>
<g transform="translate(0.000000,768.000000) scale(0.100000,-0.100000)"
fill="#000000" stroke="none">
<path d="M800 3892 l0 -3788 3040 0 3040 0 0 327 0 327 -112 1 c-62 1 -122 1
-133 1 -11 0 -661 1 -1445 1 -784 0 -1429 0 -1435 0 -5 0 -75 0 -155 -1 -80 0
-154 0 -165 0 -11 0 -373 1 -805 1 -432 0 -789 0 -795 0 -5 0 -90 -1 -188 -2
-97 -1 -181 1 -185 5 -4 4 -7 1561 -7 3459 l0 3452 -328 3 -327 2 0 -3788z"/>
<path d="M5629 7056 c-1 -1 -2 -216 -3 -478 l-2 -478 478 0 478 0 0 78 c1 83
1 744 0 828 l0 51 -475 0 c-261 0 -476 -1 -476 -1z"/>
<path d="M4695 6769 c-170 -24 -169 -24 -245 -44 -36 -9 -74 -19 -85 -22 -26
-5 -37 -9 -55 -16 -8 -3 -42 -15 -75 -27 -178 -64 -379 -190 -512 -320 -195
-192 -290 -387 -339 -695 -9 -58 -11 -283 -3 -330 4 -22 9 -61 12 -88 3 -26 8
-51 11 -55 3 -5 8 -23 11 -40 3 -18 15 -57 26 -87 11 -30 20 -58 21 -62 0 -5
8 -19 17 -33 10 -14 21 -33 24 -42 15 -42 114 -174 180 -242 144 -147 367
-293 572 -375 33 -13 80 -33 105 -44 25 -11 59 -25 75 -32 17 -7 100 -41 185
-75 85 -34 159 -66 165 -71 5 -5 15 -9 21 -9 12 0 50 -17 222 -96 41 -19 78
-34 83 -34 5 0 9 -4 9 -10 0 -5 6 -10 13 -10 15 0 101 -42 105 -52 2 -5 8 -8
13 -8 5 0 39 -18 75 -40 36 -22 68 -40 70 -40 3 0 10 -4 17 -10 7 -5 39 -31
72 -57 72 -57 85 -71 136 -147 55 -84 81 -170 85 -291 5 -132 -28 -254 -83
-313 -7 -7 -18 -21 -25 -30 -52 -71 -228 -162 -361 -188 -10 -2 -26 -5 -35 -8
-33 -10 -148 -25 -252 -33 -155 -12 -502 -5 -640 12 -133 17 -218 33 -300 55
-41 11 -82 22 -90 24 -8 3 -28 9 -43 15 -16 6 -29 11 -30 11 -2 0 0 -720 2
-731 1 -7 36 -18 81 -25 14 -2 45 -9 70 -14 25 -5 68 -12 95 -15 28 -3 64 -8
80 -10 169 -21 609 -33 785 -20 100 7 205 16 230 20 14 2 45 7 70 10 103 14
248 45 327 70 116 37 149 48 157 56 6 5 16 9 24 9 8 0 36 11 64 25 27 14 56
25 63 25 7 0 15 4 17 8 2 4 30 23 63 41 143 80 302 227 381 351 44 68 94 160
94 172 0 4 5 19 12 35 23 57 56 191 65 268 21 171 4 454 -34 585 -9 30 -18 63
-20 72 -5 29 -83 188 -117 242 -102 155 -210 254 -446 406 -52 33 -294 148
-455 215 -49 20 -109 46 -132 56 -24 11 -46 19 -49 19 -3 0 -20 6 -37 14 -18
7 -57 23 -87 34 -158 59 -280 105 -317 123 -24 10 -45 19 -47 19 -13 0 -193
91 -266 134 -163 96 -274 231 -306 373 -29 133 -24 249 17 357 17 47 28 63 92
136 54 62 221 150 353 185 32 9 74 18 93 21 19 2 37 6 40 9 25 15 389 25 448
11 14 -3 22 1 25 12 2 9 3 163 2 340 0 262 -3 325 -14 332 -26 16 -436 8 -575
-11z"/>
<path d="M2565 2952 c-20 -3 -20 -10 -20 -480 l0 -477 478 0 c470 0 477 0 478
20 0 11 1 227 2 479 l0 459 -459 1 c-252 1 -468 0 -479 -2z"/>
</g>
</svg>
