<svg width="34" height="43" viewBox="0 0 34 43" fill="none" xmlns="http://www.w3.org/2000/svg">
<g filter="url(#filter0_dd_102_106)">
<path d="M23.9219 31.1025C24.2534 31.1025 24.5162 31.1997 24.7106 31.394C24.9049 31.5883 25.002 31.8398 25.002 32.1484V34H8.61161V32.9542C8.61161 32.737 8.65733 32.5141 8.74877 32.2855C8.84021 32.0569 8.98308 31.8455 9.17739 31.6512L17.0468 23.7474C17.6983 23.0845 18.2927 22.4501 18.8299 21.8444C19.3671 21.2271 19.8243 20.6099 20.2015 19.9927C20.5787 19.3755 20.8701 18.7526 21.0759 18.1239C21.2816 17.4839 21.3845 16.8038 21.3845 16.0837C21.3845 15.3636 21.2702 14.735 21.0416 14.1978C20.813 13.6492 20.4987 13.1977 20.0986 12.8433C19.71 12.489 19.2471 12.2261 18.7099 12.0547C18.1727 11.8718 17.5955 11.7804 16.9783 11.7804C16.3496 11.7804 15.7724 11.8718 15.2466 12.0547C14.7209 12.2376 14.2522 12.4947 13.8408 12.8262C13.4407 13.1462 13.1035 13.5291 12.8292 13.9749C12.5549 14.4207 12.3606 14.9121 12.2463 15.4494C12.1091 15.8494 11.9206 16.118 11.6805 16.2552C11.4519 16.3809 11.1262 16.4152 10.7033 16.358L9.10881 16.0837C9.26883 14.9636 9.57743 13.9749 10.0346 13.1177C10.5032 12.249 11.0862 11.5232 11.7834 10.9403C12.492 10.3574 13.2978 9.9173 14.2008 9.62013C15.1038 9.31152 16.081 9.15722 17.1326 9.15722C18.1727 9.15722 19.1442 9.31152 20.0472 9.62013C20.9501 9.92873 21.7331 10.3802 22.396 10.9746C23.0589 11.5575 23.579 12.2719 23.9562 13.1177C24.3334 13.9635 24.522 14.9236 24.522 15.998C24.522 16.9124 24.3848 17.7639 24.1105 18.5526C23.8362 19.3298 23.4647 20.0727 22.9961 20.7814C22.5275 21.49 21.9845 22.1815 21.3673 22.8559C20.7615 23.5303 20.1158 24.2103 19.43 24.8961L12.9492 31.514C13.4064 31.3883 13.8693 31.2911 14.338 31.2225C14.8066 31.1425 15.2581 31.1025 15.6924 31.1025H23.9219Z" fill="url(#paint0_linear_102_106)"/>
<path d="M23.9219 31.1025C24.2534 31.1025 24.5162 31.1997 24.7106 31.394C24.9049 31.5883 25.002 31.8398 25.002 32.1484V34H8.61161V32.9542C8.61161 32.737 8.65733 32.5141 8.74877 32.2855C8.84021 32.0569 8.98308 31.8455 9.17739 31.6512L17.0468 23.7474C17.6983 23.0845 18.2927 22.4501 18.8299 21.8444C19.3671 21.2271 19.8243 20.6099 20.2015 19.9927C20.5787 19.3755 20.8701 18.7526 21.0759 18.1239C21.2816 17.4839 21.3845 16.8038 21.3845 16.0837C21.3845 15.3636 21.2702 14.735 21.0416 14.1978C20.813 13.6492 20.4987 13.1977 20.0986 12.8433C19.71 12.489 19.2471 12.2261 18.7099 12.0547C18.1727 11.8718 17.5955 11.7804 16.9783 11.7804C16.3496 11.7804 15.7724 11.8718 15.2466 12.0547C14.7209 12.2376 14.2522 12.4947 13.8408 12.8262C13.4407 13.1462 13.1035 13.5291 12.8292 13.9749C12.5549 14.4207 12.3606 14.9121 12.2463 15.4494C12.1091 15.8494 11.9206 16.118 11.6805 16.2552C11.4519 16.3809 11.1262 16.4152 10.7033 16.358L9.10881 16.0837C9.26883 14.9636 9.57743 13.9749 10.0346 13.1177C10.5032 12.249 11.0862 11.5232 11.7834 10.9403C12.492 10.3574 13.2978 9.9173 14.2008 9.62013C15.1038 9.31152 16.081 9.15722 17.1326 9.15722C18.1727 9.15722 19.1442 9.31152 20.0472 9.62013C20.9501 9.92873 21.7331 10.3802 22.396 10.9746C23.0589 11.5575 23.579 12.2719 23.9562 13.1177C24.3334 13.9635 24.522 14.9236 24.522 15.998C24.522 16.9124 24.3848 17.7639 24.1105 18.5526C23.8362 19.3298 23.4647 20.0727 22.9961 20.7814C22.5275 21.49 21.9845 22.1815 21.3673 22.8559C20.7615 23.5303 20.1158 24.2103 19.43 24.8961L12.9492 31.514C13.4064 31.3883 13.8693 31.2911 14.338 31.2225C14.8066 31.1425 15.2581 31.1025 15.6924 31.1025H23.9219Z" fill="url(#paint1_linear_102_106)" fill-opacity="0.35"/>
</g>
<defs>
<filter id="filter0_dd_102_106" x="0.447393" y="0.993048" width="32.7187" height="41.1711" filterUnits="userSpaceOnUse" color-interpolation-filters="sRGB">
<feFlood flood-opacity="0" result="BackgroundImageFix"/>
<feColorMatrix in="SourceAlpha" type="matrix" values="0 0 0 0 0 0 0 0 0 0 0 0 0 0 0 0 0 0 127 0" result="hardAlpha"/>
<feOffset/>
<feGaussianBlur stdDeviation="4.08209"/>
<feComposite in2="hardAlpha" operator="out"/>
<feColorMatrix type="matrix" values="0 0 0 0 1 0 0 0 0 0.675343 0 0 0 0 0.5375 0 0 0 1 0"/>
<feBlend mode="normal" in2="BackgroundImageFix" result="effect1_dropShadow_102_106"/>
<feColorMatrix in="SourceAlpha" type="matrix" values="0 0 0 0 0 0 0 0 0 0 0 0 0 0 0 0 0 0 127 0" result="hardAlpha"/>
<feOffset/>
<feGaussianBlur stdDeviation="2.85746"/>
<feComposite in2="hardAlpha" operator="out"/>
<feColorMatrix type="matrix" values="0 0 0 0 1 0 0 0 0 0.298039 0 0 0 0 0 0 0 0 1 0"/>
<feBlend mode="normal" in2="effect1_dropShadow_102_106" result="effect2_dropShadow_102_106"/>
<feBlend mode="normal" in="SourceGraphic" in2="effect2_dropShadow_102_106" result="shape"/>
</filter>
<linearGradient id="paint0_linear_102_106" x1="17" y1="0" x2="17" y2="41" gradientUnits="userSpaceOnUse">
<stop stop-color="#FF4C00"/>
<stop offset="0.5" stop-color="#FF8B59"/>
<stop offset="1" stop-color="#FF4C00"/>
</linearGradient>
<linearGradient id="paint1_linear_102_106" x1="7.76125" y1="41" x2="27.0236" y2="38.0068" gradientUnits="userSpaceOnUse">
<stop/>
<stop offset="1" stop-opacity="0"/>
</linearGradient>
</defs>
</svg>
