<svg width="660" height="356" viewBox="0 0 660 356" fill="none" xmlns="http://www.w3.org/2000/svg">
<path d="M13 354L660 354" stroke="white" stroke-width="4" stroke-miterlimit="10"/>
<path d="M116 0V354" stroke="white" stroke-miterlimit="10"/>
<path d="M219 0V354" stroke="white" stroke-miterlimit="10"/>
<path d="M322 0V354" stroke="white" stroke-miterlimit="10"/>
<path d="M425 0V354" stroke="white" stroke-miterlimit="10"/>
<path d="M528 0V354" stroke="white" stroke-miterlimit="10"/>
<path d="M632 0V354" stroke="white" stroke-miterlimit="10"/>
<g filter="url(#filter0_d_38_526)">
<path fill-rule="evenodd" clip-rule="evenodd" d="M24.5149 207.267C20.6929 209.489 16.8191 210.86 12.9373 210.86C11.87 210.86 11.0049 209.995 11.0049 208.928C11.0049 207.86 11.87 206.995 12.9373 206.995C15.9056 206.995 19.1019 205.943 22.5725 203.926C26.0409 201.909 29.6776 198.99 33.4949 195.405C39.5008 189.766 45.7757 182.657 52.4055 175.145C54.2294 173.079 56.0801 170.982 57.9595 168.877C66.6155 159.182 75.8365 149.366 85.5849 141.975C95.3276 134.588 105.795 129.469 116.937 129.469C128.089 129.469 137.225 134.241 145.297 141.166C152.911 147.698 159.719 156.271 166.461 164.762C166.826 165.222 167.191 165.681 167.556 166.141C181.968 184.272 196.239 201.353 218.425 201.353C241.139 201.353 255.544 193.141 270.139 184.704L270.537 184.474C285.039 176.088 299.83 167.536 322.773 167.536C346.052 167.536 360.626 183.349 374.599 198.51L375.121 199.077C389.465 214.635 403.334 229.372 425.614 229.372C447.804 229.372 461.331 214.024 475.699 197.721L475.787 197.621C489.975 181.523 504.986 164.56 529.961 164.56C554.272 164.56 567.899 169.41 581.349 174.199L581.364 174.204C594.663 178.94 607.788 183.613 631.411 183.613C632.478 183.613 633.343 184.479 633.343 185.546C633.343 186.613 632.478 187.478 631.411 187.478C607.12 187.478 593.502 182.629 580.054 177.84L580.052 177.84C566.748 173.102 553.613 168.425 529.961 168.425C506.976 168.425 493.059 183.868 478.687 200.176L478.138 200.798C464.148 216.677 449.558 233.237 425.614 233.237C401.401 233.237 386.439 217.055 372.28 201.696L372.219 201.63C357.872 186.068 344.351 171.401 322.773 171.401C300.87 171.401 286.847 179.508 272.318 187.908L272.073 188.05C257.422 196.52 242.243 205.217 218.425 205.217C194.079 205.217 178.689 186.356 164.531 168.545C164.193 168.12 163.856 167.696 163.519 167.272C156.699 158.685 150.105 150.382 142.781 144.099C135.142 137.546 126.867 133.333 116.937 133.333C106.997 133.333 97.3487 137.905 87.9199 145.054C78.4968 152.199 69.4908 161.765 60.8424 171.451C59.0069 173.507 57.1854 175.571 55.3795 177.617C48.7305 185.151 42.2921 192.446 36.1404 198.223C32.2174 201.906 28.339 205.044 24.5149 207.267Z" fill="#FF4C00"/>
</g>
<path opacity="0.3" d="M12.9373 252.754C40.3382 252.754 74.7729 213.488 116.937 213.488C159.101 213.488 171.894 257.778 218.425 257.778C264.957 257.778 277.594 121.546 322.773 121.546C367.952 121.546 379.121 191.111 425.614 191.111C472.106 191.111 482 145.971 529.961 145.971C577.923 145.971 583.488 215.536 631.411 215.536V354.28H12.9373V252.754Z" fill="white"/>
<path d="M13 354V0" stroke="white" stroke-width="4" stroke-miterlimit="10"/>
<defs>
<filter id="filter0_d_38_526" x="0.00488281" y="118.469" width="644.338" height="125.768" filterUnits="userSpaceOnUse" color-interpolation-filters="sRGB">
<feFlood flood-opacity="0" result="BackgroundImageFix"/>
<feColorMatrix in="SourceAlpha" type="matrix" values="0 0 0 0 0 0 0 0 0 0 0 0 0 0 0 0 0 0 127 0" result="hardAlpha"/>
<feOffset/>
<feGaussianBlur stdDeviation="5.5"/>
<feComposite in2="hardAlpha" operator="out"/>
<feColorMatrix type="matrix" values="0 0 0 0 1 0 0 0 0 0.545098 0 0 0 0 0.34902 0 0 0 1 0"/>
<feBlend mode="normal" in2="BackgroundImageFix" result="effect1_dropShadow_38_526"/>
<feBlend mode="normal" in="SourceGraphic" in2="effect1_dropShadow_38_526" result="shape"/>
</filter>
</defs>
</svg>
