<svg width="84" height="28" viewBox="0 0 84 28" fill="none" xmlns="http://www.w3.org/2000/svg">
<path d="M24.752 7.07891H30.1751V9.22613H24.752V15.8329C24.752 16.5487 24.8071 17.1451 24.9172 17.6223C25.0273 18.0811 25.1925 18.4481 25.4127 18.7234C25.6329 18.9804 25.9082 19.1639 26.2386 19.274C26.5689 19.3841 26.9543 19.4392 27.3948 19.4392C28.1656 19.4392 28.7804 19.3566 29.2392 19.1914C29.7163 19.0079 30.0467 18.8794 30.2302 18.806L30.7257 20.9257C30.4688 21.0542 30.0191 21.2102 29.3768 21.3937C28.7345 21.5956 28.0004 21.6965 27.1745 21.6965C26.2019 21.6965 25.3944 21.5772 24.752 21.3386C24.1281 21.0817 23.6234 20.7055 23.238 20.21C22.8526 19.7144 22.5773 19.1088 22.4121 18.3931C22.2653 17.659 22.1919 16.8148 22.1919 15.8605V3.0873L24.752 2.64684V7.07891Z" fill="white"/>
<path d="M38.2779 19.5493C38.8836 19.5493 39.4158 19.5401 39.8746 19.5217C40.3517 19.485 40.7463 19.43 41.0583 19.3566V15.0897C40.8748 14.9979 40.572 14.9245 40.1499 14.8694C39.7461 14.796 39.2506 14.7593 38.6633 14.7593C38.2779 14.7593 37.865 14.7869 37.4246 14.8419C37.0025 14.897 36.6079 15.0163 36.2408 15.1998C35.8921 15.365 35.5985 15.6035 35.3599 15.9155C35.1213 16.2092 35.0021 16.6037 35.0021 17.0992C35.0021 18.0169 35.2957 18.6592 35.883 19.0262C36.4702 19.3749 37.2686 19.5493 38.2779 19.5493ZM38.0577 6.72104C39.0854 6.72104 39.948 6.85869 40.6454 7.13397C41.3611 7.3909 41.93 7.76712 42.3521 8.26263C42.7926 8.73979 43.1046 9.31789 43.2881 9.99692C43.4716 10.6576 43.5634 11.3917 43.5634 12.1992V21.1459C43.3432 21.1826 43.0312 21.2377 42.6274 21.3111C42.242 21.3661 41.8016 21.4212 41.3061 21.4763C40.8105 21.5313 40.2692 21.5772 39.6819 21.6139C39.113 21.669 38.544 21.6965 37.9751 21.6965C37.1676 21.6965 36.4244 21.6139 35.7453 21.4487C35.0663 21.2836 34.479 21.0266 33.9835 20.6779C33.488 20.3109 33.1026 19.8337 32.8273 19.2465C32.552 18.6592 32.4144 17.9526 32.4144 17.1268C32.4144 16.3376 32.5704 15.6586 32.8824 15.0897C33.2127 14.5208 33.6532 14.0619 34.2037 13.7133C34.7543 13.3646 35.3966 13.1076 36.1307 12.9425C36.8648 12.7773 37.6356 12.6947 38.4431 12.6947C38.7 12.6947 38.9661 12.7131 39.2414 12.7498C39.5167 12.7681 39.7736 12.8048 40.0122 12.8599C40.2692 12.8966 40.4894 12.9333 40.6729 12.97C40.8564 13.0067 40.9849 13.0342 41.0583 13.0526V12.3368C41.0583 11.9147 41.0124 11.5018 40.9207 11.0981C40.8289 10.676 40.6637 10.3089 40.4252 9.99692C40.1866 9.66658 39.8562 9.40965 39.4341 9.22613C39.0304 9.02425 38.4982 8.92332 37.8375 8.92332C36.9933 8.92332 36.25 8.98755 35.6077 9.11601C34.9837 9.22613 34.5157 9.34542 34.2037 9.47388L33.9009 7.3542C34.2313 7.20738 34.7818 7.06974 35.5526 6.94127C36.3234 6.79445 37.1584 6.72104 38.0577 6.72104Z" fill="white"/>
<path d="M50.2104 7.07891H55.6335V9.22613H50.2104V15.8329C50.2104 16.5487 50.2655 17.1451 50.3756 17.6223C50.4857 18.0811 50.6509 18.4481 50.8711 18.7234C51.0913 18.9804 51.3666 19.1639 51.697 19.274C52.0273 19.3841 52.4127 19.4392 52.8531 19.4392C53.6239 19.4392 54.2387 19.3566 54.6975 19.1914C55.1747 19.0079 55.505 18.8794 55.6886 18.806L56.1841 20.9257C55.9271 21.0542 55.4775 21.2102 54.8352 21.3937C54.1929 21.5956 53.4588 21.6965 52.6329 21.6965C51.6602 21.6965 50.8527 21.5772 50.2104 21.3386C49.5864 21.0817 49.0818 20.7055 48.6964 20.21C48.311 19.7144 48.0357 19.1088 47.8705 18.3931C47.7237 17.659 47.6503 16.8148 47.6503 15.8605V3.0873L50.2104 2.64684V7.07891Z" fill="white"/>
<path d="M64.0667 13.5206C64.6172 13.9427 65.1953 14.4657 65.8009 15.0897C66.4249 15.7137 67.0305 16.3927 67.6178 17.1268C68.2234 17.8425 68.7924 18.5766 69.3246 19.329C69.8568 20.0631 70.3064 20.7513 70.6735 21.3937H67.6729C67.2875 20.7513 66.8378 20.0998 66.324 19.4392C65.8285 18.7601 65.3054 18.1178 64.7549 17.5122C64.2043 16.8882 63.6446 16.3193 63.0756 15.8054C62.5067 15.2915 61.9653 14.8603 61.4515 14.5116V21.3937H58.8913V0.4721L61.4515 0.0316467V13.0801C61.8919 12.6396 62.3783 12.1533 62.9105 11.6211C63.4427 11.0889 63.9657 10.5475 64.4796 9.99692C64.9934 9.44635 65.4798 8.92332 65.9386 8.4278C66.3974 7.91394 66.792 7.46431 67.1223 7.07891H70.1229C69.7008 7.53772 69.242 8.04241 68.7465 8.59297C68.251 9.14354 67.7371 9.70329 67.2049 10.2722C66.6727 10.8228 66.1313 11.3825 65.5807 11.9514C65.0485 12.502 64.5438 13.025 64.0667 13.5206Z" fill="white"/>
<path d="M78.1188 19.5493C78.7244 19.5493 79.2567 19.5401 79.7155 19.5217C80.1926 19.485 80.5872 19.43 80.8992 19.3566V15.0897C80.7157 14.9979 80.4129 14.9245 79.9908 14.8694C79.587 14.796 79.0915 14.7593 78.5042 14.7593C78.1188 14.7593 77.7059 14.7869 77.2654 14.8419C76.8433 14.897 76.4488 15.0163 76.0817 15.1998C75.733 15.365 75.4394 15.6035 75.2008 15.9155C74.9622 16.2092 74.8429 16.6037 74.8429 17.0992C74.8429 18.0169 75.1366 18.6592 75.7239 19.0262C76.3111 19.3749 77.1095 19.5493 78.1188 19.5493ZM77.8986 6.72104C78.9263 6.72104 79.7889 6.85869 80.4863 7.13397C81.202 7.3909 81.7709 7.76712 82.193 8.26263C82.6335 8.73979 82.9455 9.31789 83.129 9.99692C83.3125 10.6576 83.4043 11.3917 83.4043 12.1992V21.1459C83.184 21.1826 82.8721 21.2377 82.4683 21.3111C82.0829 21.3661 81.6425 21.4212 81.1469 21.4763C80.6514 21.5313 80.11 21.5772 79.5228 21.6139C78.9538 21.669 78.3849 21.6965 77.816 21.6965C77.0085 21.6965 76.2652 21.6139 75.5862 21.4487C74.9072 21.2836 74.3199 21.0266 73.8244 20.6779C73.3289 20.3109 72.9435 19.8337 72.6682 19.2465C72.3929 18.6592 72.2553 17.9526 72.2553 17.1268C72.2553 16.3376 72.4113 15.6586 72.7233 15.0897C73.0536 14.5208 73.4941 14.0619 74.0446 13.7133C74.5952 13.3646 75.2375 13.1076 75.9716 12.9425C76.7057 12.7773 77.4765 12.6947 78.284 12.6947C78.5409 12.6947 78.807 12.7131 79.0823 12.7498C79.3576 12.7681 79.6145 12.8048 79.8531 12.8599C80.11 12.8966 80.3303 12.9333 80.5138 12.97C80.6973 13.0067 80.8258 13.0342 80.8992 13.0526V12.3368C80.8992 11.9147 80.8533 11.5018 80.7616 11.0981C80.6698 10.676 80.5046 10.3089 80.266 9.99692C80.0275 9.66658 79.6971 9.40965 79.275 9.22613C78.8713 9.02425 78.3391 8.92332 77.6784 8.92332C76.8342 8.92332 76.0909 8.98755 75.4486 9.11601C74.8246 9.22613 74.3566 9.34542 74.0446 9.47388L73.7418 7.3542C74.0722 7.20738 74.6227 7.06974 75.3935 6.94127C76.1643 6.79445 76.9993 6.72104 77.8986 6.72104Z" fill="white"/>
<path fill-rule="evenodd" clip-rule="evenodd" d="M8.44197 21.6221V18.6311H5.45093V21.6221H8.44197Z" fill="#FF4C00"/>
<path d="M13.2724 6.64154C13.5149 6.64154 13.7575 6.65147 14 6.67134V8.81216C13.7687 8.79656 13.5262 8.78876 13.2724 8.78876C12.5566 8.78876 11.9327 8.93557 11.4005 9.22921C10.8682 9.50449 10.6021 9.94495 10.6021 10.5506C10.6021 10.8626 10.6572 11.1378 10.7673 11.3764C10.8958 11.615 11.0793 11.8352 11.3179 12.0371C11.5748 12.2206 11.8868 12.395 12.2538 12.5601C12.6209 12.7253 13.0613 12.8997 13.5752 13.0832C14.2542 13.3401 14.8599 13.597 15.3921 13.854C15.9243 14.0926 16.3739 14.377 16.741 14.7074C17.1264 15.0377 17.42 15.4415 17.6219 15.9186C17.8237 16.3774 17.9247 16.9463 17.9247 17.6254C17.9247 18.9467 17.4292 19.9469 16.4382 20.626C15.4655 21.305 14.0707 21.6445 12.2538 21.6445C11.1177 21.6445 10.2032 21.5559 9.51024 21.3786L9.51024 19.0764C9.56973 19.0969 9.63088 19.1179 9.6937 19.1394C10.336 19.3597 11.1894 19.4698 12.2538 19.4698C13.2999 19.4698 14.0707 19.3321 14.5662 19.0568C15.0801 18.7816 15.337 18.3411 15.337 17.7355C15.337 17.1115 15.0893 16.616 14.5938 16.2489C14.0982 15.8819 13.2816 15.469 12.1437 15.0102C11.5932 14.7899 11.0609 14.5697 10.5471 14.3495C10.0516 14.1109 9.62029 13.8356 9.25324 13.5236C8.8862 13.2117 8.59256 12.8354 8.37233 12.395C8.15211 11.9545 8.04199 11.4131 8.04199 10.7708C8.04199 9.50449 8.50998 8.5043 9.44594 7.77021C10.3819 7.01776 11.6574 6.64154 13.2724 6.64154Z" fill="white"/>
<path d="M18.0567 8.80232V5.81128H15.0657V8.80232H18.0567Z" fill="#FF4C00"/>
<path d="M2.04515 3.86642H0V27.5317L18.9907 27.5317V25.4866H2.04515V3.86642Z" fill="white"/>
</svg>
