<svg width="1369" height="65" viewBox="0 0 1369 65" fill="none" xmlns="http://www.w3.org/2000/svg">
<g opacity="0.6">
<g filter="url(#filter0_dd_55_425)">
<path d="M23.4534 53.2582V55.5898H10.2862V53.2582H15.5496V36.5077C15.5496 36.0048 15.5668 35.4962 15.6011 34.9818L11.2292 38.7365C11.0806 38.8623 10.932 38.9423 10.7834 38.9766C10.6348 38.9994 10.4976 38.9994 10.3719 38.9766C10.2462 38.9537 10.1262 38.908 10.0119 38.8394C9.90901 38.7708 9.829 38.6965 9.77185 38.6165L8.81174 37.2964L16.1326 30.9699H18.6186V53.2582H23.4534ZM60.3811 43.3142C60.3811 45.463 60.1468 47.3261 59.6781 48.9034C59.221 50.4693 58.5923 51.7666 57.7922 52.7952C56.9921 53.8239 56.0435 54.5897 54.9462 55.0926C53.8604 55.5956 52.6945 55.847 51.4487 55.847C50.1914 55.847 49.0198 55.5956 47.934 55.0926C46.8596 54.5897 45.9223 53.8239 45.1222 52.7952C44.3221 51.7666 43.6935 50.4693 43.2363 48.9034C42.7791 47.3261 42.5505 45.463 42.5505 43.3142C42.5505 41.1654 42.7791 39.3023 43.2363 37.725C43.6935 36.1477 44.3221 34.8447 45.1222 33.816C45.9223 32.7759 46.8596 32.0043 47.934 31.5014C49.0198 30.9985 50.1914 30.7471 51.4487 30.7471C52.6945 30.7471 53.8604 30.9985 54.9462 31.5014C56.0435 32.0043 56.9921 32.7759 57.7922 33.816C58.5923 34.8447 59.221 36.1477 59.6781 37.725C60.1468 39.3023 60.3811 41.1654 60.3811 43.3142ZM57.2093 43.3142C57.2093 41.4397 57.0493 39.8681 56.7292 38.5994C56.4206 37.3192 55.9977 36.2905 55.4605 35.5133C54.9348 34.7361 54.3233 34.1817 53.626 33.8503C52.9288 33.5074 52.203 33.3359 51.4487 33.3359C50.6943 33.3359 49.9685 33.5074 49.2713 33.8503C48.574 34.1817 47.9626 34.7361 47.4368 35.5133C46.911 36.2905 46.4881 37.3192 46.1681 38.5994C45.8595 39.8681 45.7052 41.4397 45.7052 43.3142C45.7052 45.1887 45.8595 46.7603 46.1681 48.029C46.4881 49.2977 46.911 50.3207 47.4368 51.0979C47.9626 51.8751 48.574 52.4352 49.2713 52.7781C49.9685 53.1096 50.6943 53.2753 51.4487 53.2753C52.203 53.2753 52.9288 53.1096 53.626 52.7781C54.3233 52.4352 54.9348 51.8751 55.4605 51.0979C55.9977 50.3207 56.4206 49.2977 56.7292 48.029C57.0493 46.7603 57.2093 45.1887 57.2093 43.3142ZM94.497 53.2582V55.5898H81.3299V53.2582H86.5933V36.5077C86.5933 36.0048 86.6104 35.4962 86.6447 34.9818L82.2728 38.7365C82.1242 38.8623 81.9756 38.9423 81.8271 38.9766C81.6785 38.9994 81.5413 38.9994 81.4156 38.9766C81.2899 38.9537 81.1698 38.908 81.0555 38.8394C80.9527 38.7708 80.8727 38.6965 80.8155 38.6165L79.8554 37.2964L87.1762 30.9699H89.6622V53.2582H94.497ZM131.425 43.3142C131.425 45.463 131.19 47.3261 130.722 48.9034C130.265 50.4693 129.636 51.7666 128.836 52.7952C128.036 53.8239 127.087 54.5897 125.99 55.0926C124.904 55.5956 123.738 55.847 122.492 55.847C121.235 55.847 120.063 55.5956 118.978 55.0926C117.903 54.5897 116.966 53.8239 116.166 52.7952C115.366 51.7666 114.737 50.4693 114.28 48.9034C113.823 47.3261 113.594 45.463 113.594 43.3142C113.594 41.1654 113.823 39.3023 114.28 37.725C114.737 36.1477 115.366 34.8447 116.166 33.816C116.966 32.7759 117.903 32.0043 118.978 31.5014C120.063 30.9985 121.235 30.7471 122.492 30.7471C123.738 30.7471 124.904 30.9985 125.99 31.5014C127.087 32.0043 128.036 32.7759 128.836 33.816C129.636 34.8447 130.265 36.1477 130.722 37.725C131.19 39.3023 131.425 41.1654 131.425 43.3142ZM128.253 43.3142C128.253 41.4397 128.093 39.8681 127.773 38.5994C127.464 37.3192 127.041 36.2905 126.504 35.5133C125.978 34.7361 125.367 34.1817 124.67 33.8503C123.972 33.5074 123.247 33.3359 122.492 33.3359C121.738 33.3359 121.012 33.5074 120.315 33.8503C119.618 34.1817 119.006 34.7361 118.48 35.5133C117.955 36.2905 117.532 37.3192 117.212 38.5994C116.903 39.8681 116.749 41.4397 116.749 43.3142C116.749 45.1887 116.903 46.7603 117.212 48.029C117.532 49.2977 117.955 50.3207 118.48 51.0979C119.006 51.8751 119.618 52.4352 120.315 52.7781C121.012 53.1096 121.738 53.2753 122.492 53.2753C123.247 53.2753 123.972 53.1096 124.67 52.7781C125.367 52.4352 125.978 51.8751 126.504 51.0979C127.041 50.3207 127.464 49.2977 127.773 48.029C128.093 46.7603 128.253 45.1887 128.253 43.3142ZM154.744 43.3142C154.744 45.463 154.51 47.3261 154.041 48.9034C153.584 50.4693 152.956 51.7666 152.155 52.7952C151.355 53.8239 150.407 54.5897 149.309 55.0926C148.224 55.5956 147.058 55.847 145.812 55.847C144.555 55.847 143.383 55.5956 142.297 55.0926C141.223 54.5897 140.286 53.8239 139.485 52.7952C138.685 51.7666 138.057 50.4693 137.6 48.9034C137.142 47.3261 136.914 45.463 136.914 43.3142C136.914 41.1654 137.142 39.3023 137.6 37.725C138.057 36.1477 138.685 34.8447 139.485 33.816C140.286 32.7759 141.223 32.0043 142.297 31.5014C143.383 30.9985 144.555 30.7471 145.812 30.7471C147.058 30.7471 148.224 30.9985 149.309 31.5014C150.407 32.0043 151.355 32.7759 152.155 33.816C152.956 34.8447 153.584 36.1477 154.041 37.725C154.51 39.3023 154.744 41.1654 154.744 43.3142ZM151.573 43.3142C151.573 41.4397 151.413 39.8681 151.092 38.5994C150.784 37.3192 150.361 36.2905 149.824 35.5133C149.298 34.7361 148.687 34.1817 147.989 33.8503C147.292 33.5074 146.566 33.3359 145.812 33.3359C145.058 33.3359 144.332 33.5074 143.635 33.8503C142.937 34.1817 142.326 34.7361 141.8 35.5133C141.274 36.2905 140.851 37.3192 140.531 38.5994C140.223 39.8681 140.068 41.4397 140.068 43.3142C140.068 45.1887 140.223 46.7603 140.531 48.029C140.851 49.2977 141.274 50.3207 141.8 51.0979C142.326 51.8751 142.937 52.4352 143.635 52.7781C144.332 53.1096 145.058 53.2753 145.812 53.2753C146.566 53.2753 147.292 53.1096 147.989 52.7781C148.687 52.4352 149.298 51.8751 149.824 51.0979C150.361 50.3207 150.784 49.2977 151.092 48.029C151.413 46.7603 151.573 45.1887 151.573 43.3142ZM190.266 43.3142C190.266 45.463 190.032 47.3261 189.563 48.9034C189.106 50.4693 188.477 51.7666 187.677 52.7952C186.877 53.8239 185.929 54.5897 184.831 55.0926C183.745 55.5956 182.58 55.847 181.334 55.847C180.076 55.847 178.905 55.5956 177.819 55.0926C176.745 54.5897 175.807 53.8239 175.007 52.7952C174.207 51.7666 173.579 50.4693 173.121 48.9034C172.664 47.3261 172.436 45.463 172.436 43.3142C172.436 41.1654 172.664 39.3023 173.121 37.725C173.579 36.1477 174.207 34.8447 175.007 33.816C175.807 32.7759 176.745 32.0043 177.819 31.5014C178.905 30.9985 180.076 30.7471 181.334 30.7471C182.58 30.7471 183.745 30.9985 184.831 31.5014C185.929 32.0043 186.877 32.7759 187.677 33.816C188.477 34.8447 189.106 36.1477 189.563 37.725C190.032 39.3023 190.266 41.1654 190.266 43.3142ZM187.094 43.3142C187.094 41.4397 186.934 39.8681 186.614 38.5994C186.306 37.3192 185.883 36.2905 185.346 35.5133C184.82 34.7361 184.208 34.1817 183.511 33.8503C182.814 33.5074 182.088 33.3359 181.334 33.3359C180.579 33.3359 179.854 33.5074 179.156 33.8503C178.459 34.1817 177.848 34.7361 177.322 35.5133C176.796 36.2905 176.373 37.3192 176.053 38.5994C175.745 39.8681 175.59 41.4397 175.59 43.3142C175.59 45.1887 175.745 46.7603 176.053 48.029C176.373 49.2977 176.796 50.3207 177.322 51.0979C177.848 51.8751 178.459 52.4352 179.156 52.7781C179.854 53.1096 180.579 53.2753 181.334 53.2753C182.088 53.2753 182.814 53.1096 183.511 52.7781C184.208 52.4352 184.82 51.8751 185.346 51.0979C185.883 50.3207 186.306 49.2977 186.614 48.029C186.934 46.7603 187.094 45.1887 187.094 43.3142ZM212.18 53.2582V55.5898H199.013V53.2582H204.276V36.5077C204.276 36.0048 204.293 35.4962 204.328 34.9818L199.956 38.7365C199.807 38.8623 199.658 38.9423 199.51 38.9766C199.361 38.9994 199.224 38.9994 199.098 38.9766C198.973 38.9537 198.853 38.908 198.738 38.8394C198.635 38.7708 198.555 38.6965 198.498 38.6165L197.538 37.2964L204.859 30.9699H207.345V53.2582H212.18ZM235.499 53.2582V55.5898H222.332V53.2582H227.596V36.5077C227.596 36.0048 227.613 35.4962 227.647 34.9818L223.275 38.7365C223.127 38.8623 222.978 38.9423 222.829 38.9766C222.681 38.9994 222.544 38.9994 222.418 38.9766C222.292 38.9537 222.172 38.908 222.058 38.8394C221.955 38.7708 221.875 38.6965 221.818 38.6165L220.858 37.2964L228.179 30.9699H230.665V53.2582H235.499Z" fill="url(#paint0_linear_55_425)"/>
<path d="M23.4534 53.2582V55.5898H10.2862V53.2582H15.5496V36.5077C15.5496 36.0048 15.5668 35.4962 15.6011 34.9818L11.2292 38.7365C11.0806 38.8623 10.932 38.9423 10.7834 38.9766C10.6348 38.9994 10.4976 38.9994 10.3719 38.9766C10.2462 38.9537 10.1262 38.908 10.0119 38.8394C9.90901 38.7708 9.829 38.6965 9.77185 38.6165L8.81174 37.2964L16.1326 30.9699H18.6186V53.2582H23.4534ZM60.3811 43.3142C60.3811 45.463 60.1468 47.3261 59.6781 48.9034C59.221 50.4693 58.5923 51.7666 57.7922 52.7952C56.9921 53.8239 56.0435 54.5897 54.9462 55.0926C53.8604 55.5956 52.6945 55.847 51.4487 55.847C50.1914 55.847 49.0198 55.5956 47.934 55.0926C46.8596 54.5897 45.9223 53.8239 45.1222 52.7952C44.3221 51.7666 43.6935 50.4693 43.2363 48.9034C42.7791 47.3261 42.5505 45.463 42.5505 43.3142C42.5505 41.1654 42.7791 39.3023 43.2363 37.725C43.6935 36.1477 44.3221 34.8447 45.1222 33.816C45.9223 32.7759 46.8596 32.0043 47.934 31.5014C49.0198 30.9985 50.1914 30.7471 51.4487 30.7471C52.6945 30.7471 53.8604 30.9985 54.9462 31.5014C56.0435 32.0043 56.9921 32.7759 57.7922 33.816C58.5923 34.8447 59.221 36.1477 59.6781 37.725C60.1468 39.3023 60.3811 41.1654 60.3811 43.3142ZM57.2093 43.3142C57.2093 41.4397 57.0493 39.8681 56.7292 38.5994C56.4206 37.3192 55.9977 36.2905 55.4605 35.5133C54.9348 34.7361 54.3233 34.1817 53.626 33.8503C52.9288 33.5074 52.203 33.3359 51.4487 33.3359C50.6943 33.3359 49.9685 33.5074 49.2713 33.8503C48.574 34.1817 47.9626 34.7361 47.4368 35.5133C46.911 36.2905 46.4881 37.3192 46.1681 38.5994C45.8595 39.8681 45.7052 41.4397 45.7052 43.3142C45.7052 45.1887 45.8595 46.7603 46.1681 48.029C46.4881 49.2977 46.911 50.3207 47.4368 51.0979C47.9626 51.8751 48.574 52.4352 49.2713 52.7781C49.9685 53.1096 50.6943 53.2753 51.4487 53.2753C52.203 53.2753 52.9288 53.1096 53.626 52.7781C54.3233 52.4352 54.9348 51.8751 55.4605 51.0979C55.9977 50.3207 56.4206 49.2977 56.7292 48.029C57.0493 46.7603 57.2093 45.1887 57.2093 43.3142ZM94.497 53.2582V55.5898H81.3299V53.2582H86.5933V36.5077C86.5933 36.0048 86.6104 35.4962 86.6447 34.9818L82.2728 38.7365C82.1242 38.8623 81.9756 38.9423 81.8271 38.9766C81.6785 38.9994 81.5413 38.9994 81.4156 38.9766C81.2899 38.9537 81.1698 38.908 81.0555 38.8394C80.9527 38.7708 80.8727 38.6965 80.8155 38.6165L79.8554 37.2964L87.1762 30.9699H89.6622V53.2582H94.497ZM131.425 43.3142C131.425 45.463 131.19 47.3261 130.722 48.9034C130.265 50.4693 129.636 51.7666 128.836 52.7952C128.036 53.8239 127.087 54.5897 125.99 55.0926C124.904 55.5956 123.738 55.847 122.492 55.847C121.235 55.847 120.063 55.5956 118.978 55.0926C117.903 54.5897 116.966 53.8239 116.166 52.7952C115.366 51.7666 114.737 50.4693 114.28 48.9034C113.823 47.3261 113.594 45.463 113.594 43.3142C113.594 41.1654 113.823 39.3023 114.28 37.725C114.737 36.1477 115.366 34.8447 116.166 33.816C116.966 32.7759 117.903 32.0043 118.978 31.5014C120.063 30.9985 121.235 30.7471 122.492 30.7471C123.738 30.7471 124.904 30.9985 125.99 31.5014C127.087 32.0043 128.036 32.7759 128.836 33.816C129.636 34.8447 130.265 36.1477 130.722 37.725C131.19 39.3023 131.425 41.1654 131.425 43.3142ZM128.253 43.3142C128.253 41.4397 128.093 39.8681 127.773 38.5994C127.464 37.3192 127.041 36.2905 126.504 35.5133C125.978 34.7361 125.367 34.1817 124.67 33.8503C123.972 33.5074 123.247 33.3359 122.492 33.3359C121.738 33.3359 121.012 33.5074 120.315 33.8503C119.618 34.1817 119.006 34.7361 118.48 35.5133C117.955 36.2905 117.532 37.3192 117.212 38.5994C116.903 39.8681 116.749 41.4397 116.749 43.3142C116.749 45.1887 116.903 46.7603 117.212 48.029C117.532 49.2977 117.955 50.3207 118.48 51.0979C119.006 51.8751 119.618 52.4352 120.315 52.7781C121.012 53.1096 121.738 53.2753 122.492 53.2753C123.247 53.2753 123.972 53.1096 124.67 52.7781C125.367 52.4352 125.978 51.8751 126.504 51.0979C127.041 50.3207 127.464 49.2977 127.773 48.029C128.093 46.7603 128.253 45.1887 128.253 43.3142ZM154.744 43.3142C154.744 45.463 154.51 47.3261 154.041 48.9034C153.584 50.4693 152.956 51.7666 152.155 52.7952C151.355 53.8239 150.407 54.5897 149.309 55.0926C148.224 55.5956 147.058 55.847 145.812 55.847C144.555 55.847 143.383 55.5956 142.297 55.0926C141.223 54.5897 140.286 53.8239 139.485 52.7952C138.685 51.7666 138.057 50.4693 137.6 48.9034C137.142 47.3261 136.914 45.463 136.914 43.3142C136.914 41.1654 137.142 39.3023 137.6 37.725C138.057 36.1477 138.685 34.8447 139.485 33.816C140.286 32.7759 141.223 32.0043 142.297 31.5014C143.383 30.9985 144.555 30.7471 145.812 30.7471C147.058 30.7471 148.224 30.9985 149.309 31.5014C150.407 32.0043 151.355 32.7759 152.155 33.816C152.956 34.8447 153.584 36.1477 154.041 37.725C154.51 39.3023 154.744 41.1654 154.744 43.3142ZM151.573 43.3142C151.573 41.4397 151.413 39.8681 151.092 38.5994C150.784 37.3192 150.361 36.2905 149.824 35.5133C149.298 34.7361 148.687 34.1817 147.989 33.8503C147.292 33.5074 146.566 33.3359 145.812 33.3359C145.058 33.3359 144.332 33.5074 143.635 33.8503C142.937 34.1817 142.326 34.7361 141.8 35.5133C141.274 36.2905 140.851 37.3192 140.531 38.5994C140.223 39.8681 140.068 41.4397 140.068 43.3142C140.068 45.1887 140.223 46.7603 140.531 48.029C140.851 49.2977 141.274 50.3207 141.8 51.0979C142.326 51.8751 142.937 52.4352 143.635 52.7781C144.332 53.1096 145.058 53.2753 145.812 53.2753C146.566 53.2753 147.292 53.1096 147.989 52.7781C148.687 52.4352 149.298 51.8751 149.824 51.0979C150.361 50.3207 150.784 49.2977 151.092 48.029C151.413 46.7603 151.573 45.1887 151.573 43.3142ZM190.266 43.3142C190.266 45.463 190.032 47.3261 189.563 48.9034C189.106 50.4693 188.477 51.7666 187.677 52.7952C186.877 53.8239 185.929 54.5897 184.831 55.0926C183.745 55.5956 182.58 55.847 181.334 55.847C180.076 55.847 178.905 55.5956 177.819 55.0926C176.745 54.5897 175.807 53.8239 175.007 52.7952C174.207 51.7666 173.579 50.4693 173.121 48.9034C172.664 47.3261 172.436 45.463 172.436 43.3142C172.436 41.1654 172.664 39.3023 173.121 37.725C173.579 36.1477 174.207 34.8447 175.007 33.816C175.807 32.7759 176.745 32.0043 177.819 31.5014C178.905 30.9985 180.076 30.7471 181.334 30.7471C182.58 30.7471 183.745 30.9985 184.831 31.5014C185.929 32.0043 186.877 32.7759 187.677 33.816C188.477 34.8447 189.106 36.1477 189.563 37.725C190.032 39.3023 190.266 41.1654 190.266 43.3142ZM187.094 43.3142C187.094 41.4397 186.934 39.8681 186.614 38.5994C186.306 37.3192 185.883 36.2905 185.346 35.5133C184.82 34.7361 184.208 34.1817 183.511 33.8503C182.814 33.5074 182.088 33.3359 181.334 33.3359C180.579 33.3359 179.854 33.5074 179.156 33.8503C178.459 34.1817 177.848 34.7361 177.322 35.5133C176.796 36.2905 176.373 37.3192 176.053 38.5994C175.745 39.8681 175.59 41.4397 175.59 43.3142C175.59 45.1887 175.745 46.7603 176.053 48.029C176.373 49.2977 176.796 50.3207 177.322 51.0979C177.848 51.8751 178.459 52.4352 179.156 52.7781C179.854 53.1096 180.579 53.2753 181.334 53.2753C182.088 53.2753 182.814 53.1096 183.511 52.7781C184.208 52.4352 184.82 51.8751 185.346 51.0979C185.883 50.3207 186.306 49.2977 186.614 48.029C186.934 46.7603 187.094 45.1887 187.094 43.3142ZM212.18 53.2582V55.5898H199.013V53.2582H204.276V36.5077C204.276 36.0048 204.293 35.4962 204.328 34.9818L199.956 38.7365C199.807 38.8623 199.658 38.9423 199.51 38.9766C199.361 38.9994 199.224 38.9994 199.098 38.9766C198.973 38.9537 198.853 38.908 198.738 38.8394C198.635 38.7708 198.555 38.6965 198.498 38.6165L197.538 37.2964L204.859 30.9699H207.345V53.2582H212.18ZM235.499 53.2582V55.5898H222.332V53.2582H227.596V36.5077C227.596 36.0048 227.613 35.4962 227.647 34.9818L223.275 38.7365C223.127 38.8623 222.978 38.9423 222.829 38.9766C222.681 38.9994 222.544 38.9994 222.418 38.9766C222.292 38.9537 222.172 38.908 222.058 38.8394C221.955 38.7708 221.875 38.6965 221.818 38.6165L220.858 37.2964L228.179 30.9699H230.665V53.2582H235.499Z" fill="url(#paint1_linear_55_425)" fill-opacity="0.35"/>
</g>
<g opacity="0.5" filter="url(#filter1_ddf_55_425)">
<path d="M218.453 32.6683V35H205.286V32.6683H210.55V15.9179C210.55 15.415 210.567 14.9063 210.601 14.392L206.229 18.1467C206.081 18.2724 205.932 18.3524 205.783 18.3867C205.635 18.4096 205.498 18.4096 205.372 18.3867C205.246 18.3639 205.126 18.3181 205.012 18.2496C204.909 18.181 204.829 18.1067 204.772 18.0267L203.812 16.7065L211.133 10.3801H213.619V32.6683H218.453ZM253.975 32.6683V35H240.808V32.6683H246.071V15.9179C246.071 15.415 246.089 14.9063 246.123 14.392L241.751 18.1467C241.602 18.2724 241.454 18.3524 241.305 18.3867C241.157 18.4096 241.019 18.4096 240.894 18.3867C240.768 18.3639 240.648 18.3181 240.534 18.2496C240.431 18.181 240.351 18.1067 240.294 18.0267L239.334 16.7065L246.654 10.3801H249.14V32.6683H253.975ZM289.497 32.6683V35H276.33V32.6683H281.593V15.9179C281.593 15.415 281.61 14.9063 281.645 14.392L277.273 18.1467C277.124 18.2724 276.976 18.3524 276.827 18.3867C276.678 18.4096 276.541 18.4096 276.416 18.3867C276.29 18.3639 276.17 18.3181 276.056 18.2496C275.953 18.181 275.873 18.1067 275.816 18.0267L274.855 16.7065L282.176 10.3801H284.662V32.6683H289.497ZM326.425 22.7243C326.425 24.8732 326.19 26.7362 325.722 28.3135C325.265 29.8794 324.636 31.1767 323.836 32.2054C323.036 33.2341 322.087 33.9999 320.99 34.5028C319.904 35.0057 318.738 35.2572 317.492 35.2572C316.235 35.2572 315.063 35.0057 313.978 34.5028C312.903 33.9999 311.966 33.2341 311.166 32.2054C310.366 31.1767 309.737 29.8794 309.28 28.3135C308.823 26.7362 308.594 24.8732 308.594 22.7243C308.594 20.5755 308.823 18.7125 309.28 17.1351C309.737 15.5578 310.366 14.2548 311.166 13.2261C311.966 12.186 312.903 11.4145 313.978 10.9116C315.063 10.4087 316.235 10.1572 317.492 10.1572C318.738 10.1572 319.904 10.4087 320.99 10.9116C322.087 11.4145 323.036 12.186 323.836 13.2261C324.636 14.2548 325.265 15.5578 325.722 17.1351C326.19 18.7125 326.425 20.5755 326.425 22.7243ZM323.253 22.7243C323.253 20.8498 323.093 19.2782 322.773 18.0095C322.464 16.7294 322.041 15.7007 321.504 14.9235C320.978 14.1462 320.367 13.5919 319.67 13.2604C318.972 12.9175 318.247 12.7461 317.492 12.7461C316.738 12.7461 316.012 12.9175 315.315 13.2604C314.618 13.5919 314.006 14.1462 313.48 14.9235C312.955 15.7007 312.532 16.7294 312.212 18.0095C311.903 19.2782 311.749 20.8498 311.749 22.7243C311.749 24.5988 311.903 26.1704 312.212 27.4392C312.532 28.7079 312.955 29.7308 313.48 30.5081C314.006 31.2853 314.618 31.8454 315.315 32.1883C316.012 32.5197 316.738 32.6855 317.492 32.6855C318.247 32.6855 318.972 32.5197 319.67 32.1883C320.367 31.8454 320.978 31.2853 321.504 30.5081C322.041 29.7308 322.464 28.7079 322.773 27.4392C323.093 26.1704 323.253 24.5988 323.253 22.7243ZM349.744 22.7243C349.744 24.8732 349.51 26.7362 349.041 28.3135C348.584 29.8794 347.956 31.1767 347.155 32.2054C346.355 33.2341 345.407 33.9999 344.309 34.5028C343.224 35.0057 342.058 35.2572 340.812 35.2572C339.555 35.2572 338.383 35.0057 337.297 34.5028C336.223 33.9999 335.286 33.2341 334.485 32.2054C333.685 31.1767 333.057 29.8794 332.6 28.3135C332.142 26.7362 331.914 24.8732 331.914 22.7243C331.914 20.5755 332.142 18.7125 332.6 17.1351C333.057 15.5578 333.685 14.2548 334.485 13.2261C335.286 12.186 336.223 11.4145 337.297 10.9116C338.383 10.4087 339.555 10.1572 340.812 10.1572C342.058 10.1572 343.224 10.4087 344.309 10.9116C345.407 11.4145 346.355 12.186 347.155 13.2261C347.956 14.2548 348.584 15.5578 349.041 17.1351C349.51 18.7125 349.744 20.5755 349.744 22.7243ZM346.573 22.7243C346.573 20.8498 346.413 19.2782 346.092 18.0095C345.784 16.7294 345.361 15.7007 344.824 14.9235C344.298 14.1462 343.687 13.5919 342.989 13.2604C342.292 12.9175 341.566 12.7461 340.812 12.7461C340.058 12.7461 339.332 12.9175 338.635 13.2604C337.937 13.5919 337.326 14.1462 336.8 14.9235C336.274 15.7007 335.851 16.7294 335.531 18.0095C335.223 19.2782 335.068 20.8498 335.068 22.7243C335.068 24.5988 335.223 26.1704 335.531 27.4392C335.851 28.7079 336.274 29.7308 336.8 30.5081C337.326 31.2853 337.937 31.8454 338.635 32.1883C339.332 32.5197 340.058 32.6855 340.812 32.6855C341.566 32.6855 342.292 32.5197 342.989 32.1883C343.687 31.8454 344.298 31.2853 344.824 30.5081C345.361 29.7308 345.784 28.7079 346.092 27.4392C346.413 26.1704 346.573 24.5988 346.573 22.7243ZM385.266 22.7243C385.266 24.8732 385.032 26.7362 384.563 28.3135C384.106 29.8794 383.477 31.1767 382.677 32.2054C381.877 33.2341 380.929 33.9999 379.831 34.5028C378.745 35.0057 377.58 35.2572 376.334 35.2572C375.076 35.2572 373.905 35.0057 372.819 34.5028C371.745 33.9999 370.807 33.2341 370.007 32.2054C369.207 31.1767 368.579 29.8794 368.121 28.3135C367.664 26.7362 367.436 24.8732 367.436 22.7243C367.436 20.5755 367.664 18.7125 368.121 17.1351C368.579 15.5578 369.207 14.2548 370.007 13.2261C370.807 12.186 371.745 11.4145 372.819 10.9116C373.905 10.4087 375.076 10.1572 376.334 10.1572C377.58 10.1572 378.745 10.4087 379.831 10.9116C380.929 11.4145 381.877 12.186 382.677 13.2261C383.477 14.2548 384.106 15.5578 384.563 17.1351C385.032 18.7125 385.266 20.5755 385.266 22.7243ZM382.094 22.7243C382.094 20.8498 381.934 19.2782 381.614 18.0095C381.306 16.7294 380.883 15.7007 380.346 14.9235C379.82 14.1462 379.208 13.5919 378.511 13.2604C377.814 12.9175 377.088 12.7461 376.334 12.7461C375.579 12.7461 374.854 12.9175 374.156 13.2604C373.459 13.5919 372.848 14.1462 372.322 14.9235C371.796 15.7007 371.373 16.7294 371.053 18.0095C370.745 19.2782 370.59 20.8498 370.59 22.7243C370.59 24.5988 370.745 26.1704 371.053 27.4392C371.373 28.7079 371.796 29.7308 372.322 30.5081C372.848 31.2853 373.459 31.8454 374.156 32.1883C374.854 32.5197 375.579 32.6855 376.334 32.6855C377.088 32.6855 377.814 32.5197 378.511 32.1883C379.208 31.8454 379.82 31.2853 380.346 30.5081C380.883 29.7308 381.306 28.7079 381.614 27.4392C381.934 26.1704 382.094 24.5988 382.094 22.7243ZM407.18 32.6683V35H394.013V32.6683H399.276V15.9179C399.276 15.415 399.293 14.9063 399.328 14.392L394.956 18.1467C394.807 18.2724 394.658 18.3524 394.51 18.3867C394.361 18.4096 394.224 18.4096 394.098 18.3867C393.973 18.3639 393.853 18.3181 393.738 18.2496C393.635 18.181 393.555 18.1067 393.498 18.0267L392.538 16.7065L399.859 10.3801H402.345V32.6683H407.18ZM431.905 22.7243C431.905 24.8732 431.671 26.7362 431.202 28.3135C430.745 29.8794 430.117 31.1767 429.316 32.2054C428.516 33.2341 427.568 33.9999 426.47 34.5028C425.385 35.0057 424.219 35.2572 422.973 35.2572C421.716 35.2572 420.544 35.0057 419.458 34.5028C418.384 33.9999 417.447 33.2341 416.646 32.2054C415.846 31.1767 415.218 29.8794 414.761 28.3135C414.303 26.7362 414.075 24.8732 414.075 22.7243C414.075 20.5755 414.303 18.7125 414.761 17.1351C415.218 15.5578 415.846 14.2548 416.646 13.2261C417.447 12.186 418.384 11.4145 419.458 10.9116C420.544 10.4087 421.716 10.1572 422.973 10.1572C424.219 10.1572 425.385 10.4087 426.47 10.9116C427.568 11.4145 428.516 12.186 429.316 13.2261C430.117 14.2548 430.745 15.5578 431.202 17.1351C431.671 18.7125 431.905 20.5755 431.905 22.7243ZM428.734 22.7243C428.734 20.8498 428.573 19.2782 428.253 18.0095C427.945 16.7294 427.522 15.7007 426.985 14.9235C426.459 14.1462 425.847 13.5919 425.15 13.2604C424.453 12.9175 423.727 12.7461 422.973 12.7461C422.218 12.7461 421.493 12.9175 420.795 13.2604C420.098 13.5919 419.487 14.1462 418.961 14.9235C418.435 15.7007 418.012 16.7294 417.692 18.0095C417.384 19.2782 417.229 20.8498 417.229 22.7243C417.229 24.5988 417.384 26.1704 417.692 27.4392C418.012 28.7079 418.435 29.7308 418.961 30.5081C419.487 31.2853 420.098 31.8454 420.795 32.1883C421.493 32.5197 422.218 32.6855 422.973 32.6855C423.727 32.6855 424.453 32.5197 425.15 32.1883C425.847 31.8454 426.459 31.2853 426.985 30.5081C427.522 29.7308 427.945 28.7079 428.253 27.4392C428.573 26.1704 428.734 24.5988 428.734 22.7243Z" fill="url(#paint2_linear_55_425)"/>
<path d="M218.453 32.6683V35H205.286V32.6683H210.55V15.9179C210.55 15.415 210.567 14.9063 210.601 14.392L206.229 18.1467C206.081 18.2724 205.932 18.3524 205.783 18.3867C205.635 18.4096 205.498 18.4096 205.372 18.3867C205.246 18.3639 205.126 18.3181 205.012 18.2496C204.909 18.181 204.829 18.1067 204.772 18.0267L203.812 16.7065L211.133 10.3801H213.619V32.6683H218.453ZM253.975 32.6683V35H240.808V32.6683H246.071V15.9179C246.071 15.415 246.089 14.9063 246.123 14.392L241.751 18.1467C241.602 18.2724 241.454 18.3524 241.305 18.3867C241.157 18.4096 241.019 18.4096 240.894 18.3867C240.768 18.3639 240.648 18.3181 240.534 18.2496C240.431 18.181 240.351 18.1067 240.294 18.0267L239.334 16.7065L246.654 10.3801H249.14V32.6683H253.975ZM289.497 32.6683V35H276.33V32.6683H281.593V15.9179C281.593 15.415 281.61 14.9063 281.645 14.392L277.273 18.1467C277.124 18.2724 276.976 18.3524 276.827 18.3867C276.678 18.4096 276.541 18.4096 276.416 18.3867C276.29 18.3639 276.17 18.3181 276.056 18.2496C275.953 18.181 275.873 18.1067 275.816 18.0267L274.855 16.7065L282.176 10.3801H284.662V32.6683H289.497ZM326.425 22.7243C326.425 24.8732 326.19 26.7362 325.722 28.3135C325.265 29.8794 324.636 31.1767 323.836 32.2054C323.036 33.2341 322.087 33.9999 320.99 34.5028C319.904 35.0057 318.738 35.2572 317.492 35.2572C316.235 35.2572 315.063 35.0057 313.978 34.5028C312.903 33.9999 311.966 33.2341 311.166 32.2054C310.366 31.1767 309.737 29.8794 309.28 28.3135C308.823 26.7362 308.594 24.8732 308.594 22.7243C308.594 20.5755 308.823 18.7125 309.28 17.1351C309.737 15.5578 310.366 14.2548 311.166 13.2261C311.966 12.186 312.903 11.4145 313.978 10.9116C315.063 10.4087 316.235 10.1572 317.492 10.1572C318.738 10.1572 319.904 10.4087 320.99 10.9116C322.087 11.4145 323.036 12.186 323.836 13.2261C324.636 14.2548 325.265 15.5578 325.722 17.1351C326.19 18.7125 326.425 20.5755 326.425 22.7243ZM323.253 22.7243C323.253 20.8498 323.093 19.2782 322.773 18.0095C322.464 16.7294 322.041 15.7007 321.504 14.9235C320.978 14.1462 320.367 13.5919 319.67 13.2604C318.972 12.9175 318.247 12.7461 317.492 12.7461C316.738 12.7461 316.012 12.9175 315.315 13.2604C314.618 13.5919 314.006 14.1462 313.48 14.9235C312.955 15.7007 312.532 16.7294 312.212 18.0095C311.903 19.2782 311.749 20.8498 311.749 22.7243C311.749 24.5988 311.903 26.1704 312.212 27.4392C312.532 28.7079 312.955 29.7308 313.48 30.5081C314.006 31.2853 314.618 31.8454 315.315 32.1883C316.012 32.5197 316.738 32.6855 317.492 32.6855C318.247 32.6855 318.972 32.5197 319.67 32.1883C320.367 31.8454 320.978 31.2853 321.504 30.5081C322.041 29.7308 322.464 28.7079 322.773 27.4392C323.093 26.1704 323.253 24.5988 323.253 22.7243ZM349.744 22.7243C349.744 24.8732 349.51 26.7362 349.041 28.3135C348.584 29.8794 347.956 31.1767 347.155 32.2054C346.355 33.2341 345.407 33.9999 344.309 34.5028C343.224 35.0057 342.058 35.2572 340.812 35.2572C339.555 35.2572 338.383 35.0057 337.297 34.5028C336.223 33.9999 335.286 33.2341 334.485 32.2054C333.685 31.1767 333.057 29.8794 332.6 28.3135C332.142 26.7362 331.914 24.8732 331.914 22.7243C331.914 20.5755 332.142 18.7125 332.6 17.1351C333.057 15.5578 333.685 14.2548 334.485 13.2261C335.286 12.186 336.223 11.4145 337.297 10.9116C338.383 10.4087 339.555 10.1572 340.812 10.1572C342.058 10.1572 343.224 10.4087 344.309 10.9116C345.407 11.4145 346.355 12.186 347.155 13.2261C347.956 14.2548 348.584 15.5578 349.041 17.1351C349.51 18.7125 349.744 20.5755 349.744 22.7243ZM346.573 22.7243C346.573 20.8498 346.413 19.2782 346.092 18.0095C345.784 16.7294 345.361 15.7007 344.824 14.9235C344.298 14.1462 343.687 13.5919 342.989 13.2604C342.292 12.9175 341.566 12.7461 340.812 12.7461C340.058 12.7461 339.332 12.9175 338.635 13.2604C337.937 13.5919 337.326 14.1462 336.8 14.9235C336.274 15.7007 335.851 16.7294 335.531 18.0095C335.223 19.2782 335.068 20.8498 335.068 22.7243C335.068 24.5988 335.223 26.1704 335.531 27.4392C335.851 28.7079 336.274 29.7308 336.8 30.5081C337.326 31.2853 337.937 31.8454 338.635 32.1883C339.332 32.5197 340.058 32.6855 340.812 32.6855C341.566 32.6855 342.292 32.5197 342.989 32.1883C343.687 31.8454 344.298 31.2853 344.824 30.5081C345.361 29.7308 345.784 28.7079 346.092 27.4392C346.413 26.1704 346.573 24.5988 346.573 22.7243ZM385.266 22.7243C385.266 24.8732 385.032 26.7362 384.563 28.3135C384.106 29.8794 383.477 31.1767 382.677 32.2054C381.877 33.2341 380.929 33.9999 379.831 34.5028C378.745 35.0057 377.58 35.2572 376.334 35.2572C375.076 35.2572 373.905 35.0057 372.819 34.5028C371.745 33.9999 370.807 33.2341 370.007 32.2054C369.207 31.1767 368.579 29.8794 368.121 28.3135C367.664 26.7362 367.436 24.8732 367.436 22.7243C367.436 20.5755 367.664 18.7125 368.121 17.1351C368.579 15.5578 369.207 14.2548 370.007 13.2261C370.807 12.186 371.745 11.4145 372.819 10.9116C373.905 10.4087 375.076 10.1572 376.334 10.1572C377.58 10.1572 378.745 10.4087 379.831 10.9116C380.929 11.4145 381.877 12.186 382.677 13.2261C383.477 14.2548 384.106 15.5578 384.563 17.1351C385.032 18.7125 385.266 20.5755 385.266 22.7243ZM382.094 22.7243C382.094 20.8498 381.934 19.2782 381.614 18.0095C381.306 16.7294 380.883 15.7007 380.346 14.9235C379.82 14.1462 379.208 13.5919 378.511 13.2604C377.814 12.9175 377.088 12.7461 376.334 12.7461C375.579 12.7461 374.854 12.9175 374.156 13.2604C373.459 13.5919 372.848 14.1462 372.322 14.9235C371.796 15.7007 371.373 16.7294 371.053 18.0095C370.745 19.2782 370.59 20.8498 370.59 22.7243C370.59 24.5988 370.745 26.1704 371.053 27.4392C371.373 28.7079 371.796 29.7308 372.322 30.5081C372.848 31.2853 373.459 31.8454 374.156 32.1883C374.854 32.5197 375.579 32.6855 376.334 32.6855C377.088 32.6855 377.814 32.5197 378.511 32.1883C379.208 31.8454 379.82 31.2853 380.346 30.5081C380.883 29.7308 381.306 28.7079 381.614 27.4392C381.934 26.1704 382.094 24.5988 382.094 22.7243ZM407.18 32.6683V35H394.013V32.6683H399.276V15.9179C399.276 15.415 399.293 14.9063 399.328 14.392L394.956 18.1467C394.807 18.2724 394.658 18.3524 394.51 18.3867C394.361 18.4096 394.224 18.4096 394.098 18.3867C393.973 18.3639 393.853 18.3181 393.738 18.2496C393.635 18.181 393.555 18.1067 393.498 18.0267L392.538 16.7065L399.859 10.3801H402.345V32.6683H407.18ZM431.905 22.7243C431.905 24.8732 431.671 26.7362 431.202 28.3135C430.745 29.8794 430.117 31.1767 429.316 32.2054C428.516 33.2341 427.568 33.9999 426.47 34.5028C425.385 35.0057 424.219 35.2572 422.973 35.2572C421.716 35.2572 420.544 35.0057 419.458 34.5028C418.384 33.9999 417.447 33.2341 416.646 32.2054C415.846 31.1767 415.218 29.8794 414.761 28.3135C414.303 26.7362 414.075 24.8732 414.075 22.7243C414.075 20.5755 414.303 18.7125 414.761 17.1351C415.218 15.5578 415.846 14.2548 416.646 13.2261C417.447 12.186 418.384 11.4145 419.458 10.9116C420.544 10.4087 421.716 10.1572 422.973 10.1572C424.219 10.1572 425.385 10.4087 426.47 10.9116C427.568 11.4145 428.516 12.186 429.316 13.2261C430.117 14.2548 430.745 15.5578 431.202 17.1351C431.671 18.7125 431.905 20.5755 431.905 22.7243ZM428.734 22.7243C428.734 20.8498 428.573 19.2782 428.253 18.0095C427.945 16.7294 427.522 15.7007 426.985 14.9235C426.459 14.1462 425.847 13.5919 425.15 13.2604C424.453 12.9175 423.727 12.7461 422.973 12.7461C422.218 12.7461 421.493 12.9175 420.795 13.2604C420.098 13.5919 419.487 14.1462 418.961 14.9235C418.435 15.7007 418.012 16.7294 417.692 18.0095C417.384 19.2782 417.229 20.8498 417.229 22.7243C417.229 24.5988 417.384 26.1704 417.692 27.4392C418.012 28.7079 418.435 29.7308 418.961 30.5081C419.487 31.2853 420.098 31.8454 420.795 32.1883C421.493 32.5197 422.218 32.6855 422.973 32.6855C423.727 32.6855 424.453 32.5197 425.15 32.1883C425.847 31.8454 426.459 31.2853 426.985 30.5081C427.522 29.7308 427.945 28.7079 428.253 27.4392C428.573 26.1704 428.734 24.5988 428.734 22.7243Z" fill="url(#paint3_linear_55_425)" fill-opacity="0.35"/>
</g>
<g opacity="0.5" filter="url(#filter2_dd_55_425)">
<path d="M692.689 43.3137C692.689 45.4625 692.455 47.3256 691.986 48.9029C691.529 50.4688 690.9 51.7661 690.1 52.7948C689.3 53.8234 688.351 54.5892 687.254 55.0922C686.168 55.5951 685.003 55.8465 683.757 55.8465C682.499 55.8465 681.328 55.5951 680.242 55.0922C679.168 54.5892 678.23 53.8234 677.43 52.7948C676.63 51.7661 676.002 50.4688 675.544 48.9029C675.087 47.3256 674.859 45.4625 674.859 43.3137C674.859 41.1649 675.087 39.3018 675.544 37.7245C676.002 36.1472 676.63 34.8442 677.43 33.8155C678.23 32.7754 679.168 32.0039 680.242 31.5009C681.328 30.998 682.499 30.7466 683.757 30.7466C685.003 30.7466 686.168 30.998 687.254 31.5009C688.351 32.0039 689.3 32.7754 690.1 33.8155C690.9 34.8442 691.529 36.1472 691.986 37.7245C692.455 39.3018 692.689 41.1649 692.689 43.3137ZM689.517 43.3137C689.517 41.4392 689.357 39.8676 689.037 38.5989C688.729 37.3187 688.306 36.2901 687.769 35.5128C687.243 34.7356 686.631 34.1812 685.934 33.8498C685.237 33.5069 684.511 33.3354 683.757 33.3354C683.002 33.3354 682.276 33.5069 681.579 33.8498C680.882 34.1812 680.271 34.7356 679.745 35.5128C679.219 36.2901 678.796 37.3187 678.476 38.5989C678.167 39.8676 678.013 41.4392 678.013 43.3137C678.013 45.1882 678.167 46.7598 678.476 48.0285C678.796 49.2972 679.219 50.3202 679.745 51.0974C680.271 51.8747 680.882 52.4347 681.579 52.7776C682.276 53.1091 683.002 53.2748 683.757 53.2748C684.511 53.2748 685.237 53.1091 685.934 52.7776C686.631 52.4347 687.243 51.8747 687.769 51.0974C688.306 50.3202 688.729 49.2972 689.037 48.0285C689.357 46.7598 689.517 45.1882 689.517 43.3137ZM728.211 43.3137C728.211 45.4625 727.977 47.3256 727.508 48.9029C727.051 50.4688 726.422 51.7661 725.622 52.7948C724.822 53.8234 723.873 54.5892 722.776 55.0922C721.69 55.5951 720.524 55.8465 719.278 55.8465C718.021 55.8465 716.85 55.5951 715.764 55.0922C714.689 54.5892 713.752 53.8234 712.952 52.7948C712.152 51.7661 711.523 50.4688 711.066 48.9029C710.609 47.3256 710.38 45.4625 710.38 43.3137C710.38 41.1649 710.609 39.3018 711.066 37.7245C711.523 36.1472 712.152 34.8442 712.952 33.8155C713.752 32.7754 714.689 32.0039 715.764 31.5009C716.85 30.998 718.021 30.7466 719.278 30.7466C720.524 30.7466 721.69 30.998 722.776 31.5009C723.873 32.0039 724.822 32.7754 725.622 33.8155C726.422 34.8442 727.051 36.1472 727.508 37.7245C727.977 39.3018 728.211 41.1649 728.211 43.3137ZM725.039 43.3137C725.039 41.4392 724.879 39.8676 724.559 38.5989C724.25 37.3187 723.828 36.2901 723.29 35.5128C722.765 34.7356 722.153 34.1812 721.456 33.8498C720.759 33.5069 720.033 33.3354 719.278 33.3354C718.524 33.3354 717.798 33.5069 717.101 33.8498C716.404 34.1812 715.792 34.7356 715.267 35.5128C714.741 36.2901 714.318 37.3187 713.998 38.5989C713.689 39.8676 713.535 41.4392 713.535 43.3137C713.535 45.1882 713.689 46.7598 713.998 48.0285C714.318 49.2972 714.741 50.3202 715.267 51.0974C715.792 51.8747 716.404 52.4347 717.101 52.7776C717.798 53.1091 718.524 53.2748 719.278 53.2748C720.033 53.2748 720.759 53.1091 721.456 52.7776C722.153 52.4347 722.765 51.8747 723.29 51.0974C723.828 50.3202 724.25 49.2972 724.559 48.0285C724.879 46.7598 725.039 45.1882 725.039 43.3137ZM762.327 53.2577V55.5894H749.16V53.2577H754.423V36.5072C754.423 36.0043 754.44 35.4957 754.475 34.9813L750.103 38.736C749.954 38.8618 749.805 38.9418 749.657 38.9761C749.508 38.9989 749.371 38.9989 749.245 38.9761C749.12 38.9532 749 38.9075 748.885 38.8389C748.783 38.7703 748.702 38.696 748.645 38.616L747.685 37.2959L755.006 30.9695H757.492V53.2577H762.327ZM787.052 43.3137C787.052 45.4625 786.818 47.3256 786.349 48.9029C785.892 50.4688 785.264 51.7661 784.463 52.7948C783.663 53.8234 782.715 54.5892 781.617 55.0922C780.532 55.5951 779.366 55.8465 778.12 55.8465C776.863 55.8465 775.691 55.5951 774.605 55.0922C773.531 54.5892 772.594 53.8234 771.793 52.7948C770.993 51.7661 770.365 50.4688 769.908 48.9029C769.45 47.3256 769.222 45.4625 769.222 43.3137C769.222 41.1649 769.45 39.3018 769.908 37.7245C770.365 36.1472 770.993 34.8442 771.793 33.8155C772.594 32.7754 773.531 32.0039 774.605 31.5009C775.691 30.998 776.863 30.7466 778.12 30.7466C779.366 30.7466 780.532 30.998 781.617 31.5009C782.715 32.0039 783.663 32.7754 784.463 33.8155C785.264 34.8442 785.892 36.1472 786.349 37.7245C786.818 39.3018 787.052 41.1649 787.052 43.3137ZM783.881 43.3137C783.881 41.4392 783.721 39.8676 783.4 38.5989C783.092 37.3187 782.669 36.2901 782.132 35.5128C781.606 34.7356 780.995 34.1812 780.297 33.8498C779.6 33.5069 778.874 33.3354 778.12 33.3354C777.366 33.3354 776.64 33.5069 775.943 33.8498C775.245 34.1812 774.634 34.7356 774.108 35.5128C773.582 36.2901 773.159 37.3187 772.839 38.5989C772.531 39.8676 772.376 41.4392 772.376 43.3137C772.376 45.1882 772.531 46.7598 772.839 48.0285C773.159 49.2972 773.582 50.3202 774.108 51.0974C774.634 51.8747 775.245 52.4347 775.943 52.7776C776.64 53.1091 777.366 53.2748 778.12 53.2748C778.874 53.2748 779.6 53.1091 780.297 52.7776C780.995 52.4347 781.606 51.8747 782.132 51.0974C782.669 50.3202 783.092 49.2972 783.4 48.0285C783.721 46.7598 783.881 45.1882 783.881 43.3137ZM808.966 53.2577V55.5894H795.799V53.2577H801.062V36.5072C801.062 36.0043 801.079 35.4957 801.114 34.9813L796.742 38.736C796.593 38.8618 796.445 38.9418 796.296 38.9761C796.147 38.9989 796.01 38.9989 795.885 38.9761C795.759 38.9532 795.639 38.9075 795.525 38.8389C795.422 38.7703 795.342 38.696 795.284 38.616L794.324 37.2959L801.645 30.9695H804.131V53.2577H808.966ZM833.691 43.3137C833.691 45.4625 833.457 47.3256 832.989 48.9029C832.531 50.4688 831.903 51.7661 831.103 52.7948C830.303 53.8234 829.354 54.5892 828.257 55.0922C827.171 55.5951 826.005 55.8465 824.759 55.8465C823.502 55.8465 822.33 55.5951 821.244 55.0922C820.17 54.5892 819.233 53.8234 818.433 52.7948C817.633 51.7661 817.004 50.4688 816.547 48.9029C816.089 47.3256 815.861 45.4625 815.861 43.3137C815.861 41.1649 816.089 39.3018 816.547 37.7245C817.004 36.1472 817.633 34.8442 818.433 33.8155C819.233 32.7754 820.17 32.0039 821.244 31.5009C822.33 30.998 823.502 30.7466 824.759 30.7466C826.005 30.7466 827.171 30.998 828.257 31.5009C829.354 32.0039 830.303 32.7754 831.103 33.8155C831.903 34.8442 832.531 36.1472 832.989 37.7245C833.457 39.3018 833.691 41.1649 833.691 43.3137ZM830.52 43.3137C830.52 41.4392 830.36 39.8676 830.04 38.5989C829.731 37.3187 829.308 36.2901 828.771 35.5128C828.245 34.7356 827.634 34.1812 826.936 33.8498C826.239 33.5069 825.513 33.3354 824.759 33.3354C824.005 33.3354 823.279 33.5069 822.582 33.8498C821.884 34.1812 821.273 34.7356 820.747 35.5128C820.221 36.2901 819.798 37.3187 819.478 38.5989C819.17 39.8676 819.016 41.4392 819.016 43.3137C819.016 45.1882 819.17 46.7598 819.478 48.0285C819.798 49.2972 820.221 50.3202 820.747 51.0974C821.273 51.8747 821.884 52.4347 822.582 52.7776C823.279 53.1091 824.005 53.2748 824.759 53.2748C825.513 53.2748 826.239 53.1091 826.936 52.7776C827.634 52.4347 828.245 51.8747 828.771 51.0974C829.308 50.3202 829.731 49.2972 830.04 48.0285C830.36 46.7598 830.52 45.1882 830.52 43.3137ZM869.213 43.3137C869.213 45.4625 868.979 47.3256 868.51 48.9029C868.053 50.4688 867.425 51.7661 866.624 52.7948C865.824 53.8234 864.876 54.5892 863.778 55.0922C862.693 55.5951 861.527 55.8465 860.281 55.8465C859.024 55.8465 857.852 55.5951 856.766 55.0922C855.692 54.5892 854.755 53.8234 853.954 52.7948C853.154 51.7661 852.526 50.4688 852.069 48.9029C851.611 47.3256 851.383 45.4625 851.383 43.3137C851.383 41.1649 851.611 39.3018 852.069 37.7245C852.526 36.1472 853.154 34.8442 853.954 33.8155C854.755 32.7754 855.692 32.0039 856.766 31.5009C857.852 30.998 859.024 30.7466 860.281 30.7466C861.527 30.7466 862.693 30.998 863.778 31.5009C864.876 32.0039 865.824 32.7754 866.624 33.8155C867.425 34.8442 868.053 36.1472 868.51 37.7245C868.979 39.3018 869.213 41.1649 869.213 43.3137ZM866.042 43.3137C866.042 41.4392 865.882 39.8676 865.561 38.5989C865.253 37.3187 864.83 36.2901 864.293 35.5128C863.767 34.7356 863.155 34.1812 862.458 33.8498C861.761 33.5069 861.035 33.3354 860.281 33.3354C859.527 33.3354 858.801 33.5069 858.103 33.8498C857.406 34.1812 856.795 34.7356 856.269 35.5128C855.743 36.2901 855.32 37.3187 855 38.5989C854.692 39.8676 854.537 41.4392 854.537 43.3137C854.537 45.1882 854.692 46.7598 855 48.0285C855.32 49.2972 855.743 50.3202 856.269 51.0974C856.795 51.8747 857.406 52.4347 858.103 52.7776C858.801 53.1091 859.527 53.2748 860.281 53.2748C861.035 53.2748 861.761 53.1091 862.458 52.7776C863.155 52.4347 863.767 51.8747 864.293 51.0974C864.83 50.3202 865.253 49.2972 865.561 48.0285C865.882 46.7598 866.042 45.1882 866.042 43.3137ZM891.127 53.2577V55.5894H877.96V53.2577H883.223V36.5072C883.223 36.0043 883.24 35.4957 883.275 34.9813L878.903 38.736C878.754 38.8618 878.606 38.9418 878.457 38.9761C878.308 38.9989 878.171 38.9989 878.046 38.9761C877.92 38.9532 877.8 38.9075 877.685 38.8389C877.583 38.7703 877.503 38.696 877.445 38.616L876.485 37.2959L883.806 30.9695H886.292V53.2577H891.127ZM914.447 53.2577V55.5894H901.279V53.2577H906.543V36.5072C906.543 36.0043 906.56 35.4957 906.594 34.9813L902.222 38.736C902.074 38.8618 901.925 38.9418 901.777 38.9761C901.628 38.9989 901.491 38.9989 901.365 38.9761C901.239 38.9532 901.119 38.9075 901.005 38.8389C900.902 38.7703 900.822 38.696 900.765 38.616L899.805 37.2959L907.126 30.9695H909.612V53.2577H914.447Z" fill="url(#paint4_linear_55_425)"/>
<path d="M692.689 43.3137C692.689 45.4625 692.455 47.3256 691.986 48.9029C691.529 50.4688 690.9 51.7661 690.1 52.7948C689.3 53.8234 688.351 54.5892 687.254 55.0922C686.168 55.5951 685.003 55.8465 683.757 55.8465C682.499 55.8465 681.328 55.5951 680.242 55.0922C679.168 54.5892 678.23 53.8234 677.43 52.7948C676.63 51.7661 676.002 50.4688 675.544 48.9029C675.087 47.3256 674.859 45.4625 674.859 43.3137C674.859 41.1649 675.087 39.3018 675.544 37.7245C676.002 36.1472 676.63 34.8442 677.43 33.8155C678.23 32.7754 679.168 32.0039 680.242 31.5009C681.328 30.998 682.499 30.7466 683.757 30.7466C685.003 30.7466 686.168 30.998 687.254 31.5009C688.351 32.0039 689.3 32.7754 690.1 33.8155C690.9 34.8442 691.529 36.1472 691.986 37.7245C692.455 39.3018 692.689 41.1649 692.689 43.3137ZM689.517 43.3137C689.517 41.4392 689.357 39.8676 689.037 38.5989C688.729 37.3187 688.306 36.2901 687.769 35.5128C687.243 34.7356 686.631 34.1812 685.934 33.8498C685.237 33.5069 684.511 33.3354 683.757 33.3354C683.002 33.3354 682.276 33.5069 681.579 33.8498C680.882 34.1812 680.271 34.7356 679.745 35.5128C679.219 36.2901 678.796 37.3187 678.476 38.5989C678.167 39.8676 678.013 41.4392 678.013 43.3137C678.013 45.1882 678.167 46.7598 678.476 48.0285C678.796 49.2972 679.219 50.3202 679.745 51.0974C680.271 51.8747 680.882 52.4347 681.579 52.7776C682.276 53.1091 683.002 53.2748 683.757 53.2748C684.511 53.2748 685.237 53.1091 685.934 52.7776C686.631 52.4347 687.243 51.8747 687.769 51.0974C688.306 50.3202 688.729 49.2972 689.037 48.0285C689.357 46.7598 689.517 45.1882 689.517 43.3137ZM728.211 43.3137C728.211 45.4625 727.977 47.3256 727.508 48.9029C727.051 50.4688 726.422 51.7661 725.622 52.7948C724.822 53.8234 723.873 54.5892 722.776 55.0922C721.69 55.5951 720.524 55.8465 719.278 55.8465C718.021 55.8465 716.85 55.5951 715.764 55.0922C714.689 54.5892 713.752 53.8234 712.952 52.7948C712.152 51.7661 711.523 50.4688 711.066 48.9029C710.609 47.3256 710.38 45.4625 710.38 43.3137C710.38 41.1649 710.609 39.3018 711.066 37.7245C711.523 36.1472 712.152 34.8442 712.952 33.8155C713.752 32.7754 714.689 32.0039 715.764 31.5009C716.85 30.998 718.021 30.7466 719.278 30.7466C720.524 30.7466 721.69 30.998 722.776 31.5009C723.873 32.0039 724.822 32.7754 725.622 33.8155C726.422 34.8442 727.051 36.1472 727.508 37.7245C727.977 39.3018 728.211 41.1649 728.211 43.3137ZM725.039 43.3137C725.039 41.4392 724.879 39.8676 724.559 38.5989C724.25 37.3187 723.828 36.2901 723.29 35.5128C722.765 34.7356 722.153 34.1812 721.456 33.8498C720.759 33.5069 720.033 33.3354 719.278 33.3354C718.524 33.3354 717.798 33.5069 717.101 33.8498C716.404 34.1812 715.792 34.7356 715.267 35.5128C714.741 36.2901 714.318 37.3187 713.998 38.5989C713.689 39.8676 713.535 41.4392 713.535 43.3137C713.535 45.1882 713.689 46.7598 713.998 48.0285C714.318 49.2972 714.741 50.3202 715.267 51.0974C715.792 51.8747 716.404 52.4347 717.101 52.7776C717.798 53.1091 718.524 53.2748 719.278 53.2748C720.033 53.2748 720.759 53.1091 721.456 52.7776C722.153 52.4347 722.765 51.8747 723.29 51.0974C723.828 50.3202 724.25 49.2972 724.559 48.0285C724.879 46.7598 725.039 45.1882 725.039 43.3137ZM762.327 53.2577V55.5894H749.16V53.2577H754.423V36.5072C754.423 36.0043 754.44 35.4957 754.475 34.9813L750.103 38.736C749.954 38.8618 749.805 38.9418 749.657 38.9761C749.508 38.9989 749.371 38.9989 749.245 38.9761C749.12 38.9532 749 38.9075 748.885 38.8389C748.783 38.7703 748.702 38.696 748.645 38.616L747.685 37.2959L755.006 30.9695H757.492V53.2577H762.327ZM787.052 43.3137C787.052 45.4625 786.818 47.3256 786.349 48.9029C785.892 50.4688 785.264 51.7661 784.463 52.7948C783.663 53.8234 782.715 54.5892 781.617 55.0922C780.532 55.5951 779.366 55.8465 778.12 55.8465C776.863 55.8465 775.691 55.5951 774.605 55.0922C773.531 54.5892 772.594 53.8234 771.793 52.7948C770.993 51.7661 770.365 50.4688 769.908 48.9029C769.45 47.3256 769.222 45.4625 769.222 43.3137C769.222 41.1649 769.45 39.3018 769.908 37.7245C770.365 36.1472 770.993 34.8442 771.793 33.8155C772.594 32.7754 773.531 32.0039 774.605 31.5009C775.691 30.998 776.863 30.7466 778.12 30.7466C779.366 30.7466 780.532 30.998 781.617 31.5009C782.715 32.0039 783.663 32.7754 784.463 33.8155C785.264 34.8442 785.892 36.1472 786.349 37.7245C786.818 39.3018 787.052 41.1649 787.052 43.3137ZM783.881 43.3137C783.881 41.4392 783.721 39.8676 783.4 38.5989C783.092 37.3187 782.669 36.2901 782.132 35.5128C781.606 34.7356 780.995 34.1812 780.297 33.8498C779.6 33.5069 778.874 33.3354 778.12 33.3354C777.366 33.3354 776.64 33.5069 775.943 33.8498C775.245 34.1812 774.634 34.7356 774.108 35.5128C773.582 36.2901 773.159 37.3187 772.839 38.5989C772.531 39.8676 772.376 41.4392 772.376 43.3137C772.376 45.1882 772.531 46.7598 772.839 48.0285C773.159 49.2972 773.582 50.3202 774.108 51.0974C774.634 51.8747 775.245 52.4347 775.943 52.7776C776.64 53.1091 777.366 53.2748 778.12 53.2748C778.874 53.2748 779.6 53.1091 780.297 52.7776C780.995 52.4347 781.606 51.8747 782.132 51.0974C782.669 50.3202 783.092 49.2972 783.4 48.0285C783.721 46.7598 783.881 45.1882 783.881 43.3137ZM808.966 53.2577V55.5894H795.799V53.2577H801.062V36.5072C801.062 36.0043 801.079 35.4957 801.114 34.9813L796.742 38.736C796.593 38.8618 796.445 38.9418 796.296 38.9761C796.147 38.9989 796.01 38.9989 795.885 38.9761C795.759 38.9532 795.639 38.9075 795.525 38.8389C795.422 38.7703 795.342 38.696 795.284 38.616L794.324 37.2959L801.645 30.9695H804.131V53.2577H808.966ZM833.691 43.3137C833.691 45.4625 833.457 47.3256 832.989 48.9029C832.531 50.4688 831.903 51.7661 831.103 52.7948C830.303 53.8234 829.354 54.5892 828.257 55.0922C827.171 55.5951 826.005 55.8465 824.759 55.8465C823.502 55.8465 822.33 55.5951 821.244 55.0922C820.17 54.5892 819.233 53.8234 818.433 52.7948C817.633 51.7661 817.004 50.4688 816.547 48.9029C816.089 47.3256 815.861 45.4625 815.861 43.3137C815.861 41.1649 816.089 39.3018 816.547 37.7245C817.004 36.1472 817.633 34.8442 818.433 33.8155C819.233 32.7754 820.17 32.0039 821.244 31.5009C822.33 30.998 823.502 30.7466 824.759 30.7466C826.005 30.7466 827.171 30.998 828.257 31.5009C829.354 32.0039 830.303 32.7754 831.103 33.8155C831.903 34.8442 832.531 36.1472 832.989 37.7245C833.457 39.3018 833.691 41.1649 833.691 43.3137ZM830.52 43.3137C830.52 41.4392 830.36 39.8676 830.04 38.5989C829.731 37.3187 829.308 36.2901 828.771 35.5128C828.245 34.7356 827.634 34.1812 826.936 33.8498C826.239 33.5069 825.513 33.3354 824.759 33.3354C824.005 33.3354 823.279 33.5069 822.582 33.8498C821.884 34.1812 821.273 34.7356 820.747 35.5128C820.221 36.2901 819.798 37.3187 819.478 38.5989C819.17 39.8676 819.016 41.4392 819.016 43.3137C819.016 45.1882 819.17 46.7598 819.478 48.0285C819.798 49.2972 820.221 50.3202 820.747 51.0974C821.273 51.8747 821.884 52.4347 822.582 52.7776C823.279 53.1091 824.005 53.2748 824.759 53.2748C825.513 53.2748 826.239 53.1091 826.936 52.7776C827.634 52.4347 828.245 51.8747 828.771 51.0974C829.308 50.3202 829.731 49.2972 830.04 48.0285C830.36 46.7598 830.52 45.1882 830.52 43.3137ZM869.213 43.3137C869.213 45.4625 868.979 47.3256 868.51 48.9029C868.053 50.4688 867.425 51.7661 866.624 52.7948C865.824 53.8234 864.876 54.5892 863.778 55.0922C862.693 55.5951 861.527 55.8465 860.281 55.8465C859.024 55.8465 857.852 55.5951 856.766 55.0922C855.692 54.5892 854.755 53.8234 853.954 52.7948C853.154 51.7661 852.526 50.4688 852.069 48.9029C851.611 47.3256 851.383 45.4625 851.383 43.3137C851.383 41.1649 851.611 39.3018 852.069 37.7245C852.526 36.1472 853.154 34.8442 853.954 33.8155C854.755 32.7754 855.692 32.0039 856.766 31.5009C857.852 30.998 859.024 30.7466 860.281 30.7466C861.527 30.7466 862.693 30.998 863.778 31.5009C864.876 32.0039 865.824 32.7754 866.624 33.8155C867.425 34.8442 868.053 36.1472 868.51 37.7245C868.979 39.3018 869.213 41.1649 869.213 43.3137ZM866.042 43.3137C866.042 41.4392 865.882 39.8676 865.561 38.5989C865.253 37.3187 864.83 36.2901 864.293 35.5128C863.767 34.7356 863.155 34.1812 862.458 33.8498C861.761 33.5069 861.035 33.3354 860.281 33.3354C859.527 33.3354 858.801 33.5069 858.103 33.8498C857.406 34.1812 856.795 34.7356 856.269 35.5128C855.743 36.2901 855.32 37.3187 855 38.5989C854.692 39.8676 854.537 41.4392 854.537 43.3137C854.537 45.1882 854.692 46.7598 855 48.0285C855.32 49.2972 855.743 50.3202 856.269 51.0974C856.795 51.8747 857.406 52.4347 858.103 52.7776C858.801 53.1091 859.527 53.2748 860.281 53.2748C861.035 53.2748 861.761 53.1091 862.458 52.7776C863.155 52.4347 863.767 51.8747 864.293 51.0974C864.83 50.3202 865.253 49.2972 865.561 48.0285C865.882 46.7598 866.042 45.1882 866.042 43.3137ZM891.127 53.2577V55.5894H877.96V53.2577H883.223V36.5072C883.223 36.0043 883.24 35.4957 883.275 34.9813L878.903 38.736C878.754 38.8618 878.606 38.9418 878.457 38.9761C878.308 38.9989 878.171 38.9989 878.046 38.9761C877.92 38.9532 877.8 38.9075 877.685 38.8389C877.583 38.7703 877.503 38.696 877.445 38.616L876.485 37.2959L883.806 30.9695H886.292V53.2577H891.127ZM914.447 53.2577V55.5894H901.279V53.2577H906.543V36.5072C906.543 36.0043 906.56 35.4957 906.594 34.9813L902.222 38.736C902.074 38.8618 901.925 38.9418 901.777 38.9761C901.628 38.9989 901.491 38.9989 901.365 38.9761C901.239 38.9532 901.119 38.9075 901.005 38.8389C900.902 38.7703 900.822 38.696 900.765 38.616L899.805 37.2959L907.126 30.9695H909.612V53.2577H914.447Z" fill="url(#paint5_linear_55_425)" fill-opacity="0.35"/>
</g>
<g filter="url(#filter3_dd_55_425)">
<path d="M531.221 53.2577V55.5894H518.054V53.2577H523.318V36.5072C523.318 36.0043 523.335 35.4957 523.369 34.9813L518.997 38.736C518.849 38.8618 518.7 38.9418 518.551 38.9761C518.403 38.9989 518.266 38.9989 518.14 38.9761C518.014 38.9532 517.894 38.9075 517.78 38.8389C517.677 38.7703 517.597 38.696 517.54 38.616L516.58 37.2959L523.9 30.9695H526.386V53.2577H531.221ZM555.947 43.3137C555.947 45.4625 555.712 47.3256 555.244 48.9029C554.787 50.4688 554.158 51.7661 553.358 52.7948C552.558 53.8234 551.609 54.5892 550.512 55.0922C549.426 55.5951 548.26 55.8465 547.014 55.8465C545.757 55.8465 544.585 55.5951 543.5 55.0922C542.425 54.5892 541.488 53.8234 540.688 52.7948C539.888 51.7661 539.259 50.4688 538.802 48.9029C538.345 47.3256 538.116 45.4625 538.116 43.3137C538.116 41.1649 538.345 39.3018 538.802 37.7245C539.259 36.1472 539.888 34.8442 540.688 33.8155C541.488 32.7754 542.425 32.0039 543.5 31.5009C544.585 30.998 545.757 30.7466 547.014 30.7466C548.26 30.7466 549.426 30.998 550.512 31.5009C551.609 32.0039 552.558 32.7754 553.358 33.8155C554.158 34.8442 554.787 36.1472 555.244 37.7245C555.712 39.3018 555.947 41.1649 555.947 43.3137ZM552.775 43.3137C552.775 41.4392 552.615 39.8676 552.295 38.5989C551.986 37.3187 551.563 36.2901 551.026 35.5128C550.5 34.7356 549.889 34.1812 549.192 33.8498C548.494 33.5069 547.769 33.3354 547.014 33.3354C546.26 33.3354 545.534 33.5069 544.837 33.8498C544.14 34.1812 543.528 34.7356 543.002 35.5128C542.477 36.2901 542.054 37.3187 541.734 38.5989C541.425 39.8676 541.271 41.4392 541.271 43.3137C541.271 45.1882 541.425 46.7598 541.734 48.0285C542.054 49.2972 542.477 50.3202 543.002 51.0974C543.528 51.8747 544.14 52.4347 544.837 52.7776C545.534 53.1091 546.26 53.2748 547.014 53.2748C547.769 53.2748 548.494 53.1091 549.192 52.7776C549.889 52.4347 550.5 51.8747 551.026 51.0974C551.563 50.3202 551.986 49.2972 552.295 48.0285C552.615 46.7598 552.775 45.1882 552.775 43.3137ZM590.063 53.2577V55.5894H576.896V53.2577H582.159V36.5072C582.159 36.0043 582.176 35.4957 582.21 34.9813L577.838 38.736C577.69 38.8618 577.541 38.9418 577.393 38.9761C577.244 38.9989 577.107 38.9989 576.981 38.9761C576.856 38.9532 576.736 38.9075 576.621 38.8389C576.518 38.7703 576.438 38.696 576.381 38.616L575.421 37.2959L582.742 30.9695H585.228V53.2577H590.063Z" fill="url(#paint6_linear_55_425)"/>
<path d="M531.221 53.2577V55.5894H518.054V53.2577H523.318V36.5072C523.318 36.0043 523.335 35.4957 523.369 34.9813L518.997 38.736C518.849 38.8618 518.7 38.9418 518.551 38.9761C518.403 38.9989 518.266 38.9989 518.14 38.9761C518.014 38.9532 517.894 38.9075 517.78 38.8389C517.677 38.7703 517.597 38.696 517.54 38.616L516.58 37.2959L523.9 30.9695H526.386V53.2577H531.221ZM555.947 43.3137C555.947 45.4625 555.712 47.3256 555.244 48.9029C554.787 50.4688 554.158 51.7661 553.358 52.7948C552.558 53.8234 551.609 54.5892 550.512 55.0922C549.426 55.5951 548.26 55.8465 547.014 55.8465C545.757 55.8465 544.585 55.5951 543.5 55.0922C542.425 54.5892 541.488 53.8234 540.688 52.7948C539.888 51.7661 539.259 50.4688 538.802 48.9029C538.345 47.3256 538.116 45.4625 538.116 43.3137C538.116 41.1649 538.345 39.3018 538.802 37.7245C539.259 36.1472 539.888 34.8442 540.688 33.8155C541.488 32.7754 542.425 32.0039 543.5 31.5009C544.585 30.998 545.757 30.7466 547.014 30.7466C548.26 30.7466 549.426 30.998 550.512 31.5009C551.609 32.0039 552.558 32.7754 553.358 33.8155C554.158 34.8442 554.787 36.1472 555.244 37.7245C555.712 39.3018 555.947 41.1649 555.947 43.3137ZM552.775 43.3137C552.775 41.4392 552.615 39.8676 552.295 38.5989C551.986 37.3187 551.563 36.2901 551.026 35.5128C550.5 34.7356 549.889 34.1812 549.192 33.8498C548.494 33.5069 547.769 33.3354 547.014 33.3354C546.26 33.3354 545.534 33.5069 544.837 33.8498C544.14 34.1812 543.528 34.7356 543.002 35.5128C542.477 36.2901 542.054 37.3187 541.734 38.5989C541.425 39.8676 541.271 41.4392 541.271 43.3137C541.271 45.1882 541.425 46.7598 541.734 48.0285C542.054 49.2972 542.477 50.3202 543.002 51.0974C543.528 51.8747 544.14 52.4347 544.837 52.7776C545.534 53.1091 546.26 53.2748 547.014 53.2748C547.769 53.2748 548.494 53.1091 549.192 52.7776C549.889 52.4347 550.5 51.8747 551.026 51.0974C551.563 50.3202 551.986 49.2972 552.295 48.0285C552.615 46.7598 552.775 45.1882 552.775 43.3137ZM590.063 53.2577V55.5894H576.896V53.2577H582.159V36.5072C582.159 36.0043 582.176 35.4957 582.21 34.9813L577.838 38.736C577.69 38.8618 577.541 38.9418 577.393 38.9761C577.244 38.9989 577.107 38.9989 576.981 38.9761C576.856 38.9532 576.736 38.9075 576.621 38.8389C576.518 38.7703 576.438 38.696 576.381 38.616L575.421 37.2959L582.742 30.9695H585.228V53.2577H590.063Z" fill="url(#paint7_linear_55_425)" fill-opacity="0.35"/>
</g>
<g opacity="0.3" filter="url(#filter4_dd_55_425)">
<path d="M1053.45 53.2582V55.5898H1040.29V53.2582H1045.55V36.5077C1045.55 36.0048 1045.57 35.4962 1045.6 34.9818L1041.23 38.7365C1041.08 38.8623 1040.93 38.9423 1040.78 38.9766C1040.63 38.9994 1040.5 38.9994 1040.37 38.9766C1040.25 38.9537 1040.13 38.908 1040.01 38.8394C1039.91 38.7708 1039.83 38.6965 1039.77 38.6165L1038.81 37.2964L1046.13 30.9699H1048.62V53.2582H1053.45ZM1090.38 43.3142C1090.38 45.463 1090.15 47.3261 1089.68 48.9034C1089.22 50.4693 1088.59 51.7666 1087.79 52.7952C1086.99 53.8239 1086.04 54.5897 1084.95 55.0926C1083.86 55.5956 1082.69 55.847 1081.45 55.847C1080.19 55.847 1079.02 55.5956 1077.93 55.0926C1076.86 54.5897 1075.92 53.8239 1075.12 52.7952C1074.32 51.7666 1073.69 50.4693 1073.24 48.9034C1072.78 47.3261 1072.55 45.463 1072.55 43.3142C1072.55 41.1654 1072.78 39.3023 1073.24 37.725C1073.69 36.1477 1074.32 34.8447 1075.12 33.816C1075.92 32.7759 1076.86 32.0043 1077.93 31.5014C1079.02 30.9985 1080.19 30.7471 1081.45 30.7471C1082.69 30.7471 1083.86 30.9985 1084.95 31.5014C1086.04 32.0043 1086.99 32.7759 1087.79 33.816C1088.59 34.8447 1089.22 36.1477 1089.68 37.725C1090.15 39.3023 1090.38 41.1654 1090.38 43.3142ZM1087.21 43.3142C1087.21 41.4397 1087.05 39.8681 1086.73 38.5994C1086.42 37.3192 1086 36.2905 1085.46 35.5133C1084.93 34.7361 1084.32 34.1817 1083.63 33.8503C1082.93 33.5074 1082.2 33.3359 1081.45 33.3359C1080.69 33.3359 1079.97 33.5074 1079.27 33.8503C1078.57 34.1817 1077.96 34.7361 1077.44 35.5133C1076.91 36.2905 1076.49 37.3192 1076.17 38.5994C1075.86 39.8681 1075.71 41.4397 1075.71 43.3142C1075.71 45.1887 1075.86 46.7603 1076.17 48.029C1076.49 49.2977 1076.91 50.3207 1077.44 51.0979C1077.96 51.8751 1078.57 52.4352 1079.27 52.7781C1079.97 53.1096 1080.69 53.2753 1081.45 53.2753C1082.2 53.2753 1082.93 53.1096 1083.63 52.7781C1084.32 52.4352 1084.93 51.8751 1085.46 51.0979C1086 50.3207 1086.42 49.2977 1086.73 48.029C1087.05 46.7603 1087.21 45.1887 1087.21 43.3142ZM1124.5 53.2582V55.5898H1111.33V53.2582H1116.59V36.5077C1116.59 36.0048 1116.61 35.4962 1116.64 34.9818L1112.27 38.7365C1112.12 38.8623 1111.98 38.9423 1111.83 38.9766C1111.68 38.9994 1111.54 38.9994 1111.42 38.9766C1111.29 38.9537 1111.17 38.908 1111.06 38.8394C1110.95 38.7708 1110.87 38.6965 1110.82 38.6165L1109.86 37.2964L1117.18 30.9699H1119.66V53.2582H1124.5ZM1161.42 43.3142C1161.42 45.463 1161.19 47.3261 1160.72 48.9034C1160.26 50.4693 1159.64 51.7666 1158.84 52.7952C1158.04 53.8239 1157.09 54.5897 1155.99 55.0926C1154.9 55.5956 1153.74 55.847 1152.49 55.847C1151.24 55.847 1150.06 55.5956 1148.98 55.0926C1147.9 54.5897 1146.97 53.8239 1146.17 52.7952C1145.37 51.7666 1144.74 50.4693 1144.28 48.9034C1143.82 47.3261 1143.59 45.463 1143.59 43.3142C1143.59 41.1654 1143.82 39.3023 1144.28 37.725C1144.74 36.1477 1145.37 34.8447 1146.17 33.816C1146.97 32.7759 1147.9 32.0043 1148.98 31.5014C1150.06 30.9985 1151.24 30.7471 1152.49 30.7471C1153.74 30.7471 1154.9 30.9985 1155.99 31.5014C1157.09 32.0043 1158.04 32.7759 1158.84 33.816C1159.64 34.8447 1160.26 36.1477 1160.72 37.725C1161.19 39.3023 1161.42 41.1654 1161.42 43.3142ZM1158.25 43.3142C1158.25 41.4397 1158.09 39.8681 1157.77 38.5994C1157.46 37.3192 1157.04 36.2905 1156.5 35.5133C1155.98 34.7361 1155.37 34.1817 1154.67 33.8503C1153.97 33.5074 1153.25 33.3359 1152.49 33.3359C1151.74 33.3359 1151.01 33.5074 1150.31 33.8503C1149.62 34.1817 1149.01 34.7361 1148.48 35.5133C1147.95 36.2905 1147.53 37.3192 1147.21 38.5994C1146.9 39.8681 1146.75 41.4397 1146.75 43.3142C1146.75 45.1887 1146.9 46.7603 1147.21 48.029C1147.53 49.2977 1147.95 50.3207 1148.48 51.0979C1149.01 51.8751 1149.62 52.4352 1150.31 52.7781C1151.01 53.1096 1151.74 53.2753 1152.49 53.2753C1153.25 53.2753 1153.97 53.1096 1154.67 52.7781C1155.37 52.4352 1155.98 51.8751 1156.5 51.0979C1157.04 50.3207 1157.46 49.2977 1157.77 48.029C1158.09 46.7603 1158.25 45.1887 1158.25 43.3142ZM1184.74 43.3142C1184.74 45.463 1184.51 47.3261 1184.04 48.9034C1183.58 50.4693 1182.96 51.7666 1182.16 52.7952C1181.36 53.8239 1180.41 54.5897 1179.31 55.0926C1178.22 55.5956 1177.06 55.847 1175.81 55.847C1174.55 55.847 1173.38 55.5956 1172.3 55.0926C1171.22 54.5897 1170.29 53.8239 1169.49 52.7952C1168.69 51.7666 1168.06 50.4693 1167.6 48.9034C1167.14 47.3261 1166.91 45.463 1166.91 43.3142C1166.91 41.1654 1167.14 39.3023 1167.6 37.725C1168.06 36.1477 1168.69 34.8447 1169.49 33.816C1170.29 32.7759 1171.22 32.0043 1172.3 31.5014C1173.38 30.9985 1174.55 30.7471 1175.81 30.7471C1177.06 30.7471 1178.22 30.9985 1179.31 31.5014C1180.41 32.0043 1181.36 32.7759 1182.16 33.816C1182.96 34.8447 1183.58 36.1477 1184.04 37.725C1184.51 39.3023 1184.74 41.1654 1184.74 43.3142ZM1181.57 43.3142C1181.57 41.4397 1181.41 39.8681 1181.09 38.5994C1180.78 37.3192 1180.36 36.2905 1179.82 35.5133C1179.3 34.7361 1178.69 34.1817 1177.99 33.8503C1177.29 33.5074 1176.57 33.3359 1175.81 33.3359C1175.06 33.3359 1174.33 33.5074 1173.63 33.8503C1172.94 34.1817 1172.33 34.7361 1171.8 35.5133C1171.27 36.2905 1170.85 37.3192 1170.53 38.5994C1170.22 39.8681 1170.07 41.4397 1170.07 43.3142C1170.07 45.1887 1170.22 46.7603 1170.53 48.029C1170.85 49.2977 1171.27 50.3207 1171.8 51.0979C1172.33 51.8751 1172.94 52.4352 1173.63 52.7781C1174.33 53.1096 1175.06 53.2753 1175.81 53.2753C1176.57 53.2753 1177.29 53.1096 1177.99 52.7781C1178.69 52.4352 1179.3 51.8751 1179.82 51.0979C1180.36 50.3207 1180.78 49.2977 1181.09 48.029C1181.41 46.7603 1181.57 45.1887 1181.57 43.3142ZM1220.27 43.3142C1220.27 45.463 1220.03 47.3261 1219.56 48.9034C1219.11 50.4693 1218.48 51.7666 1217.68 52.7952C1216.88 53.8239 1215.93 54.5897 1214.83 55.0926C1213.75 55.5956 1212.58 55.847 1211.33 55.847C1210.08 55.847 1208.9 55.5956 1207.82 55.0926C1206.74 54.5897 1205.81 53.8239 1205.01 52.7952C1204.21 51.7666 1203.58 50.4693 1203.12 48.9034C1202.66 47.3261 1202.44 45.463 1202.44 43.3142C1202.44 41.1654 1202.66 39.3023 1203.12 37.725C1203.58 36.1477 1204.21 34.8447 1205.01 33.816C1205.81 32.7759 1206.74 32.0043 1207.82 31.5014C1208.9 30.9985 1210.08 30.7471 1211.33 30.7471C1212.58 30.7471 1213.75 30.9985 1214.83 31.5014C1215.93 32.0043 1216.88 32.7759 1217.68 33.816C1218.48 34.8447 1219.11 36.1477 1219.56 37.725C1220.03 39.3023 1220.27 41.1654 1220.27 43.3142ZM1217.09 43.3142C1217.09 41.4397 1216.93 39.8681 1216.61 38.5994C1216.31 37.3192 1215.88 36.2905 1215.35 35.5133C1214.82 34.7361 1214.21 34.1817 1213.51 33.8503C1212.81 33.5074 1212.09 33.3359 1211.33 33.3359C1210.58 33.3359 1209.85 33.5074 1209.16 33.8503C1208.46 34.1817 1207.85 34.7361 1207.32 35.5133C1206.8 36.2905 1206.37 37.3192 1206.05 38.5994C1205.74 39.8681 1205.59 41.4397 1205.59 43.3142C1205.59 45.1887 1205.74 46.7603 1206.05 48.029C1206.37 49.2977 1206.8 50.3207 1207.32 51.0979C1207.85 51.8751 1208.46 52.4352 1209.16 52.7781C1209.85 53.1096 1210.58 53.2753 1211.33 53.2753C1212.09 53.2753 1212.81 53.1096 1213.51 52.7781C1214.21 52.4352 1214.82 51.8751 1215.35 51.0979C1215.88 50.3207 1216.31 49.2977 1216.61 48.029C1216.93 46.7603 1217.09 45.1887 1217.09 43.3142ZM1242.18 53.2582V55.5898H1229.01V53.2582H1234.28V36.5077C1234.28 36.0048 1234.29 35.4962 1234.33 34.9818L1229.96 38.7365C1229.81 38.8623 1229.66 38.9423 1229.51 38.9766C1229.36 38.9994 1229.22 38.9994 1229.1 38.9766C1228.97 38.9537 1228.85 38.908 1228.74 38.8394C1228.64 38.7708 1228.56 38.6965 1228.5 38.6165L1227.54 37.2964L1234.86 30.9699H1237.35V53.2582H1242.18ZM1266.91 43.3142C1266.91 45.463 1266.67 47.3261 1266.2 48.9034C1265.75 50.4693 1265.12 51.7666 1264.32 52.7952C1263.52 53.8239 1262.57 54.5897 1261.47 55.0926C1260.38 55.5956 1259.22 55.847 1257.97 55.847C1256.72 55.847 1255.54 55.5956 1254.46 55.0926C1253.38 54.5897 1252.45 53.8239 1251.65 52.7952C1250.85 51.7666 1250.22 50.4693 1249.76 48.9034C1249.3 47.3261 1249.07 45.463 1249.07 43.3142C1249.07 41.1654 1249.3 39.3023 1249.76 37.725C1250.22 36.1477 1250.85 34.8447 1251.65 33.816C1252.45 32.7759 1253.38 32.0043 1254.46 31.5014C1255.54 30.9985 1256.72 30.7471 1257.97 30.7471C1259.22 30.7471 1260.38 30.9985 1261.47 31.5014C1262.57 32.0043 1263.52 32.7759 1264.32 33.816C1265.12 34.8447 1265.75 36.1477 1266.2 37.725C1266.67 39.3023 1266.91 41.1654 1266.91 43.3142ZM1263.73 43.3142C1263.73 41.4397 1263.57 39.8681 1263.25 38.5994C1262.94 37.3192 1262.52 36.2905 1261.98 35.5133C1261.46 34.7361 1260.85 34.1817 1260.15 33.8503C1259.45 33.5074 1258.73 33.3359 1257.97 33.3359C1257.22 33.3359 1256.49 33.5074 1255.8 33.8503C1255.1 34.1817 1254.49 34.7361 1253.96 35.5133C1253.44 36.2905 1253.01 37.3192 1252.69 38.5994C1252.38 39.8681 1252.23 41.4397 1252.23 43.3142C1252.23 45.1887 1252.38 46.7603 1252.69 48.029C1253.01 49.2977 1253.44 50.3207 1253.96 51.0979C1254.49 51.8751 1255.1 52.4352 1255.8 52.7781C1256.49 53.1096 1257.22 53.2753 1257.97 53.2753C1258.73 53.2753 1259.45 53.1096 1260.15 52.7781C1260.85 52.4352 1261.46 51.8751 1261.98 51.0979C1262.52 50.3207 1262.94 49.2977 1263.25 48.029C1263.57 46.7603 1263.73 45.1887 1263.73 43.3142ZM1288.82 53.2582V55.5898H1275.65V53.2582H1280.92V36.5077C1280.92 36.0048 1280.93 35.4962 1280.97 34.9818L1276.59 38.7365C1276.45 38.8623 1276.3 38.9423 1276.15 38.9766C1276 38.9994 1275.86 38.9994 1275.74 38.9766C1275.61 38.9537 1275.49 38.908 1275.38 38.8394C1275.27 38.7708 1275.19 38.6965 1275.14 38.6165L1274.18 37.2964L1281.5 30.9699H1283.98V53.2582H1288.82ZM1313.54 43.3142C1313.54 45.463 1313.31 47.3261 1312.84 48.9034C1312.38 50.4693 1311.76 51.7666 1310.96 52.7952C1310.16 53.8239 1309.21 54.5897 1308.11 55.0926C1307.02 55.5956 1305.86 55.847 1304.61 55.847C1303.35 55.847 1302.18 55.5956 1301.1 55.0926C1300.02 54.5897 1299.09 53.8239 1298.29 52.7952C1297.49 51.7666 1296.86 50.4693 1296.4 48.9034C1295.94 47.3261 1295.71 45.463 1295.71 43.3142C1295.71 41.1654 1295.94 39.3023 1296.4 37.725C1296.86 36.1477 1297.49 34.8447 1298.29 33.816C1299.09 32.7759 1300.02 32.0043 1301.1 31.5014C1302.18 30.9985 1303.35 30.7471 1304.61 30.7471C1305.86 30.7471 1307.02 30.9985 1308.11 31.5014C1309.21 32.0043 1310.16 32.7759 1310.96 33.816C1311.76 34.8447 1312.38 36.1477 1312.84 37.725C1313.31 39.3023 1313.54 41.1654 1313.54 43.3142ZM1310.37 43.3142C1310.37 41.4397 1310.21 39.8681 1309.89 38.5994C1309.58 37.3192 1309.16 36.2905 1308.62 35.5133C1308.1 34.7361 1307.49 34.1817 1306.79 33.8503C1306.09 33.5074 1305.37 33.3359 1304.61 33.3359C1303.86 33.3359 1303.13 33.5074 1302.43 33.8503C1301.74 34.1817 1301.13 34.7361 1300.6 35.5133C1300.07 36.2905 1299.65 37.3192 1299.33 38.5994C1299.02 39.8681 1298.87 41.4397 1298.87 43.3142C1298.87 45.1887 1299.02 46.7603 1299.33 48.029C1299.65 49.2977 1300.07 50.3207 1300.6 51.0979C1301.13 51.8751 1301.74 52.4352 1302.43 52.7781C1303.13 53.1096 1303.86 53.2753 1304.61 53.2753C1305.37 53.2753 1306.09 53.1096 1306.79 52.7781C1307.49 52.4352 1308.1 51.8751 1308.62 51.0979C1309.16 50.3207 1309.58 49.2977 1309.89 48.029C1310.21 46.7603 1310.37 45.1887 1310.37 43.3142ZM1336.86 43.3142C1336.86 45.463 1336.63 47.3261 1336.16 48.9034C1335.7 50.4693 1335.08 51.7666 1334.28 52.7952C1333.48 53.8239 1332.53 54.5897 1331.43 55.0926C1330.34 55.5956 1329.18 55.847 1327.93 55.847C1326.67 55.847 1325.5 55.5956 1324.42 55.0926C1323.34 54.5897 1322.41 53.8239 1321.61 52.7952C1320.81 51.7666 1320.18 50.4693 1319.72 48.9034C1319.26 47.3261 1319.03 45.463 1319.03 43.3142C1319.03 41.1654 1319.26 39.3023 1319.72 37.725C1320.18 36.1477 1320.81 34.8447 1321.61 33.816C1322.41 32.7759 1323.34 32.0043 1324.42 31.5014C1325.5 30.9985 1326.67 30.7471 1327.93 30.7471C1329.18 30.7471 1330.34 30.9985 1331.43 31.5014C1332.53 32.0043 1333.48 32.7759 1334.28 33.816C1335.08 34.8447 1335.7 36.1477 1336.16 37.725C1336.63 39.3023 1336.86 41.1654 1336.86 43.3142ZM1333.69 43.3142C1333.69 41.4397 1333.53 39.8681 1333.21 38.5994C1332.9 37.3192 1332.48 36.2905 1331.94 35.5133C1331.42 34.7361 1330.81 34.1817 1330.11 33.8503C1329.41 33.5074 1328.69 33.3359 1327.93 33.3359C1327.18 33.3359 1326.45 33.5074 1325.75 33.8503C1325.06 34.1817 1324.45 34.7361 1323.92 35.5133C1323.39 36.2905 1322.97 37.3192 1322.65 38.5994C1322.34 39.8681 1322.19 41.4397 1322.19 43.3142C1322.19 45.1887 1322.34 46.7603 1322.65 48.029C1322.97 49.2977 1323.39 50.3207 1323.92 51.0979C1324.45 51.8751 1325.06 52.4352 1325.75 52.7781C1326.45 53.1096 1327.18 53.2753 1327.93 53.2753C1328.69 53.2753 1329.41 53.1096 1330.11 52.7781C1330.81 52.4352 1331.42 51.8751 1331.94 51.0979C1332.48 50.3207 1332.9 49.2977 1333.21 48.029C1333.53 46.7603 1333.69 45.1887 1333.69 43.3142ZM1360.18 43.3142C1360.18 45.463 1359.95 47.3261 1359.48 48.9034C1359.02 50.4693 1358.39 51.7666 1357.59 52.7952C1356.79 53.8239 1355.85 54.5897 1354.75 55.0926C1353.66 55.5956 1352.5 55.847 1351.25 55.847C1349.99 55.847 1348.82 55.5956 1347.74 55.0926C1346.66 54.5897 1345.72 53.8239 1344.92 52.7952C1344.12 51.7666 1343.5 50.4693 1343.04 48.9034C1342.58 47.3261 1342.35 45.463 1342.35 43.3142C1342.35 41.1654 1342.58 39.3023 1343.04 37.725C1343.5 36.1477 1344.12 34.8447 1344.92 33.816C1345.72 32.7759 1346.66 32.0043 1347.74 31.5014C1348.82 30.9985 1349.99 30.7471 1351.25 30.7471C1352.5 30.7471 1353.66 30.9985 1354.75 31.5014C1355.85 32.0043 1356.79 32.7759 1357.59 33.816C1358.39 34.8447 1359.02 36.1477 1359.48 37.725C1359.95 39.3023 1360.18 41.1654 1360.18 43.3142ZM1357.01 43.3142C1357.01 41.4397 1356.85 39.8681 1356.53 38.5994C1356.22 37.3192 1355.8 36.2905 1355.26 35.5133C1354.74 34.7361 1354.13 34.1817 1353.43 33.8503C1352.73 33.5074 1352.01 33.3359 1351.25 33.3359C1350.5 33.3359 1349.77 33.5074 1349.07 33.8503C1348.38 34.1817 1347.77 34.7361 1347.24 35.5133C1346.71 36.2905 1346.29 37.3192 1345.97 38.5994C1345.66 39.8681 1345.51 41.4397 1345.51 43.3142C1345.51 45.1887 1345.66 46.7603 1345.97 48.029C1346.29 49.2977 1346.71 50.3207 1347.24 51.0979C1347.77 51.8751 1348.38 52.4352 1349.07 52.7781C1349.77 53.1096 1350.5 53.2753 1351.25 53.2753C1352.01 53.2753 1352.73 53.1096 1353.43 52.7781C1354.13 52.4352 1354.74 51.8751 1355.26 51.0979C1355.8 50.3207 1356.22 49.2977 1356.53 48.029C1356.85 46.7603 1357.01 45.1887 1357.01 43.3142Z" fill="url(#paint8_linear_55_425)"/>
<path d="M1053.45 53.2582V55.5898H1040.29V53.2582H1045.55V36.5077C1045.55 36.0048 1045.57 35.4962 1045.6 34.9818L1041.23 38.7365C1041.08 38.8623 1040.93 38.9423 1040.78 38.9766C1040.63 38.9994 1040.5 38.9994 1040.37 38.9766C1040.25 38.9537 1040.13 38.908 1040.01 38.8394C1039.91 38.7708 1039.83 38.6965 1039.77 38.6165L1038.81 37.2964L1046.13 30.9699H1048.62V53.2582H1053.45ZM1090.38 43.3142C1090.38 45.463 1090.15 47.3261 1089.68 48.9034C1089.22 50.4693 1088.59 51.7666 1087.79 52.7952C1086.99 53.8239 1086.04 54.5897 1084.95 55.0926C1083.86 55.5956 1082.69 55.847 1081.45 55.847C1080.19 55.847 1079.02 55.5956 1077.93 55.0926C1076.86 54.5897 1075.92 53.8239 1075.12 52.7952C1074.32 51.7666 1073.69 50.4693 1073.24 48.9034C1072.78 47.3261 1072.55 45.463 1072.55 43.3142C1072.55 41.1654 1072.78 39.3023 1073.24 37.725C1073.69 36.1477 1074.32 34.8447 1075.12 33.816C1075.92 32.7759 1076.86 32.0043 1077.93 31.5014C1079.02 30.9985 1080.19 30.7471 1081.45 30.7471C1082.69 30.7471 1083.86 30.9985 1084.95 31.5014C1086.04 32.0043 1086.99 32.7759 1087.79 33.816C1088.59 34.8447 1089.22 36.1477 1089.68 37.725C1090.15 39.3023 1090.38 41.1654 1090.38 43.3142ZM1087.21 43.3142C1087.21 41.4397 1087.05 39.8681 1086.73 38.5994C1086.42 37.3192 1086 36.2905 1085.46 35.5133C1084.93 34.7361 1084.32 34.1817 1083.63 33.8503C1082.93 33.5074 1082.2 33.3359 1081.45 33.3359C1080.69 33.3359 1079.97 33.5074 1079.27 33.8503C1078.57 34.1817 1077.96 34.7361 1077.44 35.5133C1076.91 36.2905 1076.49 37.3192 1076.17 38.5994C1075.86 39.8681 1075.71 41.4397 1075.71 43.3142C1075.71 45.1887 1075.86 46.7603 1076.17 48.029C1076.49 49.2977 1076.91 50.3207 1077.44 51.0979C1077.96 51.8751 1078.57 52.4352 1079.27 52.7781C1079.97 53.1096 1080.69 53.2753 1081.45 53.2753C1082.2 53.2753 1082.93 53.1096 1083.63 52.7781C1084.32 52.4352 1084.93 51.8751 1085.46 51.0979C1086 50.3207 1086.42 49.2977 1086.73 48.029C1087.05 46.7603 1087.21 45.1887 1087.21 43.3142ZM1124.5 53.2582V55.5898H1111.33V53.2582H1116.59V36.5077C1116.59 36.0048 1116.61 35.4962 1116.64 34.9818L1112.27 38.7365C1112.12 38.8623 1111.98 38.9423 1111.83 38.9766C1111.68 38.9994 1111.54 38.9994 1111.42 38.9766C1111.29 38.9537 1111.17 38.908 1111.06 38.8394C1110.95 38.7708 1110.87 38.6965 1110.82 38.6165L1109.86 37.2964L1117.18 30.9699H1119.66V53.2582H1124.5ZM1161.42 43.3142C1161.42 45.463 1161.19 47.3261 1160.72 48.9034C1160.26 50.4693 1159.64 51.7666 1158.84 52.7952C1158.04 53.8239 1157.09 54.5897 1155.99 55.0926C1154.9 55.5956 1153.74 55.847 1152.49 55.847C1151.24 55.847 1150.06 55.5956 1148.98 55.0926C1147.9 54.5897 1146.97 53.8239 1146.17 52.7952C1145.37 51.7666 1144.74 50.4693 1144.28 48.9034C1143.82 47.3261 1143.59 45.463 1143.59 43.3142C1143.59 41.1654 1143.82 39.3023 1144.28 37.725C1144.74 36.1477 1145.37 34.8447 1146.17 33.816C1146.97 32.7759 1147.9 32.0043 1148.98 31.5014C1150.06 30.9985 1151.24 30.7471 1152.49 30.7471C1153.74 30.7471 1154.9 30.9985 1155.99 31.5014C1157.09 32.0043 1158.04 32.7759 1158.84 33.816C1159.64 34.8447 1160.26 36.1477 1160.72 37.725C1161.19 39.3023 1161.42 41.1654 1161.42 43.3142ZM1158.25 43.3142C1158.25 41.4397 1158.09 39.8681 1157.77 38.5994C1157.46 37.3192 1157.04 36.2905 1156.5 35.5133C1155.98 34.7361 1155.37 34.1817 1154.67 33.8503C1153.97 33.5074 1153.25 33.3359 1152.49 33.3359C1151.74 33.3359 1151.01 33.5074 1150.31 33.8503C1149.62 34.1817 1149.01 34.7361 1148.48 35.5133C1147.95 36.2905 1147.53 37.3192 1147.21 38.5994C1146.9 39.8681 1146.75 41.4397 1146.75 43.3142C1146.75 45.1887 1146.9 46.7603 1147.21 48.029C1147.53 49.2977 1147.95 50.3207 1148.48 51.0979C1149.01 51.8751 1149.62 52.4352 1150.31 52.7781C1151.01 53.1096 1151.74 53.2753 1152.49 53.2753C1153.25 53.2753 1153.97 53.1096 1154.67 52.7781C1155.37 52.4352 1155.98 51.8751 1156.5 51.0979C1157.04 50.3207 1157.46 49.2977 1157.77 48.029C1158.09 46.7603 1158.25 45.1887 1158.25 43.3142ZM1184.74 43.3142C1184.74 45.463 1184.51 47.3261 1184.04 48.9034C1183.58 50.4693 1182.96 51.7666 1182.16 52.7952C1181.36 53.8239 1180.41 54.5897 1179.31 55.0926C1178.22 55.5956 1177.06 55.847 1175.81 55.847C1174.55 55.847 1173.38 55.5956 1172.3 55.0926C1171.22 54.5897 1170.29 53.8239 1169.49 52.7952C1168.69 51.7666 1168.06 50.4693 1167.6 48.9034C1167.14 47.3261 1166.91 45.463 1166.91 43.3142C1166.91 41.1654 1167.14 39.3023 1167.6 37.725C1168.06 36.1477 1168.69 34.8447 1169.49 33.816C1170.29 32.7759 1171.22 32.0043 1172.3 31.5014C1173.38 30.9985 1174.55 30.7471 1175.81 30.7471C1177.06 30.7471 1178.22 30.9985 1179.31 31.5014C1180.41 32.0043 1181.36 32.7759 1182.16 33.816C1182.96 34.8447 1183.58 36.1477 1184.04 37.725C1184.51 39.3023 1184.74 41.1654 1184.74 43.3142ZM1181.57 43.3142C1181.57 41.4397 1181.41 39.8681 1181.09 38.5994C1180.78 37.3192 1180.36 36.2905 1179.82 35.5133C1179.3 34.7361 1178.69 34.1817 1177.99 33.8503C1177.29 33.5074 1176.57 33.3359 1175.81 33.3359C1175.06 33.3359 1174.33 33.5074 1173.63 33.8503C1172.94 34.1817 1172.33 34.7361 1171.8 35.5133C1171.27 36.2905 1170.85 37.3192 1170.53 38.5994C1170.22 39.8681 1170.07 41.4397 1170.07 43.3142C1170.07 45.1887 1170.22 46.7603 1170.53 48.029C1170.85 49.2977 1171.27 50.3207 1171.8 51.0979C1172.33 51.8751 1172.94 52.4352 1173.63 52.7781C1174.33 53.1096 1175.06 53.2753 1175.81 53.2753C1176.57 53.2753 1177.29 53.1096 1177.99 52.7781C1178.69 52.4352 1179.3 51.8751 1179.82 51.0979C1180.36 50.3207 1180.78 49.2977 1181.09 48.029C1181.41 46.7603 1181.57 45.1887 1181.57 43.3142ZM1220.27 43.3142C1220.27 45.463 1220.03 47.3261 1219.56 48.9034C1219.11 50.4693 1218.48 51.7666 1217.68 52.7952C1216.88 53.8239 1215.93 54.5897 1214.83 55.0926C1213.75 55.5956 1212.58 55.847 1211.33 55.847C1210.08 55.847 1208.9 55.5956 1207.82 55.0926C1206.74 54.5897 1205.81 53.8239 1205.01 52.7952C1204.21 51.7666 1203.58 50.4693 1203.12 48.9034C1202.66 47.3261 1202.44 45.463 1202.44 43.3142C1202.44 41.1654 1202.66 39.3023 1203.12 37.725C1203.58 36.1477 1204.21 34.8447 1205.01 33.816C1205.81 32.7759 1206.74 32.0043 1207.82 31.5014C1208.9 30.9985 1210.08 30.7471 1211.33 30.7471C1212.58 30.7471 1213.75 30.9985 1214.83 31.5014C1215.93 32.0043 1216.88 32.7759 1217.68 33.816C1218.48 34.8447 1219.11 36.1477 1219.56 37.725C1220.03 39.3023 1220.27 41.1654 1220.27 43.3142ZM1217.09 43.3142C1217.09 41.4397 1216.93 39.8681 1216.61 38.5994C1216.31 37.3192 1215.88 36.2905 1215.35 35.5133C1214.82 34.7361 1214.21 34.1817 1213.51 33.8503C1212.81 33.5074 1212.09 33.3359 1211.33 33.3359C1210.58 33.3359 1209.85 33.5074 1209.16 33.8503C1208.46 34.1817 1207.85 34.7361 1207.32 35.5133C1206.8 36.2905 1206.37 37.3192 1206.05 38.5994C1205.74 39.8681 1205.59 41.4397 1205.59 43.3142C1205.59 45.1887 1205.74 46.7603 1206.05 48.029C1206.37 49.2977 1206.8 50.3207 1207.32 51.0979C1207.85 51.8751 1208.46 52.4352 1209.16 52.7781C1209.85 53.1096 1210.58 53.2753 1211.33 53.2753C1212.09 53.2753 1212.81 53.1096 1213.51 52.7781C1214.21 52.4352 1214.82 51.8751 1215.35 51.0979C1215.88 50.3207 1216.31 49.2977 1216.61 48.029C1216.93 46.7603 1217.09 45.1887 1217.09 43.3142ZM1242.18 53.2582V55.5898H1229.01V53.2582H1234.28V36.5077C1234.28 36.0048 1234.29 35.4962 1234.33 34.9818L1229.96 38.7365C1229.81 38.8623 1229.66 38.9423 1229.51 38.9766C1229.36 38.9994 1229.22 38.9994 1229.1 38.9766C1228.97 38.9537 1228.85 38.908 1228.74 38.8394C1228.64 38.7708 1228.56 38.6965 1228.5 38.6165L1227.54 37.2964L1234.86 30.9699H1237.35V53.2582H1242.18ZM1266.91 43.3142C1266.91 45.463 1266.67 47.3261 1266.2 48.9034C1265.75 50.4693 1265.12 51.7666 1264.32 52.7952C1263.52 53.8239 1262.57 54.5897 1261.47 55.0926C1260.38 55.5956 1259.22 55.847 1257.97 55.847C1256.72 55.847 1255.54 55.5956 1254.46 55.0926C1253.38 54.5897 1252.45 53.8239 1251.65 52.7952C1250.85 51.7666 1250.22 50.4693 1249.76 48.9034C1249.3 47.3261 1249.07 45.463 1249.07 43.3142C1249.07 41.1654 1249.3 39.3023 1249.76 37.725C1250.22 36.1477 1250.85 34.8447 1251.65 33.816C1252.45 32.7759 1253.38 32.0043 1254.46 31.5014C1255.54 30.9985 1256.72 30.7471 1257.97 30.7471C1259.22 30.7471 1260.38 30.9985 1261.47 31.5014C1262.57 32.0043 1263.52 32.7759 1264.32 33.816C1265.12 34.8447 1265.75 36.1477 1266.2 37.725C1266.67 39.3023 1266.91 41.1654 1266.91 43.3142ZM1263.73 43.3142C1263.73 41.4397 1263.57 39.8681 1263.25 38.5994C1262.94 37.3192 1262.52 36.2905 1261.98 35.5133C1261.46 34.7361 1260.85 34.1817 1260.15 33.8503C1259.45 33.5074 1258.73 33.3359 1257.97 33.3359C1257.22 33.3359 1256.49 33.5074 1255.8 33.8503C1255.1 34.1817 1254.49 34.7361 1253.96 35.5133C1253.44 36.2905 1253.01 37.3192 1252.69 38.5994C1252.38 39.8681 1252.23 41.4397 1252.23 43.3142C1252.23 45.1887 1252.38 46.7603 1252.69 48.029C1253.01 49.2977 1253.44 50.3207 1253.96 51.0979C1254.49 51.8751 1255.1 52.4352 1255.8 52.7781C1256.49 53.1096 1257.22 53.2753 1257.97 53.2753C1258.73 53.2753 1259.45 53.1096 1260.15 52.7781C1260.85 52.4352 1261.46 51.8751 1261.98 51.0979C1262.52 50.3207 1262.94 49.2977 1263.25 48.029C1263.57 46.7603 1263.73 45.1887 1263.73 43.3142ZM1288.82 53.2582V55.5898H1275.65V53.2582H1280.92V36.5077C1280.92 36.0048 1280.93 35.4962 1280.97 34.9818L1276.59 38.7365C1276.45 38.8623 1276.3 38.9423 1276.15 38.9766C1276 38.9994 1275.86 38.9994 1275.74 38.9766C1275.61 38.9537 1275.49 38.908 1275.38 38.8394C1275.27 38.7708 1275.19 38.6965 1275.14 38.6165L1274.18 37.2964L1281.5 30.9699H1283.98V53.2582H1288.82ZM1313.54 43.3142C1313.54 45.463 1313.31 47.3261 1312.84 48.9034C1312.38 50.4693 1311.76 51.7666 1310.96 52.7952C1310.16 53.8239 1309.21 54.5897 1308.11 55.0926C1307.02 55.5956 1305.86 55.847 1304.61 55.847C1303.35 55.847 1302.18 55.5956 1301.1 55.0926C1300.02 54.5897 1299.09 53.8239 1298.29 52.7952C1297.49 51.7666 1296.86 50.4693 1296.4 48.9034C1295.94 47.3261 1295.71 45.463 1295.71 43.3142C1295.71 41.1654 1295.94 39.3023 1296.4 37.725C1296.86 36.1477 1297.49 34.8447 1298.29 33.816C1299.09 32.7759 1300.02 32.0043 1301.1 31.5014C1302.18 30.9985 1303.35 30.7471 1304.61 30.7471C1305.86 30.7471 1307.02 30.9985 1308.11 31.5014C1309.21 32.0043 1310.16 32.7759 1310.96 33.816C1311.76 34.8447 1312.38 36.1477 1312.84 37.725C1313.31 39.3023 1313.54 41.1654 1313.54 43.3142ZM1310.37 43.3142C1310.37 41.4397 1310.21 39.8681 1309.89 38.5994C1309.58 37.3192 1309.16 36.2905 1308.62 35.5133C1308.1 34.7361 1307.49 34.1817 1306.79 33.8503C1306.09 33.5074 1305.37 33.3359 1304.61 33.3359C1303.86 33.3359 1303.13 33.5074 1302.43 33.8503C1301.74 34.1817 1301.13 34.7361 1300.6 35.5133C1300.07 36.2905 1299.65 37.3192 1299.33 38.5994C1299.02 39.8681 1298.87 41.4397 1298.87 43.3142C1298.87 45.1887 1299.02 46.7603 1299.33 48.029C1299.65 49.2977 1300.07 50.3207 1300.6 51.0979C1301.13 51.8751 1301.74 52.4352 1302.43 52.7781C1303.13 53.1096 1303.86 53.2753 1304.61 53.2753C1305.37 53.2753 1306.09 53.1096 1306.79 52.7781C1307.49 52.4352 1308.1 51.8751 1308.62 51.0979C1309.16 50.3207 1309.58 49.2977 1309.89 48.029C1310.21 46.7603 1310.37 45.1887 1310.37 43.3142ZM1336.86 43.3142C1336.86 45.463 1336.63 47.3261 1336.16 48.9034C1335.7 50.4693 1335.08 51.7666 1334.28 52.7952C1333.48 53.8239 1332.53 54.5897 1331.43 55.0926C1330.34 55.5956 1329.18 55.847 1327.93 55.847C1326.67 55.847 1325.5 55.5956 1324.42 55.0926C1323.34 54.5897 1322.41 53.8239 1321.61 52.7952C1320.81 51.7666 1320.18 50.4693 1319.72 48.9034C1319.26 47.3261 1319.03 45.463 1319.03 43.3142C1319.03 41.1654 1319.26 39.3023 1319.72 37.725C1320.18 36.1477 1320.81 34.8447 1321.61 33.816C1322.41 32.7759 1323.34 32.0043 1324.42 31.5014C1325.5 30.9985 1326.67 30.7471 1327.93 30.7471C1329.18 30.7471 1330.34 30.9985 1331.43 31.5014C1332.53 32.0043 1333.48 32.7759 1334.28 33.816C1335.08 34.8447 1335.7 36.1477 1336.16 37.725C1336.63 39.3023 1336.86 41.1654 1336.86 43.3142ZM1333.69 43.3142C1333.69 41.4397 1333.53 39.8681 1333.21 38.5994C1332.9 37.3192 1332.48 36.2905 1331.94 35.5133C1331.42 34.7361 1330.81 34.1817 1330.11 33.8503C1329.41 33.5074 1328.69 33.3359 1327.93 33.3359C1327.18 33.3359 1326.45 33.5074 1325.75 33.8503C1325.06 34.1817 1324.45 34.7361 1323.92 35.5133C1323.39 36.2905 1322.97 37.3192 1322.65 38.5994C1322.34 39.8681 1322.19 41.4397 1322.19 43.3142C1322.19 45.1887 1322.34 46.7603 1322.65 48.029C1322.97 49.2977 1323.39 50.3207 1323.92 51.0979C1324.45 51.8751 1325.06 52.4352 1325.75 52.7781C1326.45 53.1096 1327.18 53.2753 1327.93 53.2753C1328.69 53.2753 1329.41 53.1096 1330.11 52.7781C1330.81 52.4352 1331.42 51.8751 1331.94 51.0979C1332.48 50.3207 1332.9 49.2977 1333.21 48.029C1333.53 46.7603 1333.69 45.1887 1333.69 43.3142ZM1360.18 43.3142C1360.18 45.463 1359.95 47.3261 1359.48 48.9034C1359.02 50.4693 1358.39 51.7666 1357.59 52.7952C1356.79 53.8239 1355.85 54.5897 1354.75 55.0926C1353.66 55.5956 1352.5 55.847 1351.25 55.847C1349.99 55.847 1348.82 55.5956 1347.74 55.0926C1346.66 54.5897 1345.72 53.8239 1344.92 52.7952C1344.12 51.7666 1343.5 50.4693 1343.04 48.9034C1342.58 47.3261 1342.35 45.463 1342.35 43.3142C1342.35 41.1654 1342.58 39.3023 1343.04 37.725C1343.5 36.1477 1344.12 34.8447 1344.92 33.816C1345.72 32.7759 1346.66 32.0043 1347.74 31.5014C1348.82 30.9985 1349.99 30.7471 1351.25 30.7471C1352.5 30.7471 1353.66 30.9985 1354.75 31.5014C1355.85 32.0043 1356.79 32.7759 1357.59 33.816C1358.39 34.8447 1359.02 36.1477 1359.48 37.725C1359.95 39.3023 1360.18 41.1654 1360.18 43.3142ZM1357.01 43.3142C1357.01 41.4397 1356.85 39.8681 1356.53 38.5994C1356.22 37.3192 1355.8 36.2905 1355.26 35.5133C1354.74 34.7361 1354.13 34.1817 1353.43 33.8503C1352.73 33.5074 1352.01 33.3359 1351.25 33.3359C1350.5 33.3359 1349.77 33.5074 1349.07 33.8503C1348.38 34.1817 1347.77 34.7361 1347.24 35.5133C1346.71 36.2905 1346.29 37.3192 1345.97 38.5994C1345.66 39.8681 1345.51 41.4397 1345.51 43.3142C1345.51 45.1887 1345.66 46.7603 1345.97 48.029C1346.29 49.2977 1346.71 50.3207 1347.24 51.0979C1347.77 51.8751 1348.38 52.4352 1349.07 52.7781C1349.77 53.1096 1350.5 53.2753 1351.25 53.2753C1352.01 53.2753 1352.73 53.1096 1353.43 52.7781C1354.13 52.4352 1354.74 51.8751 1355.26 51.0979C1355.8 50.3207 1356.22 49.2977 1356.53 48.029C1356.85 46.7603 1357.01 45.1887 1357.01 43.3142Z" fill="url(#paint9_linear_55_425)" fill-opacity="0.35"/>
</g>
</g>
<defs>
<filter id="filter0_dd_55_425" x="0.647589" y="22.5829" width="243.016" height="41.4285" filterUnits="userSpaceOnUse" color-interpolation-filters="sRGB">
<feFlood flood-opacity="0" result="BackgroundImageFix"/>
<feColorMatrix in="SourceAlpha" type="matrix" values="0 0 0 0 0 0 0 0 0 0 0 0 0 0 0 0 0 0 127 0" result="hardAlpha"/>
<feOffset/>
<feGaussianBlur stdDeviation="4.08209"/>
<feComposite in2="hardAlpha" operator="out"/>
<feColorMatrix type="matrix" values="0 0 0 0 1 0 0 0 0 0.675343 0 0 0 0 0.5375 0 0 0 1 0"/>
<feBlend mode="normal" in2="BackgroundImageFix" result="effect1_dropShadow_55_425"/>
<feColorMatrix in="SourceAlpha" type="matrix" values="0 0 0 0 0 0 0 0 0 0 0 0 0 0 0 0 0 0 127 0" result="hardAlpha"/>
<feOffset/>
<feGaussianBlur stdDeviation="2.85746"/>
<feComposite in2="hardAlpha" operator="out"/>
<feColorMatrix type="matrix" values="0 0 0 0 1 0 0 0 0 0.298039 0 0 0 0 0 0 0 0 1 0"/>
<feBlend mode="normal" in2="effect1_dropShadow_55_425" result="effect2_dropShadow_55_425"/>
<feBlend mode="normal" in="SourceGraphic" in2="effect2_dropShadow_55_425" result="shape"/>
</filter>
<filter id="filter1_ddf_55_425" x="193.812" y="0.157227" width="248.094" height="45.1001" filterUnits="userSpaceOnUse" color-interpolation-filters="sRGB">
<feFlood flood-opacity="0" result="BackgroundImageFix"/>
<feColorMatrix in="SourceAlpha" type="matrix" values="0 0 0 0 0 0 0 0 0 0 0 0 0 0 0 0 0 0 127 0" result="hardAlpha"/>
<feOffset/>
<feGaussianBlur stdDeviation="4.08209"/>
<feComposite in2="hardAlpha" operator="out"/>
<feColorMatrix type="matrix" values="0 0 0 0 1 0 0 0 0 0.675343 0 0 0 0 0.5375 0 0 0 1 0"/>
<feBlend mode="normal" in2="BackgroundImageFix" result="effect1_dropShadow_55_425"/>
<feColorMatrix in="SourceAlpha" type="matrix" values="0 0 0 0 0 0 0 0 0 0 0 0 0 0 0 0 0 0 127 0" result="hardAlpha"/>
<feOffset/>
<feGaussianBlur stdDeviation="2.85746"/>
<feComposite in2="hardAlpha" operator="out"/>
<feColorMatrix type="matrix" values="0 0 0 0 1 0 0 0 0 0.298039 0 0 0 0 0 0 0 0 1 0"/>
<feBlend mode="normal" in2="effect1_dropShadow_55_425" result="effect2_dropShadow_55_425"/>
<feBlend mode="normal" in="SourceGraphic" in2="effect2_dropShadow_55_425" result="shape"/>
<feGaussianBlur stdDeviation="5" result="effect3_foregroundBlur_55_425"/>
</filter>
<filter id="filter2_dd_55_425" x="666.694" y="22.5824" width="255.916" height="41.4285" filterUnits="userSpaceOnUse" color-interpolation-filters="sRGB">
<feFlood flood-opacity="0" result="BackgroundImageFix"/>
<feColorMatrix in="SourceAlpha" type="matrix" values="0 0 0 0 0 0 0 0 0 0 0 0 0 0 0 0 0 0 127 0" result="hardAlpha"/>
<feOffset/>
<feGaussianBlur stdDeviation="4.08209"/>
<feComposite in2="hardAlpha" operator="out"/>
<feColorMatrix type="matrix" values="0 0 0 0 1 0 0 0 0 0.675343 0 0 0 0 0.5375 0 0 0 1 0"/>
<feBlend mode="normal" in2="BackgroundImageFix" result="effect1_dropShadow_55_425"/>
<feColorMatrix in="SourceAlpha" type="matrix" values="0 0 0 0 0 0 0 0 0 0 0 0 0 0 0 0 0 0 127 0" result="hardAlpha"/>
<feOffset/>
<feGaussianBlur stdDeviation="2.85746"/>
<feComposite in2="hardAlpha" operator="out"/>
<feColorMatrix type="matrix" values="0 0 0 0 1 0 0 0 0 0.298039 0 0 0 0 0 0 0 0 1 0"/>
<feBlend mode="normal" in2="effect1_dropShadow_55_425" result="effect2_dropShadow_55_425"/>
<feBlend mode="normal" in="SourceGraphic" in2="effect2_dropShadow_55_425" result="shape"/>
</filter>
<filter id="filter3_dd_55_425" x="508.415" y="22.5824" width="89.8115" height="41.4285" filterUnits="userSpaceOnUse" color-interpolation-filters="sRGB">
<feFlood flood-opacity="0" result="BackgroundImageFix"/>
<feColorMatrix in="SourceAlpha" type="matrix" values="0 0 0 0 0 0 0 0 0 0 0 0 0 0 0 0 0 0 127 0" result="hardAlpha"/>
<feOffset/>
<feGaussianBlur stdDeviation="4.08209"/>
<feComposite in2="hardAlpha" operator="out"/>
<feColorMatrix type="matrix" values="0 0 0 0 1 0 0 0 0 0.675343 0 0 0 0 0.5375 0 0 0 1 0"/>
<feBlend mode="normal" in2="BackgroundImageFix" result="effect1_dropShadow_55_425"/>
<feColorMatrix in="SourceAlpha" type="matrix" values="0 0 0 0 0 0 0 0 0 0 0 0 0 0 0 0 0 0 127 0" result="hardAlpha"/>
<feOffset/>
<feGaussianBlur stdDeviation="2.85746"/>
<feComposite in2="hardAlpha" operator="out"/>
<feColorMatrix type="matrix" values="0 0 0 0 1 0 0 0 0 0.298039 0 0 0 0 0 0 0 0 1 0"/>
<feBlend mode="normal" in2="effect1_dropShadow_55_425" result="effect2_dropShadow_55_425"/>
<feBlend mode="normal" in="SourceGraphic" in2="effect2_dropShadow_55_425" result="shape"/>
</filter>
<filter id="filter4_dd_55_425" x="1030.65" y="22.5829" width="337.7" height="41.4285" filterUnits="userSpaceOnUse" color-interpolation-filters="sRGB">
<feFlood flood-opacity="0" result="BackgroundImageFix"/>
<feColorMatrix in="SourceAlpha" type="matrix" values="0 0 0 0 0 0 0 0 0 0 0 0 0 0 0 0 0 0 127 0" result="hardAlpha"/>
<feOffset/>
<feGaussianBlur stdDeviation="4.08209"/>
<feComposite in2="hardAlpha" operator="out"/>
<feColorMatrix type="matrix" values="0 0 0 0 1 0 0 0 0 0.675343 0 0 0 0 0.5375 0 0 0 1 0"/>
<feBlend mode="normal" in2="BackgroundImageFix" result="effect1_dropShadow_55_425"/>
<feColorMatrix in="SourceAlpha" type="matrix" values="0 0 0 0 0 0 0 0 0 0 0 0 0 0 0 0 0 0 127 0" result="hardAlpha"/>
<feOffset/>
<feGaussianBlur stdDeviation="2.85746"/>
<feComposite in2="hardAlpha" operator="out"/>
<feColorMatrix type="matrix" values="0 0 0 0 1 0 0 0 0 0.298039 0 0 0 0 0 0 0 0 1 0"/>
<feBlend mode="normal" in2="effect1_dropShadow_55_425" result="effect2_dropShadow_55_425"/>
<feBlend mode="normal" in="SourceGraphic" in2="effect2_dropShadow_55_425" result="shape"/>
</filter>
<linearGradient id="paint0_linear_55_425" x1="124" y1="21.5898" x2="124" y2="62.5898" gradientUnits="userSpaceOnUse">
<stop stop-color="#FF4C00"/>
<stop offset="0.5" stop-color="#FF8B59"/>
<stop offset="1" stop-color="#FF4C00"/>
</linearGradient>
<linearGradient id="paint1_linear_55_425" x1="14.9827" y1="62.5898" x2="68.3463" y2="-35.2598" gradientUnits="userSpaceOnUse">
<stop/>
<stop offset="1" stop-opacity="0"/>
</linearGradient>
<linearGradient id="paint2_linear_55_425" x1="317" y1="1" x2="317" y2="42" gradientUnits="userSpaceOnUse">
<stop stop-color="#FF4C00"/>
<stop offset="0.5" stop-color="#FF8B59"/>
<stop offset="1" stop-color="#FF4C00"/>
</linearGradient>
<linearGradient id="paint3_linear_55_425" x1="209.83" y1="42" x2="263.685" y2="-55.0757" gradientUnits="userSpaceOnUse">
<stop/>
<stop offset="1" stop-opacity="0"/>
</linearGradient>
<linearGradient id="paint4_linear_55_425" x1="797.33" y1="21.5894" x2="797.33" y2="62.5894" gradientUnits="userSpaceOnUse">
<stop stop-color="#FF4C00"/>
<stop offset="0.5" stop-color="#FF8B59"/>
<stop offset="1" stop-color="#FF4C00"/>
</linearGradient>
<linearGradient id="paint5_linear_55_425" x1="683.231" y1="62.5894" x2="735.257" y2="-37.2535" gradientUnits="userSpaceOnUse">
<stop/>
<stop offset="1" stop-opacity="0"/>
</linearGradient>
<linearGradient id="paint6_linear_55_425" x1="547.066" y1="21.5894" x2="547.066" y2="62.5894" gradientUnits="userSpaceOnUse">
<stop stop-color="#FF4C00"/>
<stop offset="0.5" stop-color="#FF8B59"/>
<stop offset="1" stop-color="#FF4C00"/>
</linearGradient>
<linearGradient id="paint7_linear_55_425" x1="505.029" y1="62.5894" x2="564.873" y2="20.2773" gradientUnits="userSpaceOnUse">
<stop/>
<stop offset="1" stop-opacity="0"/>
</linearGradient>
<linearGradient id="paint8_linear_55_425" x1="1200.5" y1="21.5898" x2="1200.5" y2="62.5898" gradientUnits="userSpaceOnUse">
<stop stop-color="#FF4C00"/>
<stop offset="0.5" stop-color="#FF8B59"/>
<stop offset="1" stop-color="#FF4C00"/>
</linearGradient>
<linearGradient id="paint9_linear_55_425" x1="1048.52" y1="62.5898" x2="1091.59" y2="-47.5124" gradientUnits="userSpaceOnUse">
<stop/>
<stop offset="1" stop-opacity="0"/>
</linearGradient>
</defs>
</svg>
