<svg width="360" height="33" viewBox="0 0 360 33" fill="none" xmlns="http://www.w3.org/2000/svg">
<g opacity="0.6">
<g filter="url(#filter0_dd_74_845)">
<path d="M-13.1513 27.2563V28.4385H-19.8269V27.2563H-17.1584V18.764C-17.1584 18.509 -17.1497 18.2512 -17.1323 17.9904L-19.3489 19.894C-19.4242 19.9578 -19.4995 19.9983 -19.5749 20.0157C-19.6502 20.0273 -19.7197 20.0273 -19.7835 20.0157C-19.8472 20.0041 -19.9081 19.9809 -19.966 19.9462C-20.0182 19.9114 -20.0587 19.8737 -20.0877 19.8332L-20.5745 19.1639L-16.8629 15.9564H-15.6025V27.2563H-13.1513ZM5.57069 22.2148C5.57069 23.3043 5.45189 24.2488 5.21431 25.0485C4.98251 25.8424 4.6638 26.5001 4.25816 27.0216C3.85252 27.5432 3.37155 27.9314 2.81525 28.1864C2.26474 28.4414 1.67367 28.5689 1.04203 28.5689C0.404602 28.5689 -0.189367 28.4414 -0.739876 28.1864C-1.28459 27.9314 -1.75976 27.5432 -2.1654 27.0216C-2.57104 26.5001 -2.88976 25.8424 -3.12155 25.0485C-3.35334 24.2488 -3.46924 23.3043 -3.46924 22.2148C-3.46924 21.1254 -3.35334 20.1809 -3.12155 19.3812C-2.88976 18.5815 -2.57104 17.9209 -2.1654 17.3993C-1.75976 16.872 -1.28459 16.4809 -0.739876 16.2259C-0.189367 15.9709 0.404602 15.8434 1.04203 15.8434C1.67367 15.8434 2.26474 15.9709 2.81525 16.2259C3.37155 16.4809 3.85252 16.872 4.25816 17.3993C4.6638 17.9209 4.98251 18.5815 5.21431 19.3812C5.45189 20.1809 5.57069 21.1254 5.57069 22.2148ZM3.96262 22.2148C3.96262 21.2645 3.8815 20.4677 3.71924 19.8245C3.56278 19.1754 3.34837 18.6539 3.07602 18.2599C2.80945 17.8658 2.49943 17.5848 2.14595 17.4167C1.79246 17.2429 1.42449 17.156 1.04203 17.156C0.659575 17.156 0.291603 17.2429 -0.061881 17.4167C-0.415365 17.5848 -0.725388 17.8658 -0.99195 18.2599C-1.25851 18.6539 -1.47292 19.1754 -1.63518 19.8245C-1.79164 20.4677 -1.86987 21.2645 -1.86987 22.2148C-1.86987 23.1652 -1.79164 23.962 -1.63518 24.6052C-1.47292 25.2484 -1.25851 25.7671 -0.99195 26.1611C-0.725388 26.5552 -0.415365 26.8391 -0.061881 27.0129C0.291603 27.181 0.659575 27.265 1.04203 27.265C1.42449 27.265 1.79246 27.181 2.14595 27.0129C2.49943 26.8391 2.80945 26.5552 3.07602 26.1611C3.34837 25.7671 3.56278 25.2484 3.71924 24.6052C3.8815 23.962 3.96262 23.1652 3.96262 22.2148ZM22.8672 27.2563V28.4385H16.1915V27.2563H18.86V18.764C18.86 18.509 18.8687 18.2512 18.8861 17.9904L16.6696 19.894C16.5943 19.9578 16.5189 19.9983 16.4436 20.0157C16.3683 20.0273 16.2987 20.0273 16.235 20.0157C16.1712 20.0041 16.1104 19.9809 16.0524 19.9462C16.0003 19.9114 15.9597 19.8737 15.9307 19.8332L15.444 19.1639L19.1556 15.9564H20.4159V27.2563H22.8672ZM41.5891 22.2148C41.5891 23.3043 41.4704 24.2488 41.2328 25.0485C41.001 25.8424 40.6823 26.5001 40.2766 27.0216C39.871 27.5432 39.39 27.9314 38.8337 28.1864C38.2832 28.4414 37.6921 28.5689 37.0605 28.5689C36.4231 28.5689 35.8291 28.4414 35.2786 28.1864C34.7339 27.9314 34.2587 27.5432 33.8531 27.0216C33.4474 26.5001 33.1287 25.8424 32.8969 25.0485C32.6651 24.2488 32.5492 23.3043 32.5492 22.2148C32.5492 21.1254 32.6651 20.1809 32.8969 19.3812C33.1287 18.5815 33.4474 17.9209 33.8531 17.3993C34.2587 16.872 34.7339 16.4809 35.2786 16.2259C35.8291 15.9709 36.4231 15.8434 37.0605 15.8434C37.6921 15.8434 38.2832 15.9709 38.8337 16.2259C39.39 16.4809 39.871 16.872 40.2766 17.3993C40.6823 17.9209 41.001 18.5815 41.2328 19.3812C41.4704 20.1809 41.5891 21.1254 41.5891 22.2148ZM39.9811 22.2148C39.9811 21.2645 39.9 20.4677 39.7377 19.8245C39.5812 19.1754 39.3668 18.6539 39.0945 18.2599C38.8279 17.8658 38.5179 17.5848 38.1644 17.4167C37.8109 17.2429 37.4429 17.156 37.0605 17.156C36.678 17.156 36.3101 17.2429 35.9566 17.4167C35.6031 17.5848 35.2931 17.8658 35.0265 18.2599C34.7599 18.6539 34.5455 19.1754 34.3833 19.8245C34.2268 20.4677 34.1486 21.2645 34.1486 22.2148C34.1486 23.1652 34.2268 23.962 34.3833 24.6052C34.5455 25.2484 34.7599 25.7671 35.0265 26.1611C35.2931 26.5552 35.6031 26.8391 35.9566 27.0129C36.3101 27.181 36.678 27.265 37.0605 27.265C37.4429 27.265 37.8109 27.181 38.1644 27.0129C38.5179 26.8391 38.8279 26.5552 39.0945 26.1611C39.3668 25.7671 39.5812 25.2484 39.7377 24.6052C39.9 23.962 39.9811 23.1652 39.9811 22.2148ZM53.4119 22.2148C53.4119 23.3043 53.2932 24.2488 53.0556 25.0485C52.8238 25.8424 52.5051 26.5001 52.0994 27.0216C51.6938 27.5432 51.2128 27.9314 50.6565 28.1864C50.106 28.4414 49.5149 28.5689 48.8833 28.5689C48.2459 28.5689 47.6519 28.4414 47.1014 28.1864C46.5567 27.9314 46.0815 27.5432 45.6759 27.0216C45.2702 26.5001 44.9515 25.8424 44.7197 25.0485C44.4879 24.2488 44.372 23.3043 44.372 22.2148C44.372 21.1254 44.4879 20.1809 44.7197 19.3812C44.9515 18.5815 45.2702 17.9209 45.6759 17.3993C46.0815 16.872 46.5567 16.4809 47.1014 16.2259C47.6519 15.9709 48.2459 15.8434 48.8833 15.8434C49.5149 15.8434 50.106 15.9709 50.6565 16.2259C51.2128 16.4809 51.6938 16.872 52.0994 17.3993C52.5051 17.9209 52.8238 18.5815 53.0556 19.3812C53.2932 20.1809 53.4119 21.1254 53.4119 22.2148ZM51.8039 22.2148C51.8039 21.2645 51.7228 20.4677 51.5605 19.8245C51.404 19.1754 51.1896 18.6539 50.9173 18.2599C50.6507 17.8658 50.3407 17.5848 49.9872 17.4167C49.6337 17.2429 49.2658 17.156 48.8833 17.156C48.5008 17.156 48.1329 17.2429 47.7794 17.4167C47.4259 17.5848 47.1159 17.8658 46.8493 18.2599C46.5827 18.6539 46.3683 19.1754 46.2061 19.8245C46.0496 20.4677 45.9714 21.2645 45.9714 22.2148C45.9714 23.1652 46.0496 23.962 46.2061 24.6052C46.3683 25.2484 46.5827 25.7671 46.8493 26.1611C47.1159 26.5552 47.4259 26.8391 47.7794 27.0129C48.1329 27.181 48.5008 27.265 48.8833 27.265C49.2658 27.265 49.6337 27.181 49.9872 27.0129C50.3407 26.8391 50.6507 26.5552 50.9173 26.1611C51.1896 25.7671 51.404 25.2484 51.5605 24.6052C51.7228 23.962 51.8039 23.1652 51.8039 22.2148ZM71.4212 22.2148C71.4212 23.3043 71.3024 24.2488 71.0648 25.0485C70.833 25.8424 70.5143 26.5001 70.1086 27.0216C69.703 27.5432 69.222 27.9314 68.6657 28.1864C68.1152 28.4414 67.5242 28.5689 66.8925 28.5689C66.2551 28.5689 65.6611 28.4414 65.1106 28.1864C64.5659 27.9314 64.0907 27.5432 63.6851 27.0216C63.2794 26.5001 62.9607 25.8424 62.7289 25.0485C62.4971 24.2488 62.3812 23.3043 62.3812 22.2148C62.3812 21.1254 62.4971 20.1809 62.7289 19.3812C62.9607 18.5815 63.2794 17.9209 63.6851 17.3993C64.0907 16.872 64.5659 16.4809 65.1106 16.2259C65.6611 15.9709 66.2551 15.8434 66.8925 15.8434C67.5242 15.8434 68.1152 15.9709 68.6657 16.2259C69.222 16.4809 69.703 16.872 70.1086 17.3993C70.5143 17.9209 70.833 18.5815 71.0648 19.3812C71.3024 20.1809 71.4212 21.1254 71.4212 22.2148ZM69.8131 22.2148C69.8131 21.2645 69.732 20.4677 69.5697 19.8245C69.4133 19.1754 69.1989 18.6539 68.9265 18.2599C68.6599 17.8658 68.3499 17.5848 67.9964 17.4167C67.6429 17.2429 67.275 17.156 66.8925 17.156C66.5101 17.156 66.1421 17.2429 65.7886 17.4167C65.4351 17.5848 65.1251 17.8658 64.8585 18.2599C64.592 18.6539 64.3776 19.1754 64.2153 19.8245C64.0588 20.4677 63.9806 21.2645 63.9806 22.2148C63.9806 23.1652 64.0588 23.962 64.2153 24.6052C64.3776 25.2484 64.592 25.7671 64.8585 26.1611C65.1251 26.5552 65.4351 26.8391 65.7886 27.0129C66.1421 27.181 66.5101 27.265 66.8925 27.265C67.275 27.265 67.6429 27.181 67.9964 27.0129C68.3499 26.8391 68.6599 26.5552 68.9265 26.1611C69.1989 25.7671 69.4133 25.2484 69.5697 24.6052C69.732 23.962 69.8131 23.1652 69.8131 22.2148ZM82.5312 27.2563V28.4385H75.8556V27.2563H78.5241V18.764C78.5241 18.509 78.5328 18.2512 78.5502 17.9904L76.3336 19.894C76.2583 19.9578 76.183 19.9983 76.1076 20.0157C76.0323 20.0273 75.9628 20.0273 75.899 20.0157C75.8353 20.0041 75.7744 19.9809 75.7165 19.9462C75.6643 19.9114 75.6238 19.8737 75.5948 19.8332L75.108 19.1639L78.8196 15.9564H80.08V27.2563H82.5312ZM94.354 27.2563V28.4385H87.6784V27.2563H90.3469V18.764C90.3469 18.509 90.3556 18.2512 90.373 17.9904L88.1564 19.894C88.0811 19.9578 88.0058 19.9983 87.9304 20.0157C87.8551 20.0273 87.7856 20.0273 87.7218 20.0157C87.6581 20.0041 87.5972 19.9809 87.5393 19.9462C87.4871 19.9114 87.4466 19.8737 87.4176 19.8332L86.9308 19.1639L90.6424 15.9564H91.9028V27.2563H94.354Z" fill="url(#paint0_linear_74_845)"/>
<path d="M-13.1513 27.2563V28.4385H-19.8269V27.2563H-17.1584V18.764C-17.1584 18.509 -17.1497 18.2512 -17.1323 17.9904L-19.3489 19.894C-19.4242 19.9578 -19.4995 19.9983 -19.5749 20.0157C-19.6502 20.0273 -19.7197 20.0273 -19.7835 20.0157C-19.8472 20.0041 -19.9081 19.9809 -19.966 19.9462C-20.0182 19.9114 -20.0587 19.8737 -20.0877 19.8332L-20.5745 19.1639L-16.8629 15.9564H-15.6025V27.2563H-13.1513ZM5.57069 22.2148C5.57069 23.3043 5.45189 24.2488 5.21431 25.0485C4.98251 25.8424 4.6638 26.5001 4.25816 27.0216C3.85252 27.5432 3.37155 27.9314 2.81525 28.1864C2.26474 28.4414 1.67367 28.5689 1.04203 28.5689C0.404602 28.5689 -0.189367 28.4414 -0.739876 28.1864C-1.28459 27.9314 -1.75976 27.5432 -2.1654 27.0216C-2.57104 26.5001 -2.88976 25.8424 -3.12155 25.0485C-3.35334 24.2488 -3.46924 23.3043 -3.46924 22.2148C-3.46924 21.1254 -3.35334 20.1809 -3.12155 19.3812C-2.88976 18.5815 -2.57104 17.9209 -2.1654 17.3993C-1.75976 16.872 -1.28459 16.4809 -0.739876 16.2259C-0.189367 15.9709 0.404602 15.8434 1.04203 15.8434C1.67367 15.8434 2.26474 15.9709 2.81525 16.2259C3.37155 16.4809 3.85252 16.872 4.25816 17.3993C4.6638 17.9209 4.98251 18.5815 5.21431 19.3812C5.45189 20.1809 5.57069 21.1254 5.57069 22.2148ZM3.96262 22.2148C3.96262 21.2645 3.8815 20.4677 3.71924 19.8245C3.56278 19.1754 3.34837 18.6539 3.07602 18.2599C2.80945 17.8658 2.49943 17.5848 2.14595 17.4167C1.79246 17.2429 1.42449 17.156 1.04203 17.156C0.659575 17.156 0.291603 17.2429 -0.061881 17.4167C-0.415365 17.5848 -0.725388 17.8658 -0.99195 18.2599C-1.25851 18.6539 -1.47292 19.1754 -1.63518 19.8245C-1.79164 20.4677 -1.86987 21.2645 -1.86987 22.2148C-1.86987 23.1652 -1.79164 23.962 -1.63518 24.6052C-1.47292 25.2484 -1.25851 25.7671 -0.99195 26.1611C-0.725388 26.5552 -0.415365 26.8391 -0.061881 27.0129C0.291603 27.181 0.659575 27.265 1.04203 27.265C1.42449 27.265 1.79246 27.181 2.14595 27.0129C2.49943 26.8391 2.80945 26.5552 3.07602 26.1611C3.34837 25.7671 3.56278 25.2484 3.71924 24.6052C3.8815 23.962 3.96262 23.1652 3.96262 22.2148ZM22.8672 27.2563V28.4385H16.1915V27.2563H18.86V18.764C18.86 18.509 18.8687 18.2512 18.8861 17.9904L16.6696 19.894C16.5943 19.9578 16.5189 19.9983 16.4436 20.0157C16.3683 20.0273 16.2987 20.0273 16.235 20.0157C16.1712 20.0041 16.1104 19.9809 16.0524 19.9462C16.0003 19.9114 15.9597 19.8737 15.9307 19.8332L15.444 19.1639L19.1556 15.9564H20.4159V27.2563H22.8672ZM41.5891 22.2148C41.5891 23.3043 41.4704 24.2488 41.2328 25.0485C41.001 25.8424 40.6823 26.5001 40.2766 27.0216C39.871 27.5432 39.39 27.9314 38.8337 28.1864C38.2832 28.4414 37.6921 28.5689 37.0605 28.5689C36.4231 28.5689 35.8291 28.4414 35.2786 28.1864C34.7339 27.9314 34.2587 27.5432 33.8531 27.0216C33.4474 26.5001 33.1287 25.8424 32.8969 25.0485C32.6651 24.2488 32.5492 23.3043 32.5492 22.2148C32.5492 21.1254 32.6651 20.1809 32.8969 19.3812C33.1287 18.5815 33.4474 17.9209 33.8531 17.3993C34.2587 16.872 34.7339 16.4809 35.2786 16.2259C35.8291 15.9709 36.4231 15.8434 37.0605 15.8434C37.6921 15.8434 38.2832 15.9709 38.8337 16.2259C39.39 16.4809 39.871 16.872 40.2766 17.3993C40.6823 17.9209 41.001 18.5815 41.2328 19.3812C41.4704 20.1809 41.5891 21.1254 41.5891 22.2148ZM39.9811 22.2148C39.9811 21.2645 39.9 20.4677 39.7377 19.8245C39.5812 19.1754 39.3668 18.6539 39.0945 18.2599C38.8279 17.8658 38.5179 17.5848 38.1644 17.4167C37.8109 17.2429 37.4429 17.156 37.0605 17.156C36.678 17.156 36.3101 17.2429 35.9566 17.4167C35.6031 17.5848 35.2931 17.8658 35.0265 18.2599C34.7599 18.6539 34.5455 19.1754 34.3833 19.8245C34.2268 20.4677 34.1486 21.2645 34.1486 22.2148C34.1486 23.1652 34.2268 23.962 34.3833 24.6052C34.5455 25.2484 34.7599 25.7671 35.0265 26.1611C35.2931 26.5552 35.6031 26.8391 35.9566 27.0129C36.3101 27.181 36.678 27.265 37.0605 27.265C37.4429 27.265 37.8109 27.181 38.1644 27.0129C38.5179 26.8391 38.8279 26.5552 39.0945 26.1611C39.3668 25.7671 39.5812 25.2484 39.7377 24.6052C39.9 23.962 39.9811 23.1652 39.9811 22.2148ZM53.4119 22.2148C53.4119 23.3043 53.2932 24.2488 53.0556 25.0485C52.8238 25.8424 52.5051 26.5001 52.0994 27.0216C51.6938 27.5432 51.2128 27.9314 50.6565 28.1864C50.106 28.4414 49.5149 28.5689 48.8833 28.5689C48.2459 28.5689 47.6519 28.4414 47.1014 28.1864C46.5567 27.9314 46.0815 27.5432 45.6759 27.0216C45.2702 26.5001 44.9515 25.8424 44.7197 25.0485C44.4879 24.2488 44.372 23.3043 44.372 22.2148C44.372 21.1254 44.4879 20.1809 44.7197 19.3812C44.9515 18.5815 45.2702 17.9209 45.6759 17.3993C46.0815 16.872 46.5567 16.4809 47.1014 16.2259C47.6519 15.9709 48.2459 15.8434 48.8833 15.8434C49.5149 15.8434 50.106 15.9709 50.6565 16.2259C51.2128 16.4809 51.6938 16.872 52.0994 17.3993C52.5051 17.9209 52.8238 18.5815 53.0556 19.3812C53.2932 20.1809 53.4119 21.1254 53.4119 22.2148ZM51.8039 22.2148C51.8039 21.2645 51.7228 20.4677 51.5605 19.8245C51.404 19.1754 51.1896 18.6539 50.9173 18.2599C50.6507 17.8658 50.3407 17.5848 49.9872 17.4167C49.6337 17.2429 49.2658 17.156 48.8833 17.156C48.5008 17.156 48.1329 17.2429 47.7794 17.4167C47.4259 17.5848 47.1159 17.8658 46.8493 18.2599C46.5827 18.6539 46.3683 19.1754 46.2061 19.8245C46.0496 20.4677 45.9714 21.2645 45.9714 22.2148C45.9714 23.1652 46.0496 23.962 46.2061 24.6052C46.3683 25.2484 46.5827 25.7671 46.8493 26.1611C47.1159 26.5552 47.4259 26.8391 47.7794 27.0129C48.1329 27.181 48.5008 27.265 48.8833 27.265C49.2658 27.265 49.6337 27.181 49.9872 27.0129C50.3407 26.8391 50.6507 26.5552 50.9173 26.1611C51.1896 25.7671 51.404 25.2484 51.5605 24.6052C51.7228 23.962 51.8039 23.1652 51.8039 22.2148ZM71.4212 22.2148C71.4212 23.3043 71.3024 24.2488 71.0648 25.0485C70.833 25.8424 70.5143 26.5001 70.1086 27.0216C69.703 27.5432 69.222 27.9314 68.6657 28.1864C68.1152 28.4414 67.5242 28.5689 66.8925 28.5689C66.2551 28.5689 65.6611 28.4414 65.1106 28.1864C64.5659 27.9314 64.0907 27.5432 63.6851 27.0216C63.2794 26.5001 62.9607 25.8424 62.7289 25.0485C62.4971 24.2488 62.3812 23.3043 62.3812 22.2148C62.3812 21.1254 62.4971 20.1809 62.7289 19.3812C62.9607 18.5815 63.2794 17.9209 63.6851 17.3993C64.0907 16.872 64.5659 16.4809 65.1106 16.2259C65.6611 15.9709 66.2551 15.8434 66.8925 15.8434C67.5242 15.8434 68.1152 15.9709 68.6657 16.2259C69.222 16.4809 69.703 16.872 70.1086 17.3993C70.5143 17.9209 70.833 18.5815 71.0648 19.3812C71.3024 20.1809 71.4212 21.1254 71.4212 22.2148ZM69.8131 22.2148C69.8131 21.2645 69.732 20.4677 69.5697 19.8245C69.4133 19.1754 69.1989 18.6539 68.9265 18.2599C68.6599 17.8658 68.3499 17.5848 67.9964 17.4167C67.6429 17.2429 67.275 17.156 66.8925 17.156C66.5101 17.156 66.1421 17.2429 65.7886 17.4167C65.4351 17.5848 65.1251 17.8658 64.8585 18.2599C64.592 18.6539 64.3776 19.1754 64.2153 19.8245C64.0588 20.4677 63.9806 21.2645 63.9806 22.2148C63.9806 23.1652 64.0588 23.962 64.2153 24.6052C64.3776 25.2484 64.592 25.7671 64.8585 26.1611C65.1251 26.5552 65.4351 26.8391 65.7886 27.0129C66.1421 27.181 66.5101 27.265 66.8925 27.265C67.275 27.265 67.6429 27.181 67.9964 27.0129C68.3499 26.8391 68.6599 26.5552 68.9265 26.1611C69.1989 25.7671 69.4133 25.2484 69.5697 24.6052C69.732 23.962 69.8131 23.1652 69.8131 22.2148ZM82.5312 27.2563V28.4385H75.8556V27.2563H78.5241V18.764C78.5241 18.509 78.5328 18.2512 78.5502 17.9904L76.3336 19.894C76.2583 19.9578 76.183 19.9983 76.1076 20.0157C76.0323 20.0273 75.9628 20.0273 75.899 20.0157C75.8353 20.0041 75.7744 19.9809 75.7165 19.9462C75.6643 19.9114 75.6238 19.8737 75.5948 19.8332L75.108 19.1639L78.8196 15.9564H80.08V27.2563H82.5312ZM94.354 27.2563V28.4385H87.6784V27.2563H90.3469V18.764C90.3469 18.509 90.3556 18.2512 90.373 17.9904L88.1564 19.894C88.0811 19.9578 88.0058 19.9983 87.9304 20.0157C87.8551 20.0273 87.7856 20.0273 87.7218 20.0157C87.6581 20.0041 87.5972 19.9809 87.5393 19.9462C87.4871 19.9114 87.4466 19.8737 87.4176 19.8332L86.9308 19.1639L90.6424 15.9564H91.9028V27.2563H94.354Z" fill="url(#paint1_linear_74_845)" fill-opacity="0.35"/>
</g>
<g opacity="0.5" filter="url(#filter1_ddf_74_845)">
<path d="M85.712 16.8179V18H79.0363V16.8179H81.7049V8.32554C81.7049 8.07057 81.7135 7.8127 81.7309 7.55193L79.5144 9.45553C79.4391 9.51927 79.3637 9.55984 79.2884 9.57722C79.2131 9.58881 79.1435 9.58881 79.0798 9.57722C79.0161 9.56563 78.9552 9.54245 78.8973 9.50768C78.8451 9.47292 78.8045 9.43525 78.7756 9.39468L78.2888 8.72538L82.0004 5.51795H83.2608V16.8179H85.712ZM103.721 16.8179V18H97.0456V16.8179H99.7141V8.32554C99.7141 8.07057 99.7228 7.8127 99.7402 7.55193L97.5236 9.45553C97.4483 9.51927 97.373 9.55984 97.2976 9.57722C97.2223 9.58881 97.1528 9.58881 97.089 9.57722C97.0253 9.56563 96.9644 9.54245 96.9065 9.50768C96.8543 9.47292 96.8138 9.43525 96.7848 9.39468L96.298 8.72538L100.01 5.51795H101.27V16.8179H103.721ZM121.73 16.8179V18H115.055V16.8179H117.723V8.32554C117.723 8.07057 117.732 7.8127 117.749 7.55193L115.533 9.45553C115.458 9.51927 115.382 9.55984 115.307 9.57722C115.232 9.58881 115.162 9.58881 115.098 9.57722C115.035 9.56563 114.974 9.54245 114.916 9.50768C114.864 9.47292 114.823 9.43525 114.794 9.39468L114.307 8.72538L118.019 5.51795H119.279V16.8179H121.73ZM140.452 11.7764C140.452 12.8658 140.334 13.8103 140.096 14.61C139.864 15.4039 139.546 16.0616 139.14 16.5832C138.734 17.1047 138.253 17.493 137.697 17.7479C137.146 18.0029 136.555 18.1304 135.924 18.1304C135.286 18.1304 134.692 18.0029 134.142 17.7479C133.597 17.493 133.122 17.1047 132.716 16.5832C132.311 16.0616 131.992 15.4039 131.76 14.61C131.528 13.8103 131.412 12.8658 131.412 11.7764C131.412 10.6869 131.528 9.74237 131.76 8.94269C131.992 8.143 132.311 7.48239 132.716 6.96086C133.122 6.43353 133.597 6.04238 134.142 5.78741C134.692 5.53243 135.286 5.40495 135.924 5.40495C136.555 5.40495 137.146 5.53243 137.697 5.78741C138.253 6.04238 138.734 6.43353 139.14 6.96086C139.546 7.48239 139.864 8.143 140.096 8.94269C140.334 9.74237 140.452 10.6869 140.452 11.7764ZM138.844 11.7764C138.844 10.826 138.763 10.0292 138.601 9.38599C138.445 8.73697 138.23 8.21544 137.958 7.82139C137.691 7.42734 137.381 7.14629 137.028 6.97824C136.674 6.8044 136.306 6.71748 135.924 6.71748C135.541 6.71748 135.173 6.8044 134.82 6.97824C134.466 7.14629 134.156 7.42734 133.89 7.82139C133.623 8.21544 133.409 8.73697 133.247 9.38599C133.09 10.0292 133.012 10.826 133.012 11.7764C133.012 12.7267 133.09 13.5235 133.247 14.1667C133.409 14.8099 133.623 15.3286 133.89 15.7226C134.156 16.1167 134.466 16.4006 134.82 16.5745C135.173 16.7425 135.541 16.8265 135.924 16.8265C136.306 16.8265 136.674 16.7425 137.028 16.5745C137.381 16.4006 137.691 16.1167 137.958 15.7226C138.23 15.3286 138.445 14.8099 138.601 14.1667C138.763 13.5235 138.844 12.7267 138.844 11.7764ZM152.275 11.7764C152.275 12.8658 152.156 13.8103 151.919 14.61C151.687 15.4039 151.368 16.0616 150.963 16.5832C150.557 17.1047 150.076 17.493 149.52 17.7479C148.969 18.0029 148.378 18.1304 147.747 18.1304C147.109 18.1304 146.515 18.0029 145.965 17.7479C145.42 17.493 144.945 17.1047 144.539 16.5832C144.134 16.0616 143.815 15.4039 143.583 14.61C143.351 13.8103 143.235 12.8658 143.235 11.7764C143.235 10.6869 143.351 9.74237 143.583 8.94269C143.815 8.143 144.134 7.48239 144.539 6.96086C144.945 6.43353 145.42 6.04238 145.965 5.78741C146.515 5.53243 147.109 5.40495 147.747 5.40495C148.378 5.40495 148.969 5.53243 149.52 5.78741C150.076 6.04238 150.557 6.43353 150.963 6.96086C151.368 7.48239 151.687 8.143 151.919 8.94269C152.156 9.74237 152.275 10.6869 152.275 11.7764ZM150.667 11.7764C150.667 10.826 150.586 10.0292 150.424 9.38599C150.267 8.73697 150.053 8.21544 149.781 7.82139C149.514 7.42734 149.204 7.14629 148.85 6.97824C148.497 6.8044 148.129 6.71748 147.747 6.71748C147.364 6.71748 146.996 6.8044 146.643 6.97824C146.289 7.14629 145.979 7.42734 145.713 7.82139C145.446 8.21544 145.232 8.73697 145.069 9.38599C144.913 10.0292 144.835 10.826 144.835 11.7764C144.835 12.7267 144.913 13.5235 145.069 14.1667C145.232 14.8099 145.446 15.3286 145.713 15.7226C145.979 16.1167 146.289 16.4006 146.643 16.5745C146.996 16.7425 147.364 16.8265 147.747 16.8265C148.129 16.8265 148.497 16.7425 148.85 16.5745C149.204 16.4006 149.514 16.1167 149.781 15.7226C150.053 15.3286 150.267 14.8099 150.424 14.1667C150.586 13.5235 150.667 12.7267 150.667 11.7764ZM170.284 11.7764C170.284 12.8658 170.166 13.8103 169.928 14.61C169.696 15.4039 169.378 16.0616 168.972 16.5832C168.566 17.1047 168.085 17.493 167.529 17.7479C166.979 18.0029 166.387 18.1304 165.756 18.1304C165.118 18.1304 164.524 18.0029 163.974 17.7479C163.429 17.493 162.954 17.1047 162.548 16.5832C162.143 16.0616 161.824 15.4039 161.592 14.61C161.36 13.8103 161.245 12.8658 161.245 11.7764C161.245 10.6869 161.36 9.74237 161.592 8.94269C161.824 8.143 162.143 7.48239 162.548 6.96086C162.954 6.43353 163.429 6.04238 163.974 5.78741C164.524 5.53243 165.118 5.40495 165.756 5.40495C166.387 5.40495 166.979 5.53243 167.529 5.78741C168.085 6.04238 168.566 6.43353 168.972 6.96086C169.378 7.48239 169.696 8.143 169.928 8.94269C170.166 9.74237 170.284 10.6869 170.284 11.7764ZM168.676 11.7764C168.676 10.826 168.595 10.0292 168.433 9.38599C168.277 8.73697 168.062 8.21544 167.79 7.82139C167.523 7.42734 167.213 7.14629 166.86 6.97824C166.506 6.8044 166.138 6.71748 165.756 6.71748C165.373 6.71748 165.005 6.8044 164.652 6.97824C164.298 7.14629 163.988 7.42734 163.722 7.82139C163.455 8.21544 163.241 8.73697 163.079 9.38599C162.922 10.0292 162.844 10.826 162.844 11.7764C162.844 12.7267 162.922 13.5235 163.079 14.1667C163.241 14.8099 163.455 15.3286 163.722 15.7226C163.988 16.1167 164.298 16.4006 164.652 16.5745C165.005 16.7425 165.373 16.8265 165.756 16.8265C166.138 16.8265 166.506 16.7425 166.86 16.5745C167.213 16.4006 167.523 16.1167 167.79 15.7226C168.062 15.3286 168.277 14.8099 168.433 14.1667C168.595 13.5235 168.676 12.7267 168.676 11.7764ZM181.394 16.8179V18H174.719V16.8179H177.387V8.32554C177.387 8.07057 177.396 7.8127 177.413 7.55193L175.197 9.45553C175.122 9.51927 175.046 9.55984 174.971 9.57722C174.896 9.58881 174.826 9.58881 174.762 9.57722C174.699 9.56563 174.638 9.54245 174.58 9.50768C174.528 9.47292 174.487 9.43525 174.458 9.39468L173.971 8.72538L177.683 5.51795H178.943V16.8179H181.394ZM193.93 11.7764C193.93 12.8658 193.811 13.8103 193.574 14.61C193.342 15.4039 193.023 16.0616 192.618 16.5832C192.212 17.1047 191.731 17.493 191.175 17.7479C190.624 18.0029 190.033 18.1304 189.401 18.1304C188.764 18.1304 188.17 18.0029 187.619 17.7479C187.075 17.493 186.6 17.1047 186.194 16.5832C185.788 16.0616 185.47 15.4039 185.238 14.61C185.006 13.8103 184.89 12.8658 184.89 11.7764C184.89 10.6869 185.006 9.74237 185.238 8.94269C185.47 8.143 185.788 7.48239 186.194 6.96086C186.6 6.43353 187.075 6.04238 187.619 5.78741C188.17 5.53243 188.764 5.40495 189.401 5.40495C190.033 5.40495 190.624 5.53243 191.175 5.78741C191.731 6.04238 192.212 6.43353 192.618 6.96086C193.023 7.48239 193.342 8.143 193.574 8.94269C193.811 9.74237 193.93 10.6869 193.93 11.7764ZM192.322 11.7764C192.322 10.826 192.241 10.0292 192.079 9.38599C191.922 8.73697 191.708 8.21544 191.435 7.82139C191.169 7.42734 190.859 7.14629 190.505 6.97824C190.152 6.8044 189.784 6.71748 189.401 6.71748C189.019 6.71748 188.651 6.8044 188.297 6.97824C187.944 7.14629 187.634 7.42734 187.367 7.82139C187.101 8.21544 186.886 8.73697 186.724 9.38599C186.568 10.0292 186.489 10.826 186.489 11.7764C186.489 12.7267 186.568 13.5235 186.724 14.1667C186.886 14.8099 187.101 15.3286 187.367 15.7226C187.634 16.1167 187.944 16.4006 188.297 16.5745C188.651 16.7425 189.019 16.8265 189.401 16.8265C189.784 16.8265 190.152 16.7425 190.505 16.5745C190.859 16.4006 191.169 16.1167 191.435 15.7226C191.708 15.3286 191.922 14.8099 192.079 14.1667C192.241 13.5235 192.322 12.7267 192.322 11.7764Z" fill="url(#paint2_linear_74_845)"/>
<path d="M85.712 16.8179V18H79.0363V16.8179H81.7049V8.32554C81.7049 8.07057 81.7135 7.8127 81.7309 7.55193L79.5144 9.45553C79.4391 9.51927 79.3637 9.55984 79.2884 9.57722C79.2131 9.58881 79.1435 9.58881 79.0798 9.57722C79.0161 9.56563 78.9552 9.54245 78.8973 9.50768C78.8451 9.47292 78.8045 9.43525 78.7756 9.39468L78.2888 8.72538L82.0004 5.51795H83.2608V16.8179H85.712ZM103.721 16.8179V18H97.0456V16.8179H99.7141V8.32554C99.7141 8.07057 99.7228 7.8127 99.7402 7.55193L97.5236 9.45553C97.4483 9.51927 97.373 9.55984 97.2976 9.57722C97.2223 9.58881 97.1528 9.58881 97.089 9.57722C97.0253 9.56563 96.9644 9.54245 96.9065 9.50768C96.8543 9.47292 96.8138 9.43525 96.7848 9.39468L96.298 8.72538L100.01 5.51795H101.27V16.8179H103.721ZM121.73 16.8179V18H115.055V16.8179H117.723V8.32554C117.723 8.07057 117.732 7.8127 117.749 7.55193L115.533 9.45553C115.458 9.51927 115.382 9.55984 115.307 9.57722C115.232 9.58881 115.162 9.58881 115.098 9.57722C115.035 9.56563 114.974 9.54245 114.916 9.50768C114.864 9.47292 114.823 9.43525 114.794 9.39468L114.307 8.72538L118.019 5.51795H119.279V16.8179H121.73ZM140.452 11.7764C140.452 12.8658 140.334 13.8103 140.096 14.61C139.864 15.4039 139.546 16.0616 139.14 16.5832C138.734 17.1047 138.253 17.493 137.697 17.7479C137.146 18.0029 136.555 18.1304 135.924 18.1304C135.286 18.1304 134.692 18.0029 134.142 17.7479C133.597 17.493 133.122 17.1047 132.716 16.5832C132.311 16.0616 131.992 15.4039 131.76 14.61C131.528 13.8103 131.412 12.8658 131.412 11.7764C131.412 10.6869 131.528 9.74237 131.76 8.94269C131.992 8.143 132.311 7.48239 132.716 6.96086C133.122 6.43353 133.597 6.04238 134.142 5.78741C134.692 5.53243 135.286 5.40495 135.924 5.40495C136.555 5.40495 137.146 5.53243 137.697 5.78741C138.253 6.04238 138.734 6.43353 139.14 6.96086C139.546 7.48239 139.864 8.143 140.096 8.94269C140.334 9.74237 140.452 10.6869 140.452 11.7764ZM138.844 11.7764C138.844 10.826 138.763 10.0292 138.601 9.38599C138.445 8.73697 138.23 8.21544 137.958 7.82139C137.691 7.42734 137.381 7.14629 137.028 6.97824C136.674 6.8044 136.306 6.71748 135.924 6.71748C135.541 6.71748 135.173 6.8044 134.82 6.97824C134.466 7.14629 134.156 7.42734 133.89 7.82139C133.623 8.21544 133.409 8.73697 133.247 9.38599C133.09 10.0292 133.012 10.826 133.012 11.7764C133.012 12.7267 133.09 13.5235 133.247 14.1667C133.409 14.8099 133.623 15.3286 133.89 15.7226C134.156 16.1167 134.466 16.4006 134.82 16.5745C135.173 16.7425 135.541 16.8265 135.924 16.8265C136.306 16.8265 136.674 16.7425 137.028 16.5745C137.381 16.4006 137.691 16.1167 137.958 15.7226C138.23 15.3286 138.445 14.8099 138.601 14.1667C138.763 13.5235 138.844 12.7267 138.844 11.7764ZM152.275 11.7764C152.275 12.8658 152.156 13.8103 151.919 14.61C151.687 15.4039 151.368 16.0616 150.963 16.5832C150.557 17.1047 150.076 17.493 149.52 17.7479C148.969 18.0029 148.378 18.1304 147.747 18.1304C147.109 18.1304 146.515 18.0029 145.965 17.7479C145.42 17.493 144.945 17.1047 144.539 16.5832C144.134 16.0616 143.815 15.4039 143.583 14.61C143.351 13.8103 143.235 12.8658 143.235 11.7764C143.235 10.6869 143.351 9.74237 143.583 8.94269C143.815 8.143 144.134 7.48239 144.539 6.96086C144.945 6.43353 145.42 6.04238 145.965 5.78741C146.515 5.53243 147.109 5.40495 147.747 5.40495C148.378 5.40495 148.969 5.53243 149.52 5.78741C150.076 6.04238 150.557 6.43353 150.963 6.96086C151.368 7.48239 151.687 8.143 151.919 8.94269C152.156 9.74237 152.275 10.6869 152.275 11.7764ZM150.667 11.7764C150.667 10.826 150.586 10.0292 150.424 9.38599C150.267 8.73697 150.053 8.21544 149.781 7.82139C149.514 7.42734 149.204 7.14629 148.85 6.97824C148.497 6.8044 148.129 6.71748 147.747 6.71748C147.364 6.71748 146.996 6.8044 146.643 6.97824C146.289 7.14629 145.979 7.42734 145.713 7.82139C145.446 8.21544 145.232 8.73697 145.069 9.38599C144.913 10.0292 144.835 10.826 144.835 11.7764C144.835 12.7267 144.913 13.5235 145.069 14.1667C145.232 14.8099 145.446 15.3286 145.713 15.7226C145.979 16.1167 146.289 16.4006 146.643 16.5745C146.996 16.7425 147.364 16.8265 147.747 16.8265C148.129 16.8265 148.497 16.7425 148.85 16.5745C149.204 16.4006 149.514 16.1167 149.781 15.7226C150.053 15.3286 150.267 14.8099 150.424 14.1667C150.586 13.5235 150.667 12.7267 150.667 11.7764ZM170.284 11.7764C170.284 12.8658 170.166 13.8103 169.928 14.61C169.696 15.4039 169.378 16.0616 168.972 16.5832C168.566 17.1047 168.085 17.493 167.529 17.7479C166.979 18.0029 166.387 18.1304 165.756 18.1304C165.118 18.1304 164.524 18.0029 163.974 17.7479C163.429 17.493 162.954 17.1047 162.548 16.5832C162.143 16.0616 161.824 15.4039 161.592 14.61C161.36 13.8103 161.245 12.8658 161.245 11.7764C161.245 10.6869 161.36 9.74237 161.592 8.94269C161.824 8.143 162.143 7.48239 162.548 6.96086C162.954 6.43353 163.429 6.04238 163.974 5.78741C164.524 5.53243 165.118 5.40495 165.756 5.40495C166.387 5.40495 166.979 5.53243 167.529 5.78741C168.085 6.04238 168.566 6.43353 168.972 6.96086C169.378 7.48239 169.696 8.143 169.928 8.94269C170.166 9.74237 170.284 10.6869 170.284 11.7764ZM168.676 11.7764C168.676 10.826 168.595 10.0292 168.433 9.38599C168.277 8.73697 168.062 8.21544 167.79 7.82139C167.523 7.42734 167.213 7.14629 166.86 6.97824C166.506 6.8044 166.138 6.71748 165.756 6.71748C165.373 6.71748 165.005 6.8044 164.652 6.97824C164.298 7.14629 163.988 7.42734 163.722 7.82139C163.455 8.21544 163.241 8.73697 163.079 9.38599C162.922 10.0292 162.844 10.826 162.844 11.7764C162.844 12.7267 162.922 13.5235 163.079 14.1667C163.241 14.8099 163.455 15.3286 163.722 15.7226C163.988 16.1167 164.298 16.4006 164.652 16.5745C165.005 16.7425 165.373 16.8265 165.756 16.8265C166.138 16.8265 166.506 16.7425 166.86 16.5745C167.213 16.4006 167.523 16.1167 167.79 15.7226C168.062 15.3286 168.277 14.8099 168.433 14.1667C168.595 13.5235 168.676 12.7267 168.676 11.7764ZM181.394 16.8179V18H174.719V16.8179H177.387V8.32554C177.387 8.07057 177.396 7.8127 177.413 7.55193L175.197 9.45553C175.122 9.51927 175.046 9.55984 174.971 9.57722C174.896 9.58881 174.826 9.58881 174.762 9.57722C174.699 9.56563 174.638 9.54245 174.58 9.50768C174.528 9.47292 174.487 9.43525 174.458 9.39468L173.971 8.72538L177.683 5.51795H178.943V16.8179H181.394ZM193.93 11.7764C193.93 12.8658 193.811 13.8103 193.574 14.61C193.342 15.4039 193.023 16.0616 192.618 16.5832C192.212 17.1047 191.731 17.493 191.175 17.7479C190.624 18.0029 190.033 18.1304 189.401 18.1304C188.764 18.1304 188.17 18.0029 187.619 17.7479C187.075 17.493 186.6 17.1047 186.194 16.5832C185.788 16.0616 185.47 15.4039 185.238 14.61C185.006 13.8103 184.89 12.8658 184.89 11.7764C184.89 10.6869 185.006 9.74237 185.238 8.94269C185.47 8.143 185.788 7.48239 186.194 6.96086C186.6 6.43353 187.075 6.04238 187.619 5.78741C188.17 5.53243 188.764 5.40495 189.401 5.40495C190.033 5.40495 190.624 5.53243 191.175 5.78741C191.731 6.04238 192.212 6.43353 192.618 6.96086C193.023 7.48239 193.342 8.143 193.574 8.94269C193.811 9.74237 193.93 10.6869 193.93 11.7764ZM192.322 11.7764C192.322 10.826 192.241 10.0292 192.079 9.38599C191.922 8.73697 191.708 8.21544 191.435 7.82139C191.169 7.42734 190.859 7.14629 190.505 6.97824C190.152 6.8044 189.784 6.71748 189.401 6.71748C189.019 6.71748 188.651 6.8044 188.297 6.97824C187.944 7.14629 187.634 7.42734 187.367 7.82139C187.101 8.21544 186.886 8.73697 186.724 9.38599C186.568 10.0292 186.489 10.826 186.489 11.7764C186.489 12.7267 186.568 13.5235 186.724 14.1667C186.886 14.8099 187.101 15.3286 187.367 15.7226C187.634 16.1167 187.944 16.4006 188.297 16.5745C188.651 16.7425 189.019 16.8265 189.401 16.8265C189.784 16.8265 190.152 16.7425 190.505 16.5745C190.859 16.4006 191.169 16.1167 191.435 15.7226C191.708 15.3286 191.922 14.8099 192.079 14.1667C192.241 13.5235 192.322 12.7267 192.322 11.7764Z" fill="url(#paint3_linear_74_845)" fill-opacity="0.35"/>
</g>
<g filter="url(#filter2_dd_74_845)">
<path d="M254.561 22.2148C254.561 23.3043 254.443 24.2488 254.205 25.0485C253.973 25.8424 253.655 26.5001 253.249 27.0216C252.843 27.5432 252.362 27.9314 251.806 28.1864C251.256 28.4414 250.664 28.5689 250.033 28.5689C249.395 28.5689 248.801 28.4414 248.251 28.1864C247.706 27.9314 247.231 27.5432 246.825 27.0216C246.42 26.5001 246.101 25.8424 245.869 25.0485C245.637 24.2488 245.522 23.3043 245.522 22.2148C245.522 21.1254 245.637 20.1809 245.869 19.3812C246.101 18.5815 246.42 17.9209 246.825 17.3993C247.231 16.872 247.706 16.4809 248.251 16.2259C248.801 15.9709 249.395 15.8434 250.033 15.8434C250.664 15.8434 251.256 15.9709 251.806 16.2259C252.362 16.4809 252.843 16.872 253.249 17.3993C253.655 17.9209 253.973 18.5815 254.205 19.3812C254.443 20.1809 254.561 21.1254 254.561 22.2148ZM252.953 22.2148C252.953 21.2645 252.872 20.4677 252.71 19.8245C252.554 19.1754 252.339 18.6539 252.067 18.2599C251.8 17.8658 251.49 17.5848 251.137 17.4167C250.783 17.2429 250.415 17.156 250.033 17.156C249.65 17.156 249.282 17.2429 248.929 17.4167C248.575 17.5848 248.265 17.8658 247.999 18.2599C247.732 18.6539 247.518 19.1754 247.356 19.8245C247.199 20.4677 247.121 21.2645 247.121 22.2148C247.121 23.1652 247.199 23.962 247.356 24.6052C247.518 25.2484 247.732 25.7671 247.999 26.1611C248.265 26.5552 248.575 26.8391 248.929 27.0129C249.282 27.181 249.65 27.265 250.033 27.265C250.415 27.265 250.783 27.181 251.137 27.0129C251.49 26.8391 251.8 26.5552 252.067 26.1611C252.339 25.7671 252.554 25.2484 252.71 24.6052C252.872 23.962 252.953 23.1652 252.953 22.2148ZM272.571 22.2148C272.571 23.3043 272.452 24.2488 272.214 25.0485C271.983 25.8424 271.664 26.5001 271.258 27.0216C270.853 27.5432 270.372 27.9314 269.815 28.1864C269.265 28.4414 268.674 28.5689 268.042 28.5689C267.405 28.5689 266.811 28.4414 266.26 28.1864C265.715 27.9314 265.24 27.5432 264.835 27.0216C264.429 26.5001 264.11 25.8424 263.878 25.0485C263.647 24.2488 263.531 23.3043 263.531 22.2148C263.531 21.1254 263.647 20.1809 263.878 19.3812C264.11 18.5815 264.429 17.9209 264.835 17.3993C265.24 16.872 265.715 16.4809 266.26 16.2259C266.811 15.9709 267.405 15.8434 268.042 15.8434C268.674 15.8434 269.265 15.9709 269.815 16.2259C270.372 16.4809 270.853 16.872 271.258 17.3993C271.664 17.9209 271.983 18.5815 272.214 19.3812C272.452 20.1809 272.571 21.1254 272.571 22.2148ZM270.963 22.2148C270.963 21.2645 270.881 20.4677 270.719 19.8245C270.563 19.1754 270.348 18.6539 270.076 18.2599C269.809 17.8658 269.499 17.5848 269.146 17.4167C268.792 17.2429 268.424 17.156 268.042 17.156C267.66 17.156 267.292 17.2429 266.938 17.4167C266.585 17.5848 266.275 17.8658 266.008 18.2599C265.741 18.6539 265.527 19.1754 265.365 19.8245C265.208 20.4677 265.13 21.2645 265.13 22.2148C265.13 23.1652 265.208 23.962 265.365 24.6052C265.527 25.2484 265.741 25.7671 266.008 26.1611C266.275 26.5552 266.585 26.8391 266.938 27.0129C267.292 27.181 267.66 27.265 268.042 27.265C268.424 27.265 268.792 27.181 269.146 27.0129C269.499 26.8391 269.809 26.5552 270.076 26.1611C270.348 25.7671 270.563 25.2484 270.719 24.6052C270.881 23.962 270.963 23.1652 270.963 22.2148ZM289.867 27.2563V28.4385H283.192V27.2563H285.86V18.764C285.86 18.509 285.869 18.2512 285.886 17.9904L283.67 19.894C283.594 19.9578 283.519 19.9983 283.444 20.0157C283.368 20.0273 283.299 20.0273 283.235 20.0157C283.171 20.0041 283.11 19.9809 283.052 19.9462C283 19.9114 282.96 19.8737 282.931 19.8332L282.444 19.1639L286.156 15.9564H287.416V27.2563H289.867ZM302.403 22.2148C302.403 23.3043 302.284 24.2488 302.046 25.0485C301.815 25.8424 301.496 26.5001 301.09 27.0216C300.685 27.5432 300.204 27.9314 299.647 28.1864C299.097 28.4414 298.506 28.5689 297.874 28.5689C297.237 28.5689 296.643 28.4414 296.092 28.1864C295.547 27.9314 295.072 27.5432 294.667 27.0216C294.261 26.5001 293.942 25.8424 293.71 25.0485C293.479 24.2488 293.363 23.3043 293.363 22.2148C293.363 21.1254 293.479 20.1809 293.71 19.3812C293.942 18.5815 294.261 17.9209 294.667 17.3993C295.072 16.872 295.547 16.4809 296.092 16.2259C296.643 15.9709 297.237 15.8434 297.874 15.8434C298.506 15.8434 299.097 15.9709 299.647 16.2259C300.204 16.4809 300.685 16.872 301.09 17.3993C301.496 17.9209 301.815 18.5815 302.046 19.3812C302.284 20.1809 302.403 21.1254 302.403 22.2148ZM300.795 22.2148C300.795 21.2645 300.714 20.4677 300.551 19.8245C300.395 19.1754 300.18 18.6539 299.908 18.2599C299.641 17.8658 299.331 17.5848 298.978 17.4167C298.624 17.2429 298.257 17.156 297.874 17.156C297.492 17.156 297.124 17.2429 296.77 17.4167C296.417 17.5848 296.107 17.8658 295.84 18.2599C295.574 18.6539 295.359 19.1754 295.197 19.8245C295.04 20.4677 294.962 21.2645 294.962 22.2148C294.962 23.1652 295.04 23.962 295.197 24.6052C295.359 25.2484 295.574 25.7671 295.84 26.1611C296.107 26.5552 296.417 26.8391 296.77 27.0129C297.124 27.181 297.492 27.265 297.874 27.265C298.257 27.265 298.624 27.181 298.978 27.0129C299.331 26.8391 299.641 26.5552 299.908 26.1611C300.18 25.7671 300.395 25.2484 300.551 24.6052C300.714 23.962 300.795 23.1652 300.795 22.2148ZM313.513 27.2563V28.4385H306.837V27.2563H309.506V18.764C309.506 18.509 309.514 18.2512 309.532 17.9904L307.315 19.894C307.24 19.9578 307.165 19.9983 307.089 20.0157C307.014 20.0273 306.944 20.0273 306.881 20.0157C306.817 20.0041 306.756 19.9809 306.698 19.9462C306.646 19.9114 306.605 19.8737 306.576 19.8332L306.09 19.1639L309.801 15.9564H311.062V27.2563H313.513ZM326.048 22.2148C326.048 23.3043 325.93 24.2488 325.692 25.0485C325.46 25.8424 325.141 26.5001 324.736 27.0216C324.33 27.5432 323.849 27.9314 323.293 28.1864C322.742 28.4414 322.151 28.5689 321.52 28.5689C320.882 28.5689 320.288 28.4414 319.738 28.1864C319.193 27.9314 318.718 27.5432 318.312 27.0216C317.907 26.5001 317.588 25.8424 317.356 25.0485C317.124 24.2488 317.008 23.3043 317.008 22.2148C317.008 21.1254 317.124 20.1809 317.356 19.3812C317.588 18.5815 317.907 17.9209 318.312 17.3993C318.718 16.872 319.193 16.4809 319.738 16.2259C320.288 15.9709 320.882 15.8434 321.52 15.8434C322.151 15.8434 322.742 15.9709 323.293 16.2259C323.849 16.4809 324.33 16.872 324.736 17.3993C325.141 17.9209 325.46 18.5815 325.692 19.3812C325.93 20.1809 326.048 21.1254 326.048 22.2148ZM324.44 22.2148C324.44 21.2645 324.359 20.4677 324.197 19.8245C324.04 19.1754 323.826 18.6539 323.554 18.2599C323.287 17.8658 322.977 17.5848 322.624 17.4167C322.27 17.2429 321.902 17.156 321.52 17.156C321.137 17.156 320.769 17.2429 320.416 17.4167C320.062 17.5848 319.752 17.8658 319.486 18.2599C319.219 18.6539 319.005 19.1754 318.842 19.8245C318.686 20.4677 318.608 21.2645 318.608 22.2148C318.608 23.1652 318.686 23.962 318.842 24.6052C319.005 25.2484 319.219 25.7671 319.486 26.1611C319.752 26.5552 320.062 26.8391 320.416 27.0129C320.769 27.181 321.137 27.265 321.52 27.265C321.902 27.265 322.27 27.181 322.624 27.0129C322.977 26.8391 323.287 26.5552 323.554 26.1611C323.826 25.7671 324.04 25.2484 324.197 24.6052C324.359 23.962 324.44 23.1652 324.44 22.2148ZM344.058 22.2148C344.058 23.3043 343.939 24.2488 343.701 25.0485C343.469 25.8424 343.151 26.5001 342.745 27.0216C342.339 27.5432 341.858 27.9314 341.302 28.1864C340.752 28.4414 340.161 28.5689 339.529 28.5689C338.891 28.5689 338.297 28.4414 337.747 28.1864C337.202 27.9314 336.727 27.5432 336.321 27.0216C335.916 26.5001 335.597 25.8424 335.365 25.0485C335.134 24.2488 335.018 23.3043 335.018 22.2148C335.018 21.1254 335.134 20.1809 335.365 19.3812C335.597 18.5815 335.916 17.9209 336.321 17.3993C336.727 16.872 337.202 16.4809 337.747 16.2259C338.297 15.9709 338.891 15.8434 339.529 15.8434C340.161 15.8434 340.752 15.9709 341.302 16.2259C341.858 16.4809 342.339 16.872 342.745 17.3993C343.151 17.9209 343.469 18.5815 343.701 19.3812C343.939 20.1809 344.058 21.1254 344.058 22.2148ZM342.449 22.2148C342.449 21.2645 342.368 20.4677 342.206 19.8245C342.05 19.1754 341.835 18.6539 341.563 18.2599C341.296 17.8658 340.986 17.5848 340.633 17.4167C340.279 17.2429 339.911 17.156 339.529 17.156C339.146 17.156 338.778 17.2429 338.425 17.4167C338.071 17.5848 337.761 17.8658 337.495 18.2599C337.228 18.6539 337.014 19.1754 336.852 19.8245C336.695 20.4677 336.617 21.2645 336.617 22.2148C336.617 23.1652 336.695 23.962 336.852 24.6052C337.014 25.2484 337.228 25.7671 337.495 26.1611C337.761 26.5552 338.071 26.8391 338.425 27.0129C338.778 27.181 339.146 27.265 339.529 27.265C339.911 27.265 340.279 27.181 340.633 27.0129C340.986 26.8391 341.296 26.5552 341.563 26.1611C341.835 25.7671 342.05 25.2484 342.206 24.6052C342.368 23.962 342.449 23.1652 342.449 22.2148ZM355.168 27.2563V28.4385H348.492V27.2563H351.16V18.764C351.16 18.509 351.169 18.2512 351.187 17.9904L348.97 19.894C348.895 19.9578 348.819 19.9983 348.744 20.0157C348.669 20.0273 348.599 20.0273 348.535 20.0157C348.472 20.0041 348.411 19.9809 348.353 19.9462C348.301 19.9114 348.26 19.8737 348.231 19.8332L347.744 19.1639L351.456 15.9564H352.716V27.2563H355.168ZM366.99 27.2563V28.4385H360.315V27.2563H362.983V18.764C362.983 18.509 362.992 18.2512 363.009 17.9904L360.793 19.894C360.717 19.9578 360.642 19.9983 360.567 20.0157C360.491 20.0273 360.422 20.0273 360.358 20.0157C360.294 20.0041 360.234 19.9809 360.176 19.9462C360.124 19.9114 360.083 19.8737 360.054 19.8332L359.567 19.1639L363.279 15.9564H364.539V27.2563H366.99Z" fill="url(#paint4_linear_74_845)"/>
<path d="M254.561 22.2148C254.561 23.3043 254.443 24.2488 254.205 25.0485C253.973 25.8424 253.655 26.5001 253.249 27.0216C252.843 27.5432 252.362 27.9314 251.806 28.1864C251.256 28.4414 250.664 28.5689 250.033 28.5689C249.395 28.5689 248.801 28.4414 248.251 28.1864C247.706 27.9314 247.231 27.5432 246.825 27.0216C246.42 26.5001 246.101 25.8424 245.869 25.0485C245.637 24.2488 245.522 23.3043 245.522 22.2148C245.522 21.1254 245.637 20.1809 245.869 19.3812C246.101 18.5815 246.42 17.9209 246.825 17.3993C247.231 16.872 247.706 16.4809 248.251 16.2259C248.801 15.9709 249.395 15.8434 250.033 15.8434C250.664 15.8434 251.256 15.9709 251.806 16.2259C252.362 16.4809 252.843 16.872 253.249 17.3993C253.655 17.9209 253.973 18.5815 254.205 19.3812C254.443 20.1809 254.561 21.1254 254.561 22.2148ZM252.953 22.2148C252.953 21.2645 252.872 20.4677 252.71 19.8245C252.554 19.1754 252.339 18.6539 252.067 18.2599C251.8 17.8658 251.49 17.5848 251.137 17.4167C250.783 17.2429 250.415 17.156 250.033 17.156C249.65 17.156 249.282 17.2429 248.929 17.4167C248.575 17.5848 248.265 17.8658 247.999 18.2599C247.732 18.6539 247.518 19.1754 247.356 19.8245C247.199 20.4677 247.121 21.2645 247.121 22.2148C247.121 23.1652 247.199 23.962 247.356 24.6052C247.518 25.2484 247.732 25.7671 247.999 26.1611C248.265 26.5552 248.575 26.8391 248.929 27.0129C249.282 27.181 249.65 27.265 250.033 27.265C250.415 27.265 250.783 27.181 251.137 27.0129C251.49 26.8391 251.8 26.5552 252.067 26.1611C252.339 25.7671 252.554 25.2484 252.71 24.6052C252.872 23.962 252.953 23.1652 252.953 22.2148ZM272.571 22.2148C272.571 23.3043 272.452 24.2488 272.214 25.0485C271.983 25.8424 271.664 26.5001 271.258 27.0216C270.853 27.5432 270.372 27.9314 269.815 28.1864C269.265 28.4414 268.674 28.5689 268.042 28.5689C267.405 28.5689 266.811 28.4414 266.26 28.1864C265.715 27.9314 265.24 27.5432 264.835 27.0216C264.429 26.5001 264.11 25.8424 263.878 25.0485C263.647 24.2488 263.531 23.3043 263.531 22.2148C263.531 21.1254 263.647 20.1809 263.878 19.3812C264.11 18.5815 264.429 17.9209 264.835 17.3993C265.24 16.872 265.715 16.4809 266.26 16.2259C266.811 15.9709 267.405 15.8434 268.042 15.8434C268.674 15.8434 269.265 15.9709 269.815 16.2259C270.372 16.4809 270.853 16.872 271.258 17.3993C271.664 17.9209 271.983 18.5815 272.214 19.3812C272.452 20.1809 272.571 21.1254 272.571 22.2148ZM270.963 22.2148C270.963 21.2645 270.881 20.4677 270.719 19.8245C270.563 19.1754 270.348 18.6539 270.076 18.2599C269.809 17.8658 269.499 17.5848 269.146 17.4167C268.792 17.2429 268.424 17.156 268.042 17.156C267.66 17.156 267.292 17.2429 266.938 17.4167C266.585 17.5848 266.275 17.8658 266.008 18.2599C265.741 18.6539 265.527 19.1754 265.365 19.8245C265.208 20.4677 265.13 21.2645 265.13 22.2148C265.13 23.1652 265.208 23.962 265.365 24.6052C265.527 25.2484 265.741 25.7671 266.008 26.1611C266.275 26.5552 266.585 26.8391 266.938 27.0129C267.292 27.181 267.66 27.265 268.042 27.265C268.424 27.265 268.792 27.181 269.146 27.0129C269.499 26.8391 269.809 26.5552 270.076 26.1611C270.348 25.7671 270.563 25.2484 270.719 24.6052C270.881 23.962 270.963 23.1652 270.963 22.2148ZM289.867 27.2563V28.4385H283.192V27.2563H285.86V18.764C285.86 18.509 285.869 18.2512 285.886 17.9904L283.67 19.894C283.594 19.9578 283.519 19.9983 283.444 20.0157C283.368 20.0273 283.299 20.0273 283.235 20.0157C283.171 20.0041 283.11 19.9809 283.052 19.9462C283 19.9114 282.96 19.8737 282.931 19.8332L282.444 19.1639L286.156 15.9564H287.416V27.2563H289.867ZM302.403 22.2148C302.403 23.3043 302.284 24.2488 302.046 25.0485C301.815 25.8424 301.496 26.5001 301.09 27.0216C300.685 27.5432 300.204 27.9314 299.647 28.1864C299.097 28.4414 298.506 28.5689 297.874 28.5689C297.237 28.5689 296.643 28.4414 296.092 28.1864C295.547 27.9314 295.072 27.5432 294.667 27.0216C294.261 26.5001 293.942 25.8424 293.71 25.0485C293.479 24.2488 293.363 23.3043 293.363 22.2148C293.363 21.1254 293.479 20.1809 293.71 19.3812C293.942 18.5815 294.261 17.9209 294.667 17.3993C295.072 16.872 295.547 16.4809 296.092 16.2259C296.643 15.9709 297.237 15.8434 297.874 15.8434C298.506 15.8434 299.097 15.9709 299.647 16.2259C300.204 16.4809 300.685 16.872 301.09 17.3993C301.496 17.9209 301.815 18.5815 302.046 19.3812C302.284 20.1809 302.403 21.1254 302.403 22.2148ZM300.795 22.2148C300.795 21.2645 300.714 20.4677 300.551 19.8245C300.395 19.1754 300.18 18.6539 299.908 18.2599C299.641 17.8658 299.331 17.5848 298.978 17.4167C298.624 17.2429 298.257 17.156 297.874 17.156C297.492 17.156 297.124 17.2429 296.77 17.4167C296.417 17.5848 296.107 17.8658 295.84 18.2599C295.574 18.6539 295.359 19.1754 295.197 19.8245C295.04 20.4677 294.962 21.2645 294.962 22.2148C294.962 23.1652 295.04 23.962 295.197 24.6052C295.359 25.2484 295.574 25.7671 295.84 26.1611C296.107 26.5552 296.417 26.8391 296.77 27.0129C297.124 27.181 297.492 27.265 297.874 27.265C298.257 27.265 298.624 27.181 298.978 27.0129C299.331 26.8391 299.641 26.5552 299.908 26.1611C300.18 25.7671 300.395 25.2484 300.551 24.6052C300.714 23.962 300.795 23.1652 300.795 22.2148ZM313.513 27.2563V28.4385H306.837V27.2563H309.506V18.764C309.506 18.509 309.514 18.2512 309.532 17.9904L307.315 19.894C307.24 19.9578 307.165 19.9983 307.089 20.0157C307.014 20.0273 306.944 20.0273 306.881 20.0157C306.817 20.0041 306.756 19.9809 306.698 19.9462C306.646 19.9114 306.605 19.8737 306.576 19.8332L306.09 19.1639L309.801 15.9564H311.062V27.2563H313.513ZM326.048 22.2148C326.048 23.3043 325.93 24.2488 325.692 25.0485C325.46 25.8424 325.141 26.5001 324.736 27.0216C324.33 27.5432 323.849 27.9314 323.293 28.1864C322.742 28.4414 322.151 28.5689 321.52 28.5689C320.882 28.5689 320.288 28.4414 319.738 28.1864C319.193 27.9314 318.718 27.5432 318.312 27.0216C317.907 26.5001 317.588 25.8424 317.356 25.0485C317.124 24.2488 317.008 23.3043 317.008 22.2148C317.008 21.1254 317.124 20.1809 317.356 19.3812C317.588 18.5815 317.907 17.9209 318.312 17.3993C318.718 16.872 319.193 16.4809 319.738 16.2259C320.288 15.9709 320.882 15.8434 321.52 15.8434C322.151 15.8434 322.742 15.9709 323.293 16.2259C323.849 16.4809 324.33 16.872 324.736 17.3993C325.141 17.9209 325.46 18.5815 325.692 19.3812C325.93 20.1809 326.048 21.1254 326.048 22.2148ZM324.44 22.2148C324.44 21.2645 324.359 20.4677 324.197 19.8245C324.04 19.1754 323.826 18.6539 323.554 18.2599C323.287 17.8658 322.977 17.5848 322.624 17.4167C322.27 17.2429 321.902 17.156 321.52 17.156C321.137 17.156 320.769 17.2429 320.416 17.4167C320.062 17.5848 319.752 17.8658 319.486 18.2599C319.219 18.6539 319.005 19.1754 318.842 19.8245C318.686 20.4677 318.608 21.2645 318.608 22.2148C318.608 23.1652 318.686 23.962 318.842 24.6052C319.005 25.2484 319.219 25.7671 319.486 26.1611C319.752 26.5552 320.062 26.8391 320.416 27.0129C320.769 27.181 321.137 27.265 321.52 27.265C321.902 27.265 322.27 27.181 322.624 27.0129C322.977 26.8391 323.287 26.5552 323.554 26.1611C323.826 25.7671 324.04 25.2484 324.197 24.6052C324.359 23.962 324.44 23.1652 324.44 22.2148ZM344.058 22.2148C344.058 23.3043 343.939 24.2488 343.701 25.0485C343.469 25.8424 343.151 26.5001 342.745 27.0216C342.339 27.5432 341.858 27.9314 341.302 28.1864C340.752 28.4414 340.161 28.5689 339.529 28.5689C338.891 28.5689 338.297 28.4414 337.747 28.1864C337.202 27.9314 336.727 27.5432 336.321 27.0216C335.916 26.5001 335.597 25.8424 335.365 25.0485C335.134 24.2488 335.018 23.3043 335.018 22.2148C335.018 21.1254 335.134 20.1809 335.365 19.3812C335.597 18.5815 335.916 17.9209 336.321 17.3993C336.727 16.872 337.202 16.4809 337.747 16.2259C338.297 15.9709 338.891 15.8434 339.529 15.8434C340.161 15.8434 340.752 15.9709 341.302 16.2259C341.858 16.4809 342.339 16.872 342.745 17.3993C343.151 17.9209 343.469 18.5815 343.701 19.3812C343.939 20.1809 344.058 21.1254 344.058 22.2148ZM342.449 22.2148C342.449 21.2645 342.368 20.4677 342.206 19.8245C342.05 19.1754 341.835 18.6539 341.563 18.2599C341.296 17.8658 340.986 17.5848 340.633 17.4167C340.279 17.2429 339.911 17.156 339.529 17.156C339.146 17.156 338.778 17.2429 338.425 17.4167C338.071 17.5848 337.761 17.8658 337.495 18.2599C337.228 18.6539 337.014 19.1754 336.852 19.8245C336.695 20.4677 336.617 21.2645 336.617 22.2148C336.617 23.1652 336.695 23.962 336.852 24.6052C337.014 25.2484 337.228 25.7671 337.495 26.1611C337.761 26.5552 338.071 26.8391 338.425 27.0129C338.778 27.181 339.146 27.265 339.529 27.265C339.911 27.265 340.279 27.181 340.633 27.0129C340.986 26.8391 341.296 26.5552 341.563 26.1611C341.835 25.7671 342.05 25.2484 342.206 24.6052C342.368 23.962 342.449 23.1652 342.449 22.2148ZM355.168 27.2563V28.4385H348.492V27.2563H351.16V18.764C351.16 18.509 351.169 18.2512 351.187 17.9904L348.97 19.894C348.895 19.9578 348.819 19.9983 348.744 20.0157C348.669 20.0273 348.599 20.0273 348.535 20.0157C348.472 20.0041 348.411 19.9809 348.353 19.9462C348.301 19.9114 348.26 19.8737 348.231 19.8332L347.744 19.1639L351.456 15.9564H352.716V27.2563H355.168ZM366.99 27.2563V28.4385H360.315V27.2563H362.983V18.764C362.983 18.509 362.992 18.2512 363.009 17.9904L360.793 19.894C360.717 19.9578 360.642 19.9983 360.567 20.0157C360.491 20.0273 360.422 20.0273 360.358 20.0157C360.294 20.0041 360.234 19.9809 360.176 19.9462C360.124 19.9114 360.083 19.8737 360.054 19.8332L359.567 19.1639L363.279 15.9564H364.539V27.2563H366.99Z" fill="url(#paint5_linear_74_845)" fill-opacity="0.35"/>
</g>
<g filter="url(#filter3_dd_74_845)">
<path d="M186.282 27.2568V28.439H179.607V27.2568H182.275V18.7645C182.275 18.5095 182.284 18.2517 182.301 17.9909L180.085 19.8945C180.009 19.9582 179.934 19.9988 179.859 20.0162C179.783 20.0278 179.714 20.0278 179.65 20.0162C179.586 20.0046 179.525 19.9814 179.467 19.9466C179.415 19.9119 179.375 19.8742 179.346 19.8336L178.859 19.1643L182.571 15.9569H183.831V27.2568H186.282ZM198.818 22.2153C198.818 23.3048 198.699 24.2493 198.461 25.049C198.23 25.8429 197.911 26.5006 197.505 27.0221C197.1 27.5437 196.619 27.9319 196.062 28.1869C195.512 28.4419 194.921 28.5693 194.289 28.5693C193.652 28.5693 193.058 28.4419 192.507 28.1869C191.962 27.9319 191.487 27.5437 191.082 27.0221C190.676 26.5006 190.357 25.8429 190.126 25.049C189.894 24.2493 189.778 23.3048 189.778 22.2153C189.778 21.1259 189.894 20.1813 190.126 19.3817C190.357 18.582 190.676 17.9214 191.082 17.3998C191.487 16.8725 191.962 16.4813 192.507 16.2264C193.058 15.9714 193.652 15.8439 194.289 15.8439C194.921 15.8439 195.512 15.9714 196.062 16.2264C196.619 16.4813 197.1 16.8725 197.505 17.3998C197.911 17.9214 198.23 18.582 198.461 19.3817C198.699 20.1813 198.818 21.1259 198.818 22.2153ZM197.21 22.2153C197.21 21.265 197.129 20.4682 196.966 19.825C196.81 19.1759 196.595 18.6544 196.323 18.2604C196.057 17.8663 195.747 17.5853 195.393 17.4172C195.04 17.2434 194.672 17.1564 194.289 17.1564C193.907 17.1564 193.539 17.2434 193.185 17.4172C192.832 17.5853 192.522 17.8663 192.255 18.2604C191.989 18.6544 191.774 19.1759 191.612 19.825C191.455 20.4682 191.377 21.265 191.377 22.2153C191.377 23.1657 191.455 23.9625 191.612 24.6057C191.774 25.2489 191.989 25.7676 192.255 26.1616C192.522 26.5556 192.832 26.8396 193.185 27.0134C193.539 27.1815 193.907 27.2655 194.289 27.2655C194.672 27.2655 195.04 27.1815 195.393 27.0134C195.747 26.8396 196.057 26.5556 196.323 26.1616C196.595 25.7676 196.81 25.2489 196.966 24.6057C197.129 23.9625 197.21 23.1657 197.21 22.2153ZM216.114 27.2568V28.439H209.439V27.2568H212.107V18.7645C212.107 18.5095 212.116 18.2517 212.133 17.9909L209.917 19.8945C209.841 19.9582 209.766 19.9988 209.691 20.0162C209.615 20.0278 209.546 20.0278 209.482 20.0162C209.418 20.0046 209.357 19.9814 209.3 19.9466C209.247 19.9119 209.207 19.8742 209.178 19.8336L208.691 19.1643L212.403 15.9569H213.663V27.2568H216.114Z" fill="url(#paint6_linear_74_845)"/>
<path d="M186.282 27.2568V28.439H179.607V27.2568H182.275V18.7645C182.275 18.5095 182.284 18.2517 182.301 17.9909L180.085 19.8945C180.009 19.9582 179.934 19.9988 179.859 20.0162C179.783 20.0278 179.714 20.0278 179.65 20.0162C179.586 20.0046 179.525 19.9814 179.467 19.9466C179.415 19.9119 179.375 19.8742 179.346 19.8336L178.859 19.1643L182.571 15.9569H183.831V27.2568H186.282ZM198.818 22.2153C198.818 23.3048 198.699 24.2493 198.461 25.049C198.23 25.8429 197.911 26.5006 197.505 27.0221C197.1 27.5437 196.619 27.9319 196.062 28.1869C195.512 28.4419 194.921 28.5693 194.289 28.5693C193.652 28.5693 193.058 28.4419 192.507 28.1869C191.962 27.9319 191.487 27.5437 191.082 27.0221C190.676 26.5006 190.357 25.8429 190.126 25.049C189.894 24.2493 189.778 23.3048 189.778 22.2153C189.778 21.1259 189.894 20.1813 190.126 19.3817C190.357 18.582 190.676 17.9214 191.082 17.3998C191.487 16.8725 191.962 16.4813 192.507 16.2264C193.058 15.9714 193.652 15.8439 194.289 15.8439C194.921 15.8439 195.512 15.9714 196.062 16.2264C196.619 16.4813 197.1 16.8725 197.505 17.3998C197.911 17.9214 198.23 18.582 198.461 19.3817C198.699 20.1813 198.818 21.1259 198.818 22.2153ZM197.21 22.2153C197.21 21.265 197.129 20.4682 196.966 19.825C196.81 19.1759 196.595 18.6544 196.323 18.2604C196.057 17.8663 195.747 17.5853 195.393 17.4172C195.04 17.2434 194.672 17.1564 194.289 17.1564C193.907 17.1564 193.539 17.2434 193.185 17.4172C192.832 17.5853 192.522 17.8663 192.255 18.2604C191.989 18.6544 191.774 19.1759 191.612 19.825C191.455 20.4682 191.377 21.265 191.377 22.2153C191.377 23.1657 191.455 23.9625 191.612 24.6057C191.774 25.2489 191.989 25.7676 192.255 26.1616C192.522 26.5556 192.832 26.8396 193.185 27.0134C193.539 27.1815 193.907 27.2655 194.289 27.2655C194.672 27.2655 195.04 27.1815 195.393 27.0134C195.747 26.8396 196.057 26.5556 196.323 26.1616C196.595 25.7676 196.81 25.2489 196.966 24.6057C197.129 23.9625 197.21 23.1657 197.21 22.2153ZM216.114 27.2568V28.439H209.439V27.2568H212.107V18.7645C212.107 18.5095 212.116 18.2517 212.133 17.9909L209.917 19.8945C209.841 19.9582 209.766 19.9988 209.691 20.0162C209.615 20.0278 209.546 20.0278 209.482 20.0162C209.418 20.0046 209.357 19.9814 209.3 19.9466C209.247 19.9119 209.207 19.8742 209.178 19.8336L208.691 19.1643L212.403 15.9569H213.663V27.2568H216.114Z" fill="url(#paint7_linear_74_845)" fill-opacity="0.35"/>
</g>
<g opacity="0.3" filter="url(#filter4_dd_74_845)">
<path d="M309.849 27.2563V28.4385H303.173V27.2563H305.842V18.764C305.842 18.509 305.85 18.2512 305.868 17.9904L303.651 19.894C303.576 19.9578 303.5 19.9983 303.425 20.0157C303.35 20.0273 303.28 20.0273 303.217 20.0157C303.153 20.0041 303.092 19.9809 303.034 19.9462C302.982 19.9114 302.941 19.8737 302.912 19.8332L302.426 19.1639L306.137 15.9564H307.397V27.2563H309.849ZM328.571 22.2148C328.571 23.3043 328.452 24.2488 328.214 25.0485C327.983 25.8424 327.664 26.5001 327.258 27.0216C326.853 27.5432 326.372 27.9314 325.815 28.1864C325.265 28.4414 324.674 28.5689 324.042 28.5689C323.405 28.5689 322.811 28.4414 322.26 28.1864C321.715 27.9314 321.24 27.5432 320.835 27.0216C320.429 26.5001 320.11 25.8424 319.878 25.0485C319.647 24.2488 319.531 23.3043 319.531 22.2148C319.531 21.1254 319.647 20.1809 319.878 19.3812C320.11 18.5815 320.429 17.9209 320.835 17.3993C321.24 16.872 321.715 16.4809 322.26 16.2259C322.811 15.9709 323.405 15.8434 324.042 15.8434C324.674 15.8434 325.265 15.9709 325.815 16.2259C326.372 16.4809 326.853 16.872 327.258 17.3993C327.664 17.9209 327.983 18.5815 328.214 19.3812C328.452 20.1809 328.571 21.1254 328.571 22.2148ZM326.963 22.2148C326.963 21.2645 326.881 20.4677 326.719 19.8245C326.563 19.1754 326.348 18.6539 326.076 18.2599C325.809 17.8658 325.499 17.5848 325.146 17.4167C324.792 17.2429 324.424 17.156 324.042 17.156C323.66 17.156 323.292 17.2429 322.938 17.4167C322.585 17.5848 322.275 17.8658 322.008 18.2599C321.741 18.6539 321.527 19.1754 321.365 19.8245C321.208 20.4677 321.13 21.2645 321.13 22.2148C321.13 23.1652 321.208 23.962 321.365 24.6052C321.527 25.2484 321.741 25.7671 322.008 26.1611C322.275 26.5552 322.585 26.8391 322.938 27.0129C323.292 27.181 323.66 27.265 324.042 27.265C324.424 27.265 324.792 27.181 325.146 27.0129C325.499 26.8391 325.809 26.5552 326.076 26.1611C326.348 25.7671 326.563 25.2484 326.719 24.6052C326.881 23.962 326.963 23.1652 326.963 22.2148ZM345.867 27.2563V28.4385H339.192V27.2563H341.86V18.764C341.86 18.509 341.869 18.2512 341.886 17.9904L339.67 19.894C339.594 19.9578 339.519 19.9983 339.444 20.0157C339.368 20.0273 339.299 20.0273 339.235 20.0157C339.171 20.0041 339.11 19.9809 339.052 19.9462C339 19.9114 338.96 19.8737 338.931 19.8332L338.444 19.1639L342.156 15.9564H343.416V27.2563H345.867ZM364.589 22.2148C364.589 23.3043 364.47 24.2488 364.233 25.0485C364.001 25.8424 363.682 26.5001 363.277 27.0216C362.871 27.5432 362.39 27.9314 361.834 28.1864C361.283 28.4414 360.692 28.5689 360.06 28.5689C359.423 28.5689 358.829 28.4414 358.279 28.1864C357.734 27.9314 357.259 27.5432 356.853 27.0216C356.447 26.5001 356.129 25.8424 355.897 25.0485C355.665 24.2488 355.549 23.3043 355.549 22.2148C355.549 21.1254 355.665 20.1809 355.897 19.3812C356.129 18.5815 356.447 17.9209 356.853 17.3993C357.259 16.872 357.734 16.4809 358.279 16.2259C358.829 15.9709 359.423 15.8434 360.06 15.8434C360.692 15.8434 361.283 15.9709 361.834 16.2259C362.39 16.4809 362.871 16.872 363.277 17.3993C363.682 17.9209 364.001 18.5815 364.233 19.3812C364.47 20.1809 364.589 21.1254 364.589 22.2148ZM362.981 22.2148C362.981 21.2645 362.9 20.4677 362.738 19.8245C362.581 19.1754 362.367 18.6539 362.094 18.2599C361.828 17.8658 361.518 17.5848 361.164 17.4167C360.811 17.2429 360.443 17.156 360.06 17.156C359.678 17.156 359.31 17.2429 358.957 17.4167C358.603 17.5848 358.293 17.8658 358.027 18.2599C357.76 18.6539 357.546 19.1754 357.383 19.8245C357.227 20.4677 357.149 21.2645 357.149 22.2148C357.149 23.1652 357.227 23.962 357.383 24.6052C357.546 25.2484 357.76 25.7671 358.027 26.1611C358.293 26.5552 358.603 26.8391 358.957 27.0129C359.31 27.181 359.678 27.265 360.06 27.265C360.443 27.265 360.811 27.181 361.164 27.0129C361.518 26.8391 361.828 26.5552 362.094 26.1611C362.367 25.7671 362.581 25.2484 362.738 24.6052C362.9 23.962 362.981 23.1652 362.981 22.2148ZM376.412 22.2148C376.412 23.3043 376.293 24.2488 376.056 25.0485C375.824 25.8424 375.505 26.5001 375.099 27.0216C374.694 27.5432 374.213 27.9314 373.657 28.1864C373.106 28.4414 372.515 28.5689 371.883 28.5689C371.246 28.5689 370.652 28.4414 370.101 28.1864C369.557 27.9314 369.081 27.5432 368.676 27.0216C368.27 26.5001 367.952 25.8424 367.72 25.0485C367.488 24.2488 367.372 23.3043 367.372 22.2148C367.372 21.1254 367.488 20.1809 367.72 19.3812C367.952 18.5815 368.27 17.9209 368.676 17.3993C369.081 16.872 369.557 16.4809 370.101 16.2259C370.652 15.9709 371.246 15.8434 371.883 15.8434C372.515 15.8434 373.106 15.9709 373.657 16.2259C374.213 16.4809 374.694 16.872 375.099 17.3993C375.505 17.9209 375.824 18.5815 376.056 19.3812C376.293 20.1809 376.412 21.1254 376.412 22.2148ZM374.804 22.2148C374.804 21.2645 374.723 20.4677 374.561 19.8245C374.404 19.1754 374.19 18.6539 373.917 18.2599C373.651 17.8658 373.341 17.5848 372.987 17.4167C372.634 17.2429 372.266 17.156 371.883 17.156C371.501 17.156 371.133 17.2429 370.779 17.4167C370.426 17.5848 370.116 17.8658 369.849 18.2599C369.583 18.6539 369.368 19.1754 369.206 19.8245C369.05 20.4677 368.971 21.2645 368.971 22.2148C368.971 23.1652 369.05 23.962 369.206 24.6052C369.368 25.2484 369.583 25.7671 369.849 26.1611C370.116 26.5552 370.426 26.8391 370.779 27.0129C371.133 27.181 371.501 27.265 371.883 27.265C372.266 27.265 372.634 27.181 372.987 27.0129C373.341 26.8391 373.651 26.5552 373.917 26.1611C374.19 25.7671 374.404 25.2484 374.561 24.6052C374.723 23.962 374.804 23.1652 374.804 22.2148ZM394.421 22.2148C394.421 23.3043 394.302 24.2488 394.065 25.0485C393.833 25.8424 393.514 26.5001 393.109 27.0216C392.703 27.5432 392.222 27.9314 391.666 28.1864C391.115 28.4414 390.524 28.5689 389.893 28.5689C389.255 28.5689 388.661 28.4414 388.111 28.1864C387.566 27.9314 387.091 27.5432 386.685 27.0216C386.279 26.5001 385.961 25.8424 385.729 25.0485C385.497 24.2488 385.381 23.3043 385.381 22.2148C385.381 21.1254 385.497 20.1809 385.729 19.3812C385.961 18.5815 386.279 17.9209 386.685 17.3993C387.091 16.872 387.566 16.4809 388.111 16.2259C388.661 15.9709 389.255 15.8434 389.893 15.8434C390.524 15.8434 391.115 15.9709 391.666 16.2259C392.222 16.4809 392.703 16.872 393.109 17.3993C393.514 17.9209 393.833 18.5815 394.065 19.3812C394.302 20.1809 394.421 21.1254 394.421 22.2148ZM392.813 22.2148C392.813 21.2645 392.732 20.4677 392.57 19.8245C392.413 19.1754 392.199 18.6539 391.926 18.2599C391.66 17.8658 391.35 17.5848 390.996 17.4167C390.643 17.2429 390.275 17.156 389.893 17.156C389.51 17.156 389.142 17.2429 388.789 17.4167C388.435 17.5848 388.125 17.8658 387.859 18.2599C387.592 18.6539 387.378 19.1754 387.215 19.8245C387.059 20.4677 386.981 21.2645 386.981 22.2148C386.981 23.1652 387.059 23.962 387.215 24.6052C387.378 25.2484 387.592 25.7671 387.859 26.1611C388.125 26.5552 388.435 26.8391 388.789 27.0129C389.142 27.181 389.51 27.265 389.893 27.265C390.275 27.265 390.643 27.181 390.996 27.0129C391.35 26.8391 391.66 26.5552 391.926 26.1611C392.199 25.7671 392.413 25.2484 392.57 24.6052C392.732 23.962 392.813 23.1652 392.813 22.2148ZM405.531 27.2563V28.4385H398.856V27.2563H401.524V18.764C401.524 18.509 401.533 18.2512 401.55 17.9904L399.334 19.894C399.258 19.9578 399.183 19.9983 399.108 20.0157C399.032 20.0273 398.963 20.0273 398.899 20.0157C398.835 20.0041 398.774 19.9809 398.716 19.9462C398.664 19.9114 398.624 19.8737 398.595 19.8332L398.108 19.1639L401.82 15.9564H403.08V27.2563H405.531ZM418.067 22.2148C418.067 23.3043 417.948 24.2488 417.71 25.0485C417.479 25.8424 417.16 26.5001 416.754 27.0216C416.349 27.5432 415.868 27.9314 415.311 28.1864C414.761 28.4414 414.17 28.5689 413.538 28.5689C412.901 28.5689 412.307 28.4414 411.756 28.1864C411.211 27.9314 410.736 27.5432 410.331 27.0216C409.925 26.5001 409.606 25.8424 409.375 25.0485C409.143 24.2488 409.027 23.3043 409.027 22.2148C409.027 21.1254 409.143 20.1809 409.375 19.3812C409.606 18.5815 409.925 17.9209 410.331 17.3993C410.736 16.872 411.211 16.4809 411.756 16.2259C412.307 15.9709 412.901 15.8434 413.538 15.8434C414.17 15.8434 414.761 15.9709 415.311 16.2259C415.868 16.4809 416.349 16.872 416.754 17.3993C417.16 17.9209 417.479 18.5815 417.71 19.3812C417.948 20.1809 418.067 21.1254 418.067 22.2148ZM416.459 22.2148C416.459 21.2645 416.378 20.4677 416.215 19.8245C416.059 19.1754 415.844 18.6539 415.572 18.2599C415.306 17.8658 414.996 17.5848 414.642 17.4167C414.289 17.2429 413.921 17.156 413.538 17.156C413.156 17.156 412.788 17.2429 412.434 17.4167C412.081 17.5848 411.771 17.8658 411.504 18.2599C411.238 18.6539 411.023 19.1754 410.861 19.8245C410.704 20.4677 410.626 21.2645 410.626 22.2148C410.626 23.1652 410.704 23.962 410.861 24.6052C411.023 25.2484 411.238 25.7671 411.504 26.1611C411.771 26.5552 412.081 26.8391 412.434 27.0129C412.788 27.181 413.156 27.265 413.538 27.265C413.921 27.265 414.289 27.181 414.642 27.0129C414.996 26.8391 415.306 26.5552 415.572 26.1611C415.844 25.7671 416.059 25.2484 416.215 24.6052C416.378 23.962 416.459 23.1652 416.459 22.2148ZM429.177 27.2563V28.4385H422.501V27.2563H425.17V18.764C425.17 18.509 425.178 18.2512 425.196 17.9904L422.979 19.894C422.904 19.9578 422.829 19.9983 422.753 20.0157C422.678 20.0273 422.608 20.0273 422.545 20.0157C422.481 20.0041 422.42 19.9809 422.362 19.9462C422.31 19.9114 422.269 19.8737 422.24 19.8332L421.754 19.1639L425.465 15.9564H426.726V27.2563H429.177ZM441.712 22.2148C441.712 23.3043 441.594 24.2488 441.356 25.0485C441.124 25.8424 440.805 26.5001 440.4 27.0216C439.994 27.5432 439.513 27.9314 438.957 28.1864C438.406 28.4414 437.815 28.5689 437.184 28.5689C436.546 28.5689 435.952 28.4414 435.402 28.1864C434.857 27.9314 434.382 27.5432 433.976 27.0216C433.571 26.5001 433.252 25.8424 433.02 25.0485C432.788 24.2488 432.672 23.3043 432.672 22.2148C432.672 21.1254 432.788 20.1809 433.02 19.3812C433.252 18.5815 433.571 17.9209 433.976 17.3993C434.382 16.872 434.857 16.4809 435.402 16.2259C435.952 15.9709 436.546 15.8434 437.184 15.8434C437.815 15.8434 438.406 15.9709 438.957 16.2259C439.513 16.4809 439.994 16.872 440.4 17.3993C440.805 17.9209 441.124 18.5815 441.356 19.3812C441.594 20.1809 441.712 21.1254 441.712 22.2148ZM440.104 22.2148C440.104 21.2645 440.023 20.4677 439.861 19.8245C439.704 19.1754 439.49 18.6539 439.218 18.2599C438.951 17.8658 438.641 17.5848 438.288 17.4167C437.934 17.2429 437.566 17.156 437.184 17.156C436.801 17.156 436.433 17.2429 436.08 17.4167C435.726 17.5848 435.416 17.8658 435.15 18.2599C434.883 18.6539 434.669 19.1754 434.507 19.8245C434.35 20.4677 434.272 21.2645 434.272 22.2148C434.272 23.1652 434.35 23.962 434.507 24.6052C434.669 25.2484 434.883 25.7671 435.15 26.1611C435.416 26.5552 435.726 26.8391 436.08 27.0129C436.433 27.181 436.801 27.265 437.184 27.265C437.566 27.265 437.934 27.181 438.288 27.0129C438.641 26.8391 438.951 26.5552 439.218 26.1611C439.49 25.7671 439.704 25.2484 439.861 24.6052C440.023 23.962 440.104 23.1652 440.104 22.2148ZM453.535 22.2148C453.535 23.3043 453.416 24.2488 453.179 25.0485C452.947 25.8424 452.628 26.5001 452.223 27.0216C451.817 27.5432 451.336 27.9314 450.78 28.1864C450.229 28.4414 449.638 28.5689 449.007 28.5689C448.369 28.5689 447.775 28.4414 447.225 28.1864C446.68 27.9314 446.205 27.5432 445.799 27.0216C445.393 26.5001 445.075 25.8424 444.843 25.0485C444.611 24.2488 444.495 23.3043 444.495 22.2148C444.495 21.1254 444.611 20.1809 444.843 19.3812C445.075 18.5815 445.393 17.9209 445.799 17.3993C446.205 16.872 446.68 16.4809 447.225 16.2259C447.775 15.9709 448.369 15.8434 449.007 15.8434C449.638 15.8434 450.229 15.9709 450.78 16.2259C451.336 16.4809 451.817 16.872 452.223 17.3993C452.628 17.9209 452.947 18.5815 453.179 19.3812C453.416 20.1809 453.535 21.1254 453.535 22.2148ZM451.927 22.2148C451.927 21.2645 451.846 20.4677 451.684 19.8245C451.527 19.1754 451.313 18.6539 451.04 18.2599C450.774 17.8658 450.464 17.5848 450.11 17.4167C449.757 17.2429 449.389 17.156 449.007 17.156C448.624 17.156 448.256 17.2429 447.903 17.4167C447.549 17.5848 447.239 17.8658 446.973 18.2599C446.706 18.6539 446.492 19.1754 446.329 19.8245C446.173 20.4677 446.095 21.2645 446.095 22.2148C446.095 23.1652 446.173 23.962 446.329 24.6052C446.492 25.2484 446.706 25.7671 446.973 26.1611C447.239 26.5552 447.549 26.8391 447.903 27.0129C448.256 27.181 448.624 27.265 449.007 27.265C449.389 27.265 449.757 27.181 450.11 27.0129C450.464 26.8391 450.774 26.5552 451.04 26.1611C451.313 25.7671 451.527 25.2484 451.684 24.6052C451.846 23.962 451.927 23.1652 451.927 22.2148ZM465.358 22.2148C465.358 23.3043 465.239 24.2488 465.002 25.0485C464.77 25.8424 464.451 26.5001 464.045 27.0216C463.64 27.5432 463.159 27.9314 462.603 28.1864C462.052 28.4414 461.461 28.5689 460.829 28.5689C460.192 28.5689 459.598 28.4414 459.047 28.1864C458.503 27.9314 458.028 27.5432 457.622 27.0216C457.216 26.5001 456.898 25.8424 456.666 25.0485C456.434 24.2488 456.318 23.3043 456.318 22.2148C456.318 21.1254 456.434 20.1809 456.666 19.3812C456.898 18.5815 457.216 17.9209 457.622 17.3993C458.028 16.872 458.503 16.4809 459.047 16.2259C459.598 15.9709 460.192 15.8434 460.829 15.8434C461.461 15.8434 462.052 15.9709 462.603 16.2259C463.159 16.4809 463.64 16.872 464.045 17.3993C464.451 17.9209 464.77 18.5815 465.002 19.3812C465.239 20.1809 465.358 21.1254 465.358 22.2148ZM463.75 22.2148C463.75 21.2645 463.669 20.4677 463.507 19.8245C463.35 19.1754 463.136 18.6539 462.863 18.2599C462.597 17.8658 462.287 17.5848 461.933 17.4167C461.58 17.2429 461.212 17.156 460.829 17.156C460.447 17.156 460.079 17.2429 459.725 17.4167C459.372 17.5848 459.062 17.8658 458.795 18.2599C458.529 18.6539 458.314 19.1754 458.152 19.8245C457.996 20.4677 457.917 21.2645 457.917 22.2148C457.917 23.1652 457.996 23.962 458.152 24.6052C458.314 25.2484 458.529 25.7671 458.795 26.1611C459.062 26.5552 459.372 26.8391 459.725 27.0129C460.079 27.181 460.447 27.265 460.829 27.265C461.212 27.265 461.58 27.181 461.933 27.0129C462.287 26.8391 462.597 26.5552 462.863 26.1611C463.136 25.7671 463.35 25.2484 463.507 24.6052C463.669 23.962 463.75 23.1652 463.75 22.2148Z" fill="url(#paint8_linear_74_845)"/>
<path d="M309.849 27.2563V28.4385H303.173V27.2563H305.842V18.764C305.842 18.509 305.85 18.2512 305.868 17.9904L303.651 19.894C303.576 19.9578 303.5 19.9983 303.425 20.0157C303.35 20.0273 303.28 20.0273 303.217 20.0157C303.153 20.0041 303.092 19.9809 303.034 19.9462C302.982 19.9114 302.941 19.8737 302.912 19.8332L302.426 19.1639L306.137 15.9564H307.397V27.2563H309.849ZM328.571 22.2148C328.571 23.3043 328.452 24.2488 328.214 25.0485C327.983 25.8424 327.664 26.5001 327.258 27.0216C326.853 27.5432 326.372 27.9314 325.815 28.1864C325.265 28.4414 324.674 28.5689 324.042 28.5689C323.405 28.5689 322.811 28.4414 322.26 28.1864C321.715 27.9314 321.24 27.5432 320.835 27.0216C320.429 26.5001 320.11 25.8424 319.878 25.0485C319.647 24.2488 319.531 23.3043 319.531 22.2148C319.531 21.1254 319.647 20.1809 319.878 19.3812C320.11 18.5815 320.429 17.9209 320.835 17.3993C321.24 16.872 321.715 16.4809 322.26 16.2259C322.811 15.9709 323.405 15.8434 324.042 15.8434C324.674 15.8434 325.265 15.9709 325.815 16.2259C326.372 16.4809 326.853 16.872 327.258 17.3993C327.664 17.9209 327.983 18.5815 328.214 19.3812C328.452 20.1809 328.571 21.1254 328.571 22.2148ZM326.963 22.2148C326.963 21.2645 326.881 20.4677 326.719 19.8245C326.563 19.1754 326.348 18.6539 326.076 18.2599C325.809 17.8658 325.499 17.5848 325.146 17.4167C324.792 17.2429 324.424 17.156 324.042 17.156C323.66 17.156 323.292 17.2429 322.938 17.4167C322.585 17.5848 322.275 17.8658 322.008 18.2599C321.741 18.6539 321.527 19.1754 321.365 19.8245C321.208 20.4677 321.13 21.2645 321.13 22.2148C321.13 23.1652 321.208 23.962 321.365 24.6052C321.527 25.2484 321.741 25.7671 322.008 26.1611C322.275 26.5552 322.585 26.8391 322.938 27.0129C323.292 27.181 323.66 27.265 324.042 27.265C324.424 27.265 324.792 27.181 325.146 27.0129C325.499 26.8391 325.809 26.5552 326.076 26.1611C326.348 25.7671 326.563 25.2484 326.719 24.6052C326.881 23.962 326.963 23.1652 326.963 22.2148ZM345.867 27.2563V28.4385H339.192V27.2563H341.86V18.764C341.86 18.509 341.869 18.2512 341.886 17.9904L339.67 19.894C339.594 19.9578 339.519 19.9983 339.444 20.0157C339.368 20.0273 339.299 20.0273 339.235 20.0157C339.171 20.0041 339.11 19.9809 339.052 19.9462C339 19.9114 338.96 19.8737 338.931 19.8332L338.444 19.1639L342.156 15.9564H343.416V27.2563H345.867ZM364.589 22.2148C364.589 23.3043 364.47 24.2488 364.233 25.0485C364.001 25.8424 363.682 26.5001 363.277 27.0216C362.871 27.5432 362.39 27.9314 361.834 28.1864C361.283 28.4414 360.692 28.5689 360.06 28.5689C359.423 28.5689 358.829 28.4414 358.279 28.1864C357.734 27.9314 357.259 27.5432 356.853 27.0216C356.447 26.5001 356.129 25.8424 355.897 25.0485C355.665 24.2488 355.549 23.3043 355.549 22.2148C355.549 21.1254 355.665 20.1809 355.897 19.3812C356.129 18.5815 356.447 17.9209 356.853 17.3993C357.259 16.872 357.734 16.4809 358.279 16.2259C358.829 15.9709 359.423 15.8434 360.06 15.8434C360.692 15.8434 361.283 15.9709 361.834 16.2259C362.39 16.4809 362.871 16.872 363.277 17.3993C363.682 17.9209 364.001 18.5815 364.233 19.3812C364.47 20.1809 364.589 21.1254 364.589 22.2148ZM362.981 22.2148C362.981 21.2645 362.9 20.4677 362.738 19.8245C362.581 19.1754 362.367 18.6539 362.094 18.2599C361.828 17.8658 361.518 17.5848 361.164 17.4167C360.811 17.2429 360.443 17.156 360.06 17.156C359.678 17.156 359.31 17.2429 358.957 17.4167C358.603 17.5848 358.293 17.8658 358.027 18.2599C357.76 18.6539 357.546 19.1754 357.383 19.8245C357.227 20.4677 357.149 21.2645 357.149 22.2148C357.149 23.1652 357.227 23.962 357.383 24.6052C357.546 25.2484 357.76 25.7671 358.027 26.1611C358.293 26.5552 358.603 26.8391 358.957 27.0129C359.31 27.181 359.678 27.265 360.06 27.265C360.443 27.265 360.811 27.181 361.164 27.0129C361.518 26.8391 361.828 26.5552 362.094 26.1611C362.367 25.7671 362.581 25.2484 362.738 24.6052C362.9 23.962 362.981 23.1652 362.981 22.2148ZM376.412 22.2148C376.412 23.3043 376.293 24.2488 376.056 25.0485C375.824 25.8424 375.505 26.5001 375.099 27.0216C374.694 27.5432 374.213 27.9314 373.657 28.1864C373.106 28.4414 372.515 28.5689 371.883 28.5689C371.246 28.5689 370.652 28.4414 370.101 28.1864C369.557 27.9314 369.081 27.5432 368.676 27.0216C368.27 26.5001 367.952 25.8424 367.72 25.0485C367.488 24.2488 367.372 23.3043 367.372 22.2148C367.372 21.1254 367.488 20.1809 367.72 19.3812C367.952 18.5815 368.27 17.9209 368.676 17.3993C369.081 16.872 369.557 16.4809 370.101 16.2259C370.652 15.9709 371.246 15.8434 371.883 15.8434C372.515 15.8434 373.106 15.9709 373.657 16.2259C374.213 16.4809 374.694 16.872 375.099 17.3993C375.505 17.9209 375.824 18.5815 376.056 19.3812C376.293 20.1809 376.412 21.1254 376.412 22.2148ZM374.804 22.2148C374.804 21.2645 374.723 20.4677 374.561 19.8245C374.404 19.1754 374.19 18.6539 373.917 18.2599C373.651 17.8658 373.341 17.5848 372.987 17.4167C372.634 17.2429 372.266 17.156 371.883 17.156C371.501 17.156 371.133 17.2429 370.779 17.4167C370.426 17.5848 370.116 17.8658 369.849 18.2599C369.583 18.6539 369.368 19.1754 369.206 19.8245C369.05 20.4677 368.971 21.2645 368.971 22.2148C368.971 23.1652 369.05 23.962 369.206 24.6052C369.368 25.2484 369.583 25.7671 369.849 26.1611C370.116 26.5552 370.426 26.8391 370.779 27.0129C371.133 27.181 371.501 27.265 371.883 27.265C372.266 27.265 372.634 27.181 372.987 27.0129C373.341 26.8391 373.651 26.5552 373.917 26.1611C374.19 25.7671 374.404 25.2484 374.561 24.6052C374.723 23.962 374.804 23.1652 374.804 22.2148ZM394.421 22.2148C394.421 23.3043 394.302 24.2488 394.065 25.0485C393.833 25.8424 393.514 26.5001 393.109 27.0216C392.703 27.5432 392.222 27.9314 391.666 28.1864C391.115 28.4414 390.524 28.5689 389.893 28.5689C389.255 28.5689 388.661 28.4414 388.111 28.1864C387.566 27.9314 387.091 27.5432 386.685 27.0216C386.279 26.5001 385.961 25.8424 385.729 25.0485C385.497 24.2488 385.381 23.3043 385.381 22.2148C385.381 21.1254 385.497 20.1809 385.729 19.3812C385.961 18.5815 386.279 17.9209 386.685 17.3993C387.091 16.872 387.566 16.4809 388.111 16.2259C388.661 15.9709 389.255 15.8434 389.893 15.8434C390.524 15.8434 391.115 15.9709 391.666 16.2259C392.222 16.4809 392.703 16.872 393.109 17.3993C393.514 17.9209 393.833 18.5815 394.065 19.3812C394.302 20.1809 394.421 21.1254 394.421 22.2148ZM392.813 22.2148C392.813 21.2645 392.732 20.4677 392.57 19.8245C392.413 19.1754 392.199 18.6539 391.926 18.2599C391.66 17.8658 391.35 17.5848 390.996 17.4167C390.643 17.2429 390.275 17.156 389.893 17.156C389.51 17.156 389.142 17.2429 388.789 17.4167C388.435 17.5848 388.125 17.8658 387.859 18.2599C387.592 18.6539 387.378 19.1754 387.215 19.8245C387.059 20.4677 386.981 21.2645 386.981 22.2148C386.981 23.1652 387.059 23.962 387.215 24.6052C387.378 25.2484 387.592 25.7671 387.859 26.1611C388.125 26.5552 388.435 26.8391 388.789 27.0129C389.142 27.181 389.51 27.265 389.893 27.265C390.275 27.265 390.643 27.181 390.996 27.0129C391.35 26.8391 391.66 26.5552 391.926 26.1611C392.199 25.7671 392.413 25.2484 392.57 24.6052C392.732 23.962 392.813 23.1652 392.813 22.2148ZM405.531 27.2563V28.4385H398.856V27.2563H401.524V18.764C401.524 18.509 401.533 18.2512 401.55 17.9904L399.334 19.894C399.258 19.9578 399.183 19.9983 399.108 20.0157C399.032 20.0273 398.963 20.0273 398.899 20.0157C398.835 20.0041 398.774 19.9809 398.716 19.9462C398.664 19.9114 398.624 19.8737 398.595 19.8332L398.108 19.1639L401.82 15.9564H403.08V27.2563H405.531ZM418.067 22.2148C418.067 23.3043 417.948 24.2488 417.71 25.0485C417.479 25.8424 417.16 26.5001 416.754 27.0216C416.349 27.5432 415.868 27.9314 415.311 28.1864C414.761 28.4414 414.17 28.5689 413.538 28.5689C412.901 28.5689 412.307 28.4414 411.756 28.1864C411.211 27.9314 410.736 27.5432 410.331 27.0216C409.925 26.5001 409.606 25.8424 409.375 25.0485C409.143 24.2488 409.027 23.3043 409.027 22.2148C409.027 21.1254 409.143 20.1809 409.375 19.3812C409.606 18.5815 409.925 17.9209 410.331 17.3993C410.736 16.872 411.211 16.4809 411.756 16.2259C412.307 15.9709 412.901 15.8434 413.538 15.8434C414.17 15.8434 414.761 15.9709 415.311 16.2259C415.868 16.4809 416.349 16.872 416.754 17.3993C417.16 17.9209 417.479 18.5815 417.71 19.3812C417.948 20.1809 418.067 21.1254 418.067 22.2148ZM416.459 22.2148C416.459 21.2645 416.378 20.4677 416.215 19.8245C416.059 19.1754 415.844 18.6539 415.572 18.2599C415.306 17.8658 414.996 17.5848 414.642 17.4167C414.289 17.2429 413.921 17.156 413.538 17.156C413.156 17.156 412.788 17.2429 412.434 17.4167C412.081 17.5848 411.771 17.8658 411.504 18.2599C411.238 18.6539 411.023 19.1754 410.861 19.8245C410.704 20.4677 410.626 21.2645 410.626 22.2148C410.626 23.1652 410.704 23.962 410.861 24.6052C411.023 25.2484 411.238 25.7671 411.504 26.1611C411.771 26.5552 412.081 26.8391 412.434 27.0129C412.788 27.181 413.156 27.265 413.538 27.265C413.921 27.265 414.289 27.181 414.642 27.0129C414.996 26.8391 415.306 26.5552 415.572 26.1611C415.844 25.7671 416.059 25.2484 416.215 24.6052C416.378 23.962 416.459 23.1652 416.459 22.2148ZM429.177 27.2563V28.4385H422.501V27.2563H425.17V18.764C425.17 18.509 425.178 18.2512 425.196 17.9904L422.979 19.894C422.904 19.9578 422.829 19.9983 422.753 20.0157C422.678 20.0273 422.608 20.0273 422.545 20.0157C422.481 20.0041 422.42 19.9809 422.362 19.9462C422.31 19.9114 422.269 19.8737 422.24 19.8332L421.754 19.1639L425.465 15.9564H426.726V27.2563H429.177ZM441.712 22.2148C441.712 23.3043 441.594 24.2488 441.356 25.0485C441.124 25.8424 440.805 26.5001 440.4 27.0216C439.994 27.5432 439.513 27.9314 438.957 28.1864C438.406 28.4414 437.815 28.5689 437.184 28.5689C436.546 28.5689 435.952 28.4414 435.402 28.1864C434.857 27.9314 434.382 27.5432 433.976 27.0216C433.571 26.5001 433.252 25.8424 433.02 25.0485C432.788 24.2488 432.672 23.3043 432.672 22.2148C432.672 21.1254 432.788 20.1809 433.02 19.3812C433.252 18.5815 433.571 17.9209 433.976 17.3993C434.382 16.872 434.857 16.4809 435.402 16.2259C435.952 15.9709 436.546 15.8434 437.184 15.8434C437.815 15.8434 438.406 15.9709 438.957 16.2259C439.513 16.4809 439.994 16.872 440.4 17.3993C440.805 17.9209 441.124 18.5815 441.356 19.3812C441.594 20.1809 441.712 21.1254 441.712 22.2148ZM440.104 22.2148C440.104 21.2645 440.023 20.4677 439.861 19.8245C439.704 19.1754 439.49 18.6539 439.218 18.2599C438.951 17.8658 438.641 17.5848 438.288 17.4167C437.934 17.2429 437.566 17.156 437.184 17.156C436.801 17.156 436.433 17.2429 436.08 17.4167C435.726 17.5848 435.416 17.8658 435.15 18.2599C434.883 18.6539 434.669 19.1754 434.507 19.8245C434.35 20.4677 434.272 21.2645 434.272 22.2148C434.272 23.1652 434.35 23.962 434.507 24.6052C434.669 25.2484 434.883 25.7671 435.15 26.1611C435.416 26.5552 435.726 26.8391 436.08 27.0129C436.433 27.181 436.801 27.265 437.184 27.265C437.566 27.265 437.934 27.181 438.288 27.0129C438.641 26.8391 438.951 26.5552 439.218 26.1611C439.49 25.7671 439.704 25.2484 439.861 24.6052C440.023 23.962 440.104 23.1652 440.104 22.2148ZM453.535 22.2148C453.535 23.3043 453.416 24.2488 453.179 25.0485C452.947 25.8424 452.628 26.5001 452.223 27.0216C451.817 27.5432 451.336 27.9314 450.78 28.1864C450.229 28.4414 449.638 28.5689 449.007 28.5689C448.369 28.5689 447.775 28.4414 447.225 28.1864C446.68 27.9314 446.205 27.5432 445.799 27.0216C445.393 26.5001 445.075 25.8424 444.843 25.0485C444.611 24.2488 444.495 23.3043 444.495 22.2148C444.495 21.1254 444.611 20.1809 444.843 19.3812C445.075 18.5815 445.393 17.9209 445.799 17.3993C446.205 16.872 446.68 16.4809 447.225 16.2259C447.775 15.9709 448.369 15.8434 449.007 15.8434C449.638 15.8434 450.229 15.9709 450.78 16.2259C451.336 16.4809 451.817 16.872 452.223 17.3993C452.628 17.9209 452.947 18.5815 453.179 19.3812C453.416 20.1809 453.535 21.1254 453.535 22.2148ZM451.927 22.2148C451.927 21.2645 451.846 20.4677 451.684 19.8245C451.527 19.1754 451.313 18.6539 451.04 18.2599C450.774 17.8658 450.464 17.5848 450.11 17.4167C449.757 17.2429 449.389 17.156 449.007 17.156C448.624 17.156 448.256 17.2429 447.903 17.4167C447.549 17.5848 447.239 17.8658 446.973 18.2599C446.706 18.6539 446.492 19.1754 446.329 19.8245C446.173 20.4677 446.095 21.2645 446.095 22.2148C446.095 23.1652 446.173 23.962 446.329 24.6052C446.492 25.2484 446.706 25.7671 446.973 26.1611C447.239 26.5552 447.549 26.8391 447.903 27.0129C448.256 27.181 448.624 27.265 449.007 27.265C449.389 27.265 449.757 27.181 450.11 27.0129C450.464 26.8391 450.774 26.5552 451.04 26.1611C451.313 25.7671 451.527 25.2484 451.684 24.6052C451.846 23.962 451.927 23.1652 451.927 22.2148ZM465.358 22.2148C465.358 23.3043 465.239 24.2488 465.002 25.0485C464.77 25.8424 464.451 26.5001 464.045 27.0216C463.64 27.5432 463.159 27.9314 462.603 28.1864C462.052 28.4414 461.461 28.5689 460.829 28.5689C460.192 28.5689 459.598 28.4414 459.047 28.1864C458.503 27.9314 458.028 27.5432 457.622 27.0216C457.216 26.5001 456.898 25.8424 456.666 25.0485C456.434 24.2488 456.318 23.3043 456.318 22.2148C456.318 21.1254 456.434 20.1809 456.666 19.3812C456.898 18.5815 457.216 17.9209 457.622 17.3993C458.028 16.872 458.503 16.4809 459.047 16.2259C459.598 15.9709 460.192 15.8434 460.829 15.8434C461.461 15.8434 462.052 15.9709 462.603 16.2259C463.159 16.4809 463.64 16.872 464.045 17.3993C464.451 17.9209 464.77 18.5815 465.002 19.3812C465.239 20.1809 465.358 21.1254 465.358 22.2148ZM463.75 22.2148C463.75 21.2645 463.669 20.4677 463.507 19.8245C463.35 19.1754 463.136 18.6539 462.863 18.2599C462.597 17.8658 462.287 17.5848 461.933 17.4167C461.58 17.2429 461.212 17.156 460.829 17.156C460.447 17.156 460.079 17.2429 459.725 17.4167C459.372 17.5848 459.062 17.8658 458.795 18.2599C458.529 18.6539 458.314 19.1754 458.152 19.8245C457.996 20.4677 457.917 21.2645 457.917 22.2148C457.917 23.1652 457.996 23.962 458.152 24.6052C458.314 25.2484 458.529 25.7671 458.795 26.1611C459.062 26.5552 459.372 26.8391 459.725 27.0129C460.079 27.181 460.447 27.265 460.829 27.265C461.212 27.265 461.58 27.181 461.933 27.0129C462.287 26.8391 462.597 26.5552 462.863 26.1611C463.136 25.7671 463.35 25.2484 463.507 24.6052C463.669 23.962 463.75 23.1652 463.75 22.2148Z" fill="url(#paint9_linear_74_845)" fill-opacity="0.35"/>
</g>
</g>
<defs>
<filter id="filter0_dd_74_845" x="-24.7139" y="11.7041" width="123.207" height="21.0039" filterUnits="userSpaceOnUse" color-interpolation-filters="sRGB">
<feFlood flood-opacity="0" result="BackgroundImageFix"/>
<feColorMatrix in="SourceAlpha" type="matrix" values="0 0 0 0 0 0 0 0 0 0 0 0 0 0 0 0 0 0 127 0" result="hardAlpha"/>
<feOffset/>
<feGaussianBlur stdDeviation="2.06958"/>
<feComposite in2="hardAlpha" operator="out"/>
<feColorMatrix type="matrix" values="0 0 0 0 1 0 0 0 0 0.675343 0 0 0 0 0.5375 0 0 0 1 0"/>
<feBlend mode="normal" in2="BackgroundImageFix" result="effect1_dropShadow_74_845"/>
<feColorMatrix in="SourceAlpha" type="matrix" values="0 0 0 0 0 0 0 0 0 0 0 0 0 0 0 0 0 0 127 0" result="hardAlpha"/>
<feOffset/>
<feGaussianBlur stdDeviation="1.44871"/>
<feComposite in2="hardAlpha" operator="out"/>
<feColorMatrix type="matrix" values="0 0 0 0 1 0 0 0 0 0.298039 0 0 0 0 0 0 0 0 1 0"/>
<feBlend mode="normal" in2="effect1_dropShadow_74_845" result="effect2_dropShadow_74_845"/>
<feBlend mode="normal" in="SourceGraphic" in2="effect2_dropShadow_74_845" result="shape"/>
</filter>
<filter id="filter1_ddf_74_845" x="73.2187" y="0.334881" width="125.781" height="22.8654" filterUnits="userSpaceOnUse" color-interpolation-filters="sRGB">
<feFlood flood-opacity="0" result="BackgroundImageFix"/>
<feColorMatrix in="SourceAlpha" type="matrix" values="0 0 0 0 0 0 0 0 0 0 0 0 0 0 0 0 0 0 127 0" result="hardAlpha"/>
<feOffset/>
<feGaussianBlur stdDeviation="2.06958"/>
<feComposite in2="hardAlpha" operator="out"/>
<feColorMatrix type="matrix" values="0 0 0 0 1 0 0 0 0 0.675343 0 0 0 0 0.5375 0 0 0 1 0"/>
<feBlend mode="normal" in2="BackgroundImageFix" result="effect1_dropShadow_74_845"/>
<feColorMatrix in="SourceAlpha" type="matrix" values="0 0 0 0 0 0 0 0 0 0 0 0 0 0 0 0 0 0 127 0" result="hardAlpha"/>
<feOffset/>
<feGaussianBlur stdDeviation="1.44871"/>
<feComposite in2="hardAlpha" operator="out"/>
<feColorMatrix type="matrix" values="0 0 0 0 1 0 0 0 0 0.298039 0 0 0 0 0 0 0 0 1 0"/>
<feBlend mode="normal" in2="effect1_dropShadow_74_845" result="effect2_dropShadow_74_845"/>
<feBlend mode="normal" in="SourceGraphic" in2="effect2_dropShadow_74_845" result="shape"/>
<feGaussianBlur stdDeviation="2.53495" result="effect3_foregroundBlur_74_845"/>
</filter>
<filter id="filter2_dd_74_845" x="241.382" y="11.7041" width="129.747" height="21.0039" filterUnits="userSpaceOnUse" color-interpolation-filters="sRGB">
<feFlood flood-opacity="0" result="BackgroundImageFix"/>
<feColorMatrix in="SourceAlpha" type="matrix" values="0 0 0 0 0 0 0 0 0 0 0 0 0 0 0 0 0 0 127 0" result="hardAlpha"/>
<feOffset/>
<feGaussianBlur stdDeviation="2.06958"/>
<feComposite in2="hardAlpha" operator="out"/>
<feColorMatrix type="matrix" values="0 0 0 0 1 0 0 0 0 0.675343 0 0 0 0 0.5375 0 0 0 1 0"/>
<feBlend mode="normal" in2="BackgroundImageFix" result="effect1_dropShadow_74_845"/>
<feColorMatrix in="SourceAlpha" type="matrix" values="0 0 0 0 0 0 0 0 0 0 0 0 0 0 0 0 0 0 127 0" result="hardAlpha"/>
<feOffset/>
<feGaussianBlur stdDeviation="1.44871"/>
<feComposite in2="hardAlpha" operator="out"/>
<feColorMatrix type="matrix" values="0 0 0 0 1 0 0 0 0 0.298039 0 0 0 0 0 0 0 0 1 0"/>
<feBlend mode="normal" in2="effect1_dropShadow_74_845" result="effect2_dropShadow_74_845"/>
<feBlend mode="normal" in="SourceGraphic" in2="effect2_dropShadow_74_845" result="shape"/>
</filter>
<filter id="filter3_dd_74_845" x="174.72" y="11.7046" width="45.5337" height="21.0039" filterUnits="userSpaceOnUse" color-interpolation-filters="sRGB">
<feFlood flood-opacity="0" result="BackgroundImageFix"/>
<feColorMatrix in="SourceAlpha" type="matrix" values="0 0 0 0 0 0 0 0 0 0 0 0 0 0 0 0 0 0 127 0" result="hardAlpha"/>
<feOffset/>
<feGaussianBlur stdDeviation="2.06958"/>
<feComposite in2="hardAlpha" operator="out"/>
<feColorMatrix type="matrix" values="0 0 0 0 1 0 0 0 0 0.675343 0 0 0 0 0.5375 0 0 0 1 0"/>
<feBlend mode="normal" in2="BackgroundImageFix" result="effect1_dropShadow_74_845"/>
<feColorMatrix in="SourceAlpha" type="matrix" values="0 0 0 0 0 0 0 0 0 0 0 0 0 0 0 0 0 0 127 0" result="hardAlpha"/>
<feOffset/>
<feGaussianBlur stdDeviation="1.44871"/>
<feComposite in2="hardAlpha" operator="out"/>
<feColorMatrix type="matrix" values="0 0 0 0 1 0 0 0 0 0.298039 0 0 0 0 0 0 0 0 1 0"/>
<feBlend mode="normal" in2="effect1_dropShadow_74_845" result="effect2_dropShadow_74_845"/>
<feBlend mode="normal" in="SourceGraphic" in2="effect2_dropShadow_74_845" result="shape"/>
</filter>
<filter id="filter4_dd_74_845" x="298.286" y="11.7041" width="171.211" height="21.0039" filterUnits="userSpaceOnUse" color-interpolation-filters="sRGB">
<feFlood flood-opacity="0" result="BackgroundImageFix"/>
<feColorMatrix in="SourceAlpha" type="matrix" values="0 0 0 0 0 0 0 0 0 0 0 0 0 0 0 0 0 0 127 0" result="hardAlpha"/>
<feOffset/>
<feGaussianBlur stdDeviation="2.06958"/>
<feComposite in2="hardAlpha" operator="out"/>
<feColorMatrix type="matrix" values="0 0 0 0 1 0 0 0 0 0.675343 0 0 0 0 0.5375 0 0 0 1 0"/>
<feBlend mode="normal" in2="BackgroundImageFix" result="effect1_dropShadow_74_845"/>
<feColorMatrix in="SourceAlpha" type="matrix" values="0 0 0 0 0 0 0 0 0 0 0 0 0 0 0 0 0 0 127 0" result="hardAlpha"/>
<feOffset/>
<feGaussianBlur stdDeviation="1.44871"/>
<feComposite in2="hardAlpha" operator="out"/>
<feColorMatrix type="matrix" values="0 0 0 0 1 0 0 0 0 0.298039 0 0 0 0 0 0 0 0 1 0"/>
<feBlend mode="normal" in2="effect1_dropShadow_74_845" result="effect2_dropShadow_74_845"/>
<feBlend mode="normal" in="SourceGraphic" in2="effect2_dropShadow_74_845" result="shape"/>
</filter>
<linearGradient id="paint0_linear_74_845" x1="38" y1="11.4385" x2="38" y2="32.4385" gradientUnits="userSpaceOnUse">
<stop stop-color="#FF4C00"/>
<stop offset="0.5" stop-color="#FF8B59"/>
<stop offset="1" stop-color="#FF4C00"/>
</linearGradient>
<linearGradient id="paint1_linear_74_845" x1="-17.4325" y1="32.4385" x2="10.0076" y2="-17.5115" gradientUnits="userSpaceOnUse">
<stop/>
<stop offset="1" stop-opacity="0"/>
</linearGradient>
<linearGradient id="paint2_linear_74_845" x1="135.863" y1="1" x2="135.863" y2="22" gradientUnits="userSpaceOnUse">
<stop stop-color="#FF4C00"/>
<stop offset="0.5" stop-color="#FF8B59"/>
<stop offset="1" stop-color="#FF4C00"/>
</linearGradient>
<linearGradient id="paint3_linear_74_845" x1="81.3546" y1="22" x2="109.04" y2="-27.5572" gradientUnits="userSpaceOnUse">
<stop/>
<stop offset="1" stop-opacity="0"/>
</linearGradient>
<linearGradient id="paint4_linear_74_845" x1="307.5" y1="11.4385" x2="307.5" y2="32.4385" gradientUnits="userSpaceOnUse">
<stop stop-color="#FF4C00"/>
<stop offset="0.5" stop-color="#FF8B59"/>
<stop offset="1" stop-color="#FF4C00"/>
</linearGradient>
<linearGradient id="paint5_linear_74_845" x1="249.758" y1="32.4385" x2="276.588" y2="-18.4361" gradientUnits="userSpaceOnUse">
<stop/>
<stop offset="1" stop-opacity="0"/>
</linearGradient>
<linearGradient id="paint6_linear_74_845" x1="194.747" y1="11.439" x2="194.747" y2="32.439" gradientUnits="userSpaceOnUse">
<stop stop-color="#FF4C00"/>
<stop offset="0.5" stop-color="#FF8B59"/>
<stop offset="1" stop-color="#FF4C00"/>
</linearGradient>
<linearGradient id="paint7_linear_74_845" x1="173.036" y1="32.439" x2="203.772" y2="10.5253" gradientUnits="userSpaceOnUse">
<stop/>
<stop offset="1" stop-opacity="0"/>
</linearGradient>
<linearGradient id="paint8_linear_74_845" x1="384.5" y1="11.4385" x2="384.5" y2="32.4385" gradientUnits="userSpaceOnUse">
<stop stop-color="#FF4C00"/>
<stop offset="0.5" stop-color="#FF8B59"/>
<stop offset="1" stop-color="#FF4C00"/>
</linearGradient>
<linearGradient id="paint9_linear_74_845" x1="307.356" y1="32.4385" x2="329.564" y2="-23.8195" gradientUnits="userSpaceOnUse">
<stop/>
<stop offset="1" stop-opacity="0"/>
</linearGradient>
</defs>
</svg>
